<?xml version="1.0" encoding="UTF-8" standalone="no"?>
<!DOCTYPE svg PUBLIC "-//W3C//DTD SVG 1.1//EN"
 "http://www.w3.org/Graphics/SVG/1.1/DTD/svg11.dtd">
<!-- Generated by graphviz version 9.0.0 (20230911.1827)
 -->
<!-- Title: cluster0blocker.py Pages: 1 -->
<svg width="1706pt" height="547pt"
 viewBox="0.00 0.00 1706.25 546.50" xmlns="http://www.w3.org/2000/svg" xmlns:xlink="http://www.w3.org/1999/xlink">
<g id="graph0" class="graph" transform="scale(1 1) rotate(0) translate(4 542.5)">
<title>cluster0blocker.py</title>
<polygon fill="white" stroke="none" points="-4,4 -4,-542.5 1702.25,-542.5 1702.25,4 -4,4"/>
<text text-anchor="middle" x="849.12" y="-5.7" font-family="DejaVu Sans Mono" font-size="14.00">blocker.py</text>
<g id="clust1" class="cluster">
<title>cluster_4</title>
<polygon fill="purple" stroke="purple" points="959.25,-114 959.25,-166 1033.25,-166 1033.25,-114 959.25,-114"/>
</g>
<g id="clust2" class="cluster">
<title>cluster_3</title>
<polygon fill="purple" stroke="purple" points="692.25,-31 692.25,-83 880.25,-83 880.25,-31 692.25,-31"/>
</g>
<g id="clust3" class="cluster">
<title>cluster_2</title>
<polygon fill="purple" stroke="purple" points="407.25,-264 407.25,-316 754.25,-316 754.25,-264 407.25,-264"/>
</g>
<g id="clust4" class="cluster">
<title>cluster_KEY</title>
<polygon fill="none" stroke="black" points="1312.25,-264 1312.25,-530.5 1690.25,-530.5 1690.25,-264 1312.25,-264"/>
<text text-anchor="middle" x="1501.25" y="-513.2" font-family="DejaVu Sans Mono" font-size="14.00">KEY</text>
</g>
<!-- 1 -->
<g id="node1" class="node">
<title>1</title>
<polygon fill="#fffb81" stroke="black" points="844.88,-523 457.62,-523 457.62,-440 844.88,-440 844.88,-523"/>
<text text-anchor="start" x="465.62" y="-505.7" font-family="DejaVu Sans Mono" font-size="14.00">&quot;&quot;&quot;</text>
<text text-anchor="start" x="465.62" y="-490.7" font-family="DejaVu Sans Mono" font-size="14.00">Blocks connections between client and server.</text>
<text text-anchor="start" x="465.62" y="-475.7" font-family="DejaVu Sans Mono" font-size="14.00">&quot;&quot;&quot;</text>
<text text-anchor="start" x="465.62" y="-460.7" font-family="DejaVu Sans Mono" font-size="14.00">import socket</text>
<text text-anchor="middle" x="651.25" y="-445.7" font-family="DejaVu Sans Mono" font-size="14.00">server_port = 6789</text>
</g>
<!-- 2 -->
<g id="node2" class="node">
<title>2</title>
<polygon fill="orange" stroke="black" points="651.25,-423 0,-385 651.25,-347 1302.5,-385 651.25,-423"/>
<polyline fill="none" stroke="black" points="11.98,-385.7 11.98,-384.3"/>
<polyline fill="none" stroke="black" points="639.27,-347.7 663.23,-347.7"/>
<polyline fill="none" stroke="black" points="1290.52,-384.3 1290.52,-385.7"/>
<polyline fill="none" stroke="black" points="663.23,-422.3 639.27,-422.3"/>
<text text-anchor="middle" x="651.25" y="-386.7" font-family="DejaVu Sans Mono" font-size="14.00">client_socket = socket.socket(family=socket.AF_INET, type=socket.SOCK_STREAM)</text>
<text text-anchor="middle" x="651.25" y="-371.7" font-family="DejaVu Sans Mono" font-size="14.00">client_socket.connect((&#39;&#39;, server_port))</text>
</g>
<!-- 1&#45;&gt;2 -->
<g id="edge11" class="edge">
<title>1&#45;&gt;2</title>
<path fill="none" stroke="black" d="M651.25,-439.6C651.25,-438 651.25,-436.39 651.25,-434.78"/>
<polygon fill="black" stroke="black" points="654.75,-434.9 651.25,-424.9 647.75,-434.9 654.75,-434.9"/>
</g>
<!-- 6 -->
<g id="node8" class="node">
<title>6</title>
<polygon fill="#e552ff" stroke="#e552ff" points="538.88,-308 427.62,-308 427.62,-312 415.62,-312 415.62,-272 538.88,-272 538.88,-308"/>
<polyline fill="none" stroke="#e552ff" points="415.62,-308 427.62,-308"/>
<text text-anchor="middle" x="477.25" y="-284.2" font-family="DejaVu Sans Mono" font-size="14.00">socket.socket</text>
</g>
<!-- 2&#45;&gt;6 -->
<g id="edge5" class="edge">
<title>2&#45;&gt;6</title>
<path fill="none" stroke="black" stroke-dasharray="5,2" d="M588.43,-350.42C565.61,-338.23 540.39,-324.75 519.74,-313.71"/>
<polygon fill="black" stroke="black" points="521.5,-310.68 511.03,-309.06 518.2,-316.86 521.5,-310.68"/>
<text text-anchor="middle" x="584.88" y="-325.7" font-family="DejaVu Sans Mono" font-size="14.00">calls</text>
</g>
<!-- 7 -->
<g id="node9" class="node">
<title>7</title>
<polygon fill="#e552ff" stroke="#e552ff" points="745.88,-308 568.62,-308 568.62,-312 556.62,-312 556.62,-272 745.88,-272 745.88,-308"/>
<polyline fill="none" stroke="#e552ff" points="556.62,-308 568.62,-308"/>
<text text-anchor="middle" x="651.25" y="-284.2" font-family="DejaVu Sans Mono" font-size="14.00">client_socket.connect</text>
</g>
<!-- 2&#45;&gt;7 -->
<g id="edge6" class="edge">
<title>2&#45;&gt;7</title>
<path fill="none" stroke="black" stroke-dasharray="5,2" d="M651.25,-346.71C651.25,-337.64 651.25,-328.09 651.25,-319.5"/>
<polygon fill="black" stroke="black" points="654.75,-319.67 651.25,-309.67 647.75,-319.67 654.75,-319.67"/>
<text text-anchor="middle" x="671.88" y="-325.7" font-family="DejaVu Sans Mono" font-size="14.00">calls</text>
</g>
<!-- 8 -->
<g id="node10" class="node">
<title>8</title>
<polygon fill="#ffbe52" stroke="black" points="924.36,-290 884.31,-308 804.19,-308 764.14,-290 804.19,-272 884.31,-272 924.36,-290"/>
<text text-anchor="middle" x="844.25" y="-284.2" font-family="DejaVu Sans Mono" font-size="14.00">while True:</text>
</g>
<!-- 2&#45;&gt;8 -->
<g id="edge10" class="edge">
<title>2&#45;&gt;8</title>
<path fill="none" stroke="black" d="M720.65,-350.56C746.33,-338.18 774.8,-324.47 797.93,-313.32"/>
<polygon fill="black" stroke="black" points="799.3,-316.54 806.79,-309.05 796.26,-310.24 799.3,-316.54"/>
</g>
<!-- 4 -->
<g id="node3" class="node">
<title>4</title>
<polygon fill="#fffb81" stroke="black" points="1103.25,-233 889.25,-233 889.25,-197 1103.25,-197 1103.25,-233"/>
<text text-anchor="middle" x="996.25" y="-209.2" font-family="DejaVu Sans Mono" font-size="14.00">print(&#39;Blocker stopped&#39;)</text>
</g>
<!-- 5 -->
<g id="node4" class="node">
<title>5</title>
<polygon fill="#e552ff" stroke="#e552ff" points="1024.88,-158 979.62,-158 979.62,-162 967.62,-162 967.62,-122 1024.88,-122 1024.88,-158"/>
<polyline fill="none" stroke="#e552ff" points="967.62,-158 979.62,-158"/>
<text text-anchor="middle" x="996.25" y="-134.2" font-family="DejaVu Sans Mono" font-size="14.00">print</text>
</g>
<!-- 4&#45;&gt;5 -->
<g id="edge1" class="edge">
<title>4&#45;&gt;5</title>
<path fill="none" stroke="black" stroke-dasharray="5,2" d="M996.25,-196.7C996.25,-188.67 996.25,-178.9 996.25,-169.8"/>
<polygon fill="black" stroke="black" points="999.75,-169.94 996.25,-159.94 992.75,-169.94 999.75,-169.94"/>
<text text-anchor="middle" x="1016.88" y="-175.7" font-family="DejaVu Sans Mono" font-size="14.00">calls</text>
</g>
<!-- 3 -->
<g id="node5" class="node">
<title>3</title>
<polygon fill="#fffb81" stroke="black" points="946.88,-158 757.62,-158 757.62,-122 946.88,-122 946.88,-158"/>
<text text-anchor="middle" x="852.25" y="-134.2" font-family="DejaVu Sans Mono" font-size="14.00">client_socket.close()</text>
</g>
<!-- 4&#45;&gt;3 -->
<g id="edge4" class="edge">
<title>4&#45;&gt;3</title>
<path fill="none" stroke="black" d="M961.76,-196.51C942.26,-186.63 917.66,-174.16 896.72,-163.54"/>
<polygon fill="black" stroke="black" points="898.31,-160.43 887.81,-159.03 895.15,-166.67 898.31,-160.43"/>
</g>
<!-- 11 -->
<g id="node6" class="node">
<title>11</title>
<polygon fill="#e552ff" stroke="#e552ff" points="872.62,-75 711.88,-75 711.88,-79 699.88,-79 699.88,-39 872.62,-39 872.62,-75"/>
<polyline fill="none" stroke="#e552ff" points="699.88,-75 711.88,-75"/>
<text text-anchor="middle" x="786.25" y="-51.2" font-family="DejaVu Sans Mono" font-size="14.00">client_socket.close</text>
</g>
<!-- 3&#45;&gt;11 -->
<g id="edge2" class="edge">
<title>3&#45;&gt;11</title>
<path fill="none" stroke="black" stroke-dasharray="5,2" d="M838.25,-121.82C829.3,-110.84 817.52,-96.38 807.43,-84"/>
<polygon fill="black" stroke="black" points="810.44,-82.15 801.41,-76.61 805.01,-86.57 810.44,-82.15"/>
<text text-anchor="middle" x="844.88" y="-92.7" font-family="DejaVu Sans Mono" font-size="14.00">calls</text>
</g>
<!-- 12 -->
<g id="node7" class="node">
<title>12</title>
<polygon fill="#fffb81" stroke="black" points="944.25,-75 890.25,-75 890.25,-39 944.25,-39 944.25,-75"/>
</g>
<!-- 3&#45;&gt;12 -->
<g id="edge3" class="edge">
<title>3&#45;&gt;12</title>
<path fill="none" stroke="black" d="M866.03,-121.82C874.77,-110.94 886.23,-96.66 896.1,-84.36"/>
<polygon fill="black" stroke="black" points="898.78,-86.6 902.31,-76.61 893.33,-82.22 898.78,-86.6"/>
</g>
<!-- 8&#45;&gt;8 -->
<g id="edge9" class="edge">
<title>8&#45;&gt;8</title>
<path fill="none" stroke="green" d="M907.95,-297.77C927.26,-297.57 942.36,-294.98 942.36,-290 942.36,-286.03 932.78,-283.58 919.11,-282.65"/>
<polygon fill="green" stroke="green" points="919.58,-279.16 909.46,-282.29 919.32,-286.16 919.58,-279.16"/>
<text text-anchor="middle" x="958.86" y="-284.2" font-family="DejaVu Sans Mono" font-size="14.00">True</text>
</g>
<!-- 10 -->
<g id="node11" class="node">
<title>10</title>
<polygon fill="#fffb81" stroke="black" points="871.25,-233 817.25,-233 817.25,-197 871.25,-197 871.25,-233"/>
</g>
<!-- 8&#45;&gt;10 -->
<g id="edge8" class="edge">
<title>8&#45;&gt;10</title>
<path fill="none" stroke="red" d="M844.25,-271.7C844.25,-263.67 844.25,-253.9 844.25,-244.8"/>
<polygon fill="red" stroke="red" points="847.75,-244.94 844.25,-234.94 840.75,-244.94 847.75,-244.94"/>
<text text-anchor="middle" x="873.12" y="-242.7" font-family="DejaVu Sans Mono" font-size="14.00">(False)</text>
</g>
<!-- 10&#45;&gt;3 -->
<g id="edge7" class="edge">
<title>10&#45;&gt;3</title>
<path fill="none" stroke="black" d="M846.15,-196.7C847.03,-188.67 848.1,-178.9 849.09,-169.8"/>
<polygon fill="black" stroke="black" points="852.56,-170.26 850.18,-159.93 845.61,-169.49 852.56,-170.26"/>
</g>
<!-- input -->
<g id="node12" class="node">
<title>input</title>
<polygon fill="#afeeee" stroke="black" points="1681.81,-403 1595.02,-403 1572.69,-367 1659.48,-367 1681.81,-403"/>
<text text-anchor="middle" x="1627.25" y="-379.2" font-family="DejaVu Sans Mono" font-size="14.00">input</text>
</g>
<!-- call -->
<g id="node17" class="node">
<title>call</title>
<polygon fill="#e552ff" stroke="black" points="1654.25,-308 1612.25,-308 1612.25,-312 1600.25,-312 1600.25,-272 1654.25,-272 1654.25,-308"/>
<polyline fill="none" stroke="black" points="1600.25,-308 1612.25,-308"/>
<text text-anchor="middle" x="1627.25" y="-284.2" font-family="DejaVu Sans Mono" font-size="14.00">call</text>
</g>
<!-- input&#45;&gt;call -->
<!-- default -->
<g id="node13" class="node">
<title>default</title>
<polygon fill="#fffb81" stroke="black" points="1529.12,-308 1455.38,-308 1455.38,-272 1529.12,-272 1529.12,-308"/>
<text text-anchor="middle" x="1492.25" y="-284.2" font-family="DejaVu Sans Mono" font-size="14.00">default</text>
</g>
<!-- if -->
<g id="node14" class="node">
<title>if</title>
<polygon fill="#ff6752" stroke="black" points="1627.25,-499.5 1597.38,-481.5 1627.25,-463.5 1657.12,-481.5 1627.25,-499.5"/>
<text text-anchor="middle" x="1627.25" y="-475.7" font-family="DejaVu Sans Mono" font-size="14.00">if</text>
</g>
<!-- if&#45;&gt;input -->
<!-- for -->
<g id="node15" class="node">
<title>for</title>
<polygon fill="#ffbe52" stroke="black" points="1578.83,-481.5 1563.54,-499.5 1532.96,-499.5 1517.67,-481.5 1532.96,-463.5 1563.54,-463.5 1578.83,-481.5"/>
<text text-anchor="middle" x="1548.25" y="-475.7" font-family="DejaVu Sans Mono" font-size="14.00">for</text>
</g>
<!-- return -->
<g id="node18" class="node">
<title>return</title>
<polygon fill="#98fb98" stroke="black" points="1554.67,-403 1455.38,-403 1429.83,-367 1529.12,-367 1554.67,-403"/>
<text text-anchor="middle" x="1492.25" y="-379.2" font-family="DejaVu Sans Mono" font-size="14.00">return</text>
</g>
<!-- for&#45;&gt;return -->
<!-- while -->
<g id="node16" class="node">
<title>while</title>
<polygon fill="#ffbe52" stroke="black" points="1499.22,-481.5 1477.73,-499.5 1434.77,-499.5 1413.28,-481.5 1434.77,-463.5 1477.73,-463.5 1499.22,-481.5"/>
<text text-anchor="middle" x="1456.25" y="-475.7" font-family="DejaVu Sans Mono" font-size="14.00">while</text>
</g>
<!-- return&#45;&gt;default -->
<!-- try -->
<g id="node19" class="node">
<title>try</title>
<polygon fill="orange" stroke="black" points="1358.25,-499.5 1320.79,-481.5 1358.25,-463.5 1395.71,-481.5 1358.25,-499.5"/>
<polyline fill="none" stroke="black" points="1331.61,-486.7 1331.61,-476.3"/>
<polyline fill="none" stroke="black" points="1347.43,-468.7 1369.07,-468.7"/>
<polyline fill="none" stroke="black" points="1384.89,-476.3 1384.89,-486.7"/>
<polyline fill="none" stroke="black" points="1369.07,-494.3 1347.43,-494.3"/>
<text text-anchor="middle" x="1358.25" y="-475.7" font-family="DejaVu Sans Mono" font-size="14.00">try</text>
</g>
<!-- raise -->
<g id="node20" class="node">
<title>raise</title>
<polygon fill="#98fb98" stroke="black" points="1412.24,-390.56 1366.25,-403 1320.26,-390.56 1320.3,-370.44 1412.2,-370.44 1412.24,-390.56"/>
<text text-anchor="middle" x="1366.25" y="-379.2" font-family="DejaVu Sans Mono" font-size="14.00">raise</text>
</g>
<!-- try&#45;&gt;raise -->
</g>
</svg>
