<?xml version="1.0" encoding="UTF-8" standalone="no"?>
<!DOCTYPE svg PUBLIC "-//W3C//DTD SVG 1.1//EN"
 "http://www.w3.org/Graphics/SVG/1.1/DTD/svg11.dtd">
<!-- Generated by graphviz version 8.1.0 (20230707.0739)
 -->
<!-- Title: cluster0blocker.py Pages: 1 -->
<svg width="1732pt" height="575pt"
 viewBox="0.00 0.00 1732.25 574.62" xmlns="http://www.w3.org/2000/svg" xmlns:xlink="http://www.w3.org/1999/xlink">
<g id="graph0" class="graph" transform="scale(1 1) rotate(0) translate(4 570.62)">
<title>cluster0blocker.py</title>
<polygon fill="white" stroke="none" points="-4,4 -4,-570.62 1728.25,-570.62 1728.25,4 -4,4"/>
<text text-anchor="middle" x="862.12" y="-7.95" font-family="DejaVu Sans Mono" font-size="14.00">blocker.py</text>
<g id="clust1" class="cluster">
<title>cluster_4</title>
<polygon fill="purple" stroke="purple" points="965.25,-118.5 965.25,-170.5 1039.25,-170.5 1039.25,-118.5 965.25,-118.5"/>
</g>
<g id="clust2" class="cluster">
<title>cluster_3</title>
<polygon fill="purple" stroke="purple" points="698.25,-33.25 698.25,-85.25 886.25,-85.25 886.25,-33.25 698.25,-33.25"/>
</g>
<g id="clust3" class="cluster">
<title>cluster_2</title>
<polygon fill="purple" stroke="purple" points="407.25,-273 407.25,-325 754.25,-325 754.25,-273 407.25,-273"/>
</g>
<g id="clust4" class="cluster">
<title>cluster_KEY</title>
<polygon fill="none" stroke="black" points="1312.25,-273 1312.25,-558.62 1716.25,-558.62 1716.25,-273 1312.25,-273"/>
<text text-anchor="middle" x="1514.25" y="-541.33" font-family="DejaVu Sans Mono" font-size="14.00">KEY</text>
</g>
<!-- 1 -->
<g id="node1" class="node">
<title>1</title>
<polygon fill="#fffb81" stroke="black" points="844.88,-554.5 457.62,-554.5 457.62,-460.25 844.88,-460.25 844.88,-554.5"/>
<text text-anchor="start" x="465.62" y="-537.2" font-family="DejaVu Sans Mono" font-size="14.00">&quot;&quot;&quot;</text>
<text text-anchor="start" x="465.62" y="-519.95" font-family="DejaVu Sans Mono" font-size="14.00">Blocks connections between client and server.</text>
<text text-anchor="start" x="465.62" y="-502.7" font-family="DejaVu Sans Mono" font-size="14.00">&quot;&quot;&quot;</text>
<text text-anchor="start" x="465.62" y="-485.45" font-family="DejaVu Sans Mono" font-size="14.00">import socket</text>
<text text-anchor="middle" x="651.25" y="-468.2" font-family="DejaVu Sans Mono" font-size="14.00">server_port = 6789</text>
</g>
<!-- 2 -->
<g id="node2" class="node">
<title>2</title>
<polygon fill="orange" stroke="black" points="651.25,-443.25 0,-400.75 651.25,-358.25 1302.5,-400.75 651.25,-443.25"/>
<polyline fill="none" stroke="black" points="11.97,-401.53 11.97,-399.97"/>
<polyline fill="none" stroke="black" points="639.28,-359.03 663.22,-359.03"/>
<polyline fill="none" stroke="black" points="1290.53,-399.97 1290.53,-401.53"/>
<polyline fill="none" stroke="black" points="663.22,-442.47 639.28,-442.47"/>
<text text-anchor="middle" x="651.25" y="-404.7" font-family="DejaVu Sans Mono" font-size="14.00">client_socket = socket.socket(family=socket.AF_INET, type=socket.SOCK_STREAM)</text>
<text text-anchor="middle" x="651.25" y="-387.45" font-family="DejaVu Sans Mono" font-size="14.00">client_socket.connect((&#39;&#39;, server_port))</text>
</g>
<!-- 1&#45;&gt;2 -->
<g id="edge11" class="edge">
<title>1&#45;&gt;2</title>
<path fill="none" stroke="black" d="M651.25,-459.88C651.25,-458.08 651.25,-456.28 651.25,-454.48"/>
<polygon fill="black" stroke="black" points="654.75,-454.49 651.25,-444.49 647.75,-454.49 654.75,-454.49"/>
</g>
<!-- 6 -->
<g id="node8" class="node">
<title>6</title>
<polygon fill="#e552ff" stroke="#e552ff" points="538.88,-317 427.62,-317 427.62,-321 415.62,-321 415.62,-281 538.88,-281 538.88,-317"/>
<polyline fill="none" stroke="#e552ff" points="415.62,-317 427.62,-317"/>
<text text-anchor="middle" x="477.25" y="-294.32" font-family="DejaVu Sans Mono" font-size="14.00">socket.socket</text>
</g>
<!-- 2&#45;&gt;6 -->
<g id="edge5" class="edge">
<title>2&#45;&gt;6</title>
<path fill="none" stroke="black" stroke-dasharray="5,2" d="M585.96,-362.32C562.65,-348.96 537.12,-334.32 516.66,-322.59"/>
<polygon fill="black" stroke="black" points="518.77,-319.19 508.35,-317.26 515.29,-325.27 518.77,-319.19"/>
<text text-anchor="middle" x="584.88" y="-336.95" font-family="DejaVu Sans Mono" font-size="14.00">calls</text>
</g>
<!-- 7 -->
<g id="node9" class="node">
<title>7</title>
<polygon fill="#e552ff" stroke="#e552ff" points="745.88,-317 568.62,-317 568.62,-321 556.62,-321 556.62,-281 745.88,-281 745.88,-317"/>
<polyline fill="none" stroke="#e552ff" points="556.62,-317 568.62,-317"/>
<text text-anchor="middle" x="651.25" y="-294.32" font-family="DejaVu Sans Mono" font-size="14.00">client_socket.connect</text>
</g>
<!-- 2&#45;&gt;7 -->
<g id="edge6" class="edge">
<title>2&#45;&gt;7</title>
<path fill="none" stroke="black" stroke-dasharray="5,2" d="M651.25,-358.02C651.25,-348.04 651.25,-337.61 651.25,-328.39"/>
<polygon fill="black" stroke="black" points="654.75,-328.48 651.25,-318.48 647.75,-328.48 654.75,-328.48"/>
<text text-anchor="middle" x="671.88" y="-336.95" font-family="DejaVu Sans Mono" font-size="14.00">calls</text>
</g>
<!-- 8 -->
<g id="node10" class="node">
<title>8</title>
<polygon fill="#ffbe52" stroke="black" points="936.72,-299 893.48,-317 807.02,-317 763.78,-299 807.02,-281 893.48,-281 936.72,-299"/>
<text text-anchor="middle" x="850.25" y="-294.32" font-family="DejaVu Sans Mono" font-size="14.00">while True:</text>
</g>
<!-- 2&#45;&gt;8 -->
<g id="edge10" class="edge">
<title>2&#45;&gt;8</title>
<path fill="none" stroke="black" d="M725.35,-362.61C752.33,-349.08 781.97,-334.22 805.61,-322.38"/>
<polygon fill="black" stroke="black" points="806.98,-325.1 814.35,-317.49 803.84,-318.85 806.98,-325.1"/>
</g>
<!-- 4 -->
<g id="node3" class="node">
<title>4</title>
<polygon fill="#fffb81" stroke="black" points="1109.25,-239.75 895.25,-239.75 895.25,-203.75 1109.25,-203.75 1109.25,-239.75"/>
<text text-anchor="middle" x="1002.25" y="-217.07" font-family="DejaVu Sans Mono" font-size="14.00">print(&#39;Blocker stopped&#39;)</text>
</g>
<!-- 5 -->
<g id="node4" class="node">
<title>5</title>
<polygon fill="#e552ff" stroke="#e552ff" points="1030.88,-162.5 985.62,-162.5 985.62,-166.5 973.62,-166.5 973.62,-126.5 1030.88,-126.5 1030.88,-162.5"/>
<polyline fill="none" stroke="#e552ff" points="973.62,-162.5 985.62,-162.5"/>
<text text-anchor="middle" x="1002.25" y="-139.82" font-family="DejaVu Sans Mono" font-size="14.00">print</text>
</g>
<!-- 4&#45;&gt;5 -->
<g id="edge1" class="edge">
<title>4&#45;&gt;5</title>
<path fill="none" stroke="black" stroke-dasharray="5,2" d="M1002.25,-203.3C1002.25,-194.46 1002.25,-183.53 1002.25,-173.55"/>
<polygon fill="black" stroke="black" points="1005.75,-173.86 1002.25,-163.86 998.75,-173.86 1005.75,-173.86"/>
<text text-anchor="middle" x="1022.88" y="-182.45" font-family="DejaVu Sans Mono" font-size="14.00">calls</text>
</g>
<!-- 3 -->
<g id="node5" class="node">
<title>3</title>
<polygon fill="#fffb81" stroke="black" points="952.88,-162.5 763.62,-162.5 763.62,-126.5 952.88,-126.5 952.88,-162.5"/>
<text text-anchor="middle" x="858.25" y="-139.82" font-family="DejaVu Sans Mono" font-size="14.00">client_socket.close()</text>
</g>
<!-- 4&#45;&gt;3 -->
<g id="edge4" class="edge">
<title>4&#45;&gt;3</title>
<path fill="none" stroke="black" d="M968.85,-203.3C948.75,-192.79 922.95,-179.31 901.32,-168.01"/>
<polygon fill="black" stroke="black" points="903.2,-164.52 892.72,-162.99 899.96,-170.72 903.2,-164.52"/>
</g>
<!-- 11 -->
<g id="node6" class="node">
<title>11</title>
<polygon fill="#e552ff" stroke="#e552ff" points="878.62,-77.25 717.88,-77.25 717.88,-81.25 705.88,-81.25 705.88,-41.25 878.62,-41.25 878.62,-77.25"/>
<polyline fill="none" stroke="#e552ff" points="705.88,-77.25 717.88,-77.25"/>
<text text-anchor="middle" x="792.25" y="-54.58" font-family="DejaVu Sans Mono" font-size="14.00">client_socket.close</text>
</g>
<!-- 3&#45;&gt;11 -->
<g id="edge2" class="edge">
<title>3&#45;&gt;11</title>
<path fill="none" stroke="black" stroke-dasharray="5,2" d="M844.57,-126.25C835.37,-114.64 823.07,-99.13 812.71,-86.06"/>
<polygon fill="black" stroke="black" points="814.86,-84.14 805.91,-78.48 809.38,-88.49 814.86,-84.14"/>
<text text-anchor="middle" x="850.88" y="-97.2" font-family="DejaVu Sans Mono" font-size="14.00">calls</text>
</g>
<!-- 12 -->
<g id="node7" class="node">
<title>12</title>
<polygon fill="#fffb81" stroke="black" points="950.25,-77.25 896.25,-77.25 896.25,-41.25 950.25,-41.25 950.25,-77.25"/>
</g>
<!-- 3&#45;&gt;12 -->
<g id="edge3" class="edge">
<title>3&#45;&gt;12</title>
<path fill="none" stroke="black" d="M871.72,-126.25C880.78,-114.64 892.9,-99.13 903.1,-86.06"/>
<polygon fill="black" stroke="black" points="906.4,-88.51 909.8,-78.48 900.89,-84.21 906.4,-88.51"/>
</g>
<!-- 8&#45;&gt;8 -->
<g id="edge9" class="edge">
<title>8&#45;&gt;8</title>
<path fill="none" stroke="green" d="M918.57,-306.97C938.9,-306.74 954.72,-304.08 954.72,-299 954.72,-294.87 944.28,-292.35 929.46,-291.41"/>
<polygon fill="green" stroke="green" points="929.69,-287.89 919.57,-291.03 929.44,-294.88 929.69,-287.89"/>
<text text-anchor="middle" x="971.22" y="-294.32" font-family="DejaVu Sans Mono" font-size="14.00">True</text>
</g>
<!-- 10 -->
<g id="node11" class="node">
<title>10</title>
<polygon fill="#fffb81" stroke="black" points="877.25,-239.75 823.25,-239.75 823.25,-203.75 877.25,-203.75 877.25,-239.75"/>
</g>
<!-- 8&#45;&gt;10 -->
<g id="edge8" class="edge">
<title>8&#45;&gt;10</title>
<path fill="none" stroke="red" d="M850.25,-280.55C850.25,-271.71 850.25,-260.78 850.25,-250.8"/>
<polygon fill="red" stroke="red" points="853.75,-251.11 850.25,-241.11 846.75,-251.11 853.75,-251.11"/>
<text text-anchor="middle" x="879.12" y="-251.7" font-family="DejaVu Sans Mono" font-size="14.00">(False)</text>
</g>
<!-- 10&#45;&gt;3 -->
<g id="edge7" class="edge">
<title>10&#45;&gt;3</title>
<path fill="none" stroke="black" d="M852.11,-203.3C853.04,-194.46 854.21,-183.53 855.27,-173.55"/>
<polygon fill="black" stroke="black" points="858.83,-174.17 856.4,-163.86 851.87,-173.43 858.83,-174.17"/>
</g>
<!-- input -->
<g id="node12" class="node">
<title>input</title>
<polygon fill="#afeeee" stroke="black" points="1708.13,-418.75 1614.46,-418.75 1590.37,-382.75 1684.04,-382.75 1708.13,-418.75"/>
<text text-anchor="middle" x="1649.25" y="-396.07" font-family="DejaVu Sans Mono" font-size="14.00">input</text>
</g>
<!-- call -->
<g id="node17" class="node">
<title>call</title>
<polygon fill="#e552ff" stroke="black" points="1676.25,-317 1634.25,-317 1634.25,-321 1622.25,-321 1622.25,-281 1676.25,-281 1676.25,-317"/>
<polyline fill="none" stroke="black" points="1622.25,-317 1634.25,-317"/>
<text text-anchor="middle" x="1649.25" y="-294.32" font-family="DejaVu Sans Mono" font-size="14.00">call</text>
</g>
<!-- input&#45;&gt;call -->
<!-- default -->
<g id="node13" class="node">
<title>default</title>
<polygon fill="#fffb81" stroke="black" points="1542.12,-317 1468.38,-317 1468.38,-281 1542.12,-281 1542.12,-317"/>
<text text-anchor="middle" x="1505.25" y="-294.32" font-family="DejaVu Sans Mono" font-size="14.00">default</text>
</g>
<!-- if -->
<g id="node14" class="node">
<title>if</title>
<polygon fill="#ff6752" stroke="black" points="1649.25,-525.38 1617.01,-507.38 1649.25,-489.38 1681.49,-507.38 1649.25,-525.38"/>
<text text-anchor="middle" x="1649.25" y="-502.7" font-family="DejaVu Sans Mono" font-size="14.00">if</text>
</g>
<!-- if&#45;&gt;input -->
<!-- for -->
<g id="node15" class="node">
<title>for</title>
<polygon fill="#ffbe52" stroke="black" points="1597.26,-507.38 1580.75,-525.38 1547.75,-525.38 1531.24,-507.38 1547.75,-489.38 1580.75,-489.38 1597.26,-507.38"/>
<text text-anchor="middle" x="1564.25" y="-502.7" font-family="DejaVu Sans Mono" font-size="14.00">for</text>
</g>
<!-- return -->
<g id="node18" class="node">
<title>return</title>
<polygon fill="#98fb98" stroke="black" points="1572.62,-418.75 1465.45,-418.75 1437.88,-382.75 1545.05,-382.75 1572.62,-418.75"/>
<text text-anchor="middle" x="1505.25" y="-396.07" font-family="DejaVu Sans Mono" font-size="14.00">return</text>
</g>
<!-- for&#45;&gt;return -->
<!-- while -->
<g id="node16" class="node">
<title>while</title>
<polygon fill="#ffbe52" stroke="black" points="1513.62,-507.38 1490.44,-525.38 1444.06,-525.38 1420.88,-507.38 1444.06,-489.38 1490.44,-489.38 1513.62,-507.38"/>
<text text-anchor="middle" x="1467.25" y="-502.7" font-family="DejaVu Sans Mono" font-size="14.00">while</text>
</g>
<!-- return&#45;&gt;default -->
<!-- try -->
<g id="node19" class="node">
<title>try</title>
<polygon fill="orange" stroke="black" points="1362.25,-525.38 1321.82,-507.38 1362.25,-489.38 1402.68,-507.38 1362.25,-525.38"/>
<polyline fill="none" stroke="black" points="1332.79,-512.26 1332.79,-502.49"/>
<polyline fill="none" stroke="black" points="1351.29,-494.26 1373.21,-494.26"/>
<polyline fill="none" stroke="black" points="1391.71,-502.49 1391.71,-512.26"/>
<polyline fill="none" stroke="black" points="1373.21,-520.49 1351.29,-520.49"/>
<text text-anchor="middle" x="1362.25" y="-502.7" font-family="DejaVu Sans Mono" font-size="14.00">try</text>
</g>
<!-- raise -->
<g id="node20" class="node">
<title>raise</title>
<polygon fill="#98fb98" stroke="black" points="1419.89,-406.31 1370.25,-418.75 1320.61,-406.31 1320.66,-386.19 1419.84,-386.19 1419.89,-406.31"/>
<text text-anchor="middle" x="1370.25" y="-396.07" font-family="DejaVu Sans Mono" font-size="14.00">raise</text>
</g>
<!-- try&#45;&gt;raise -->
</g>
</svg>
