<?xml version="1.0" encoding="UTF-8" standalone="no"?>
<!DOCTYPE svg PUBLIC "-//W3C//DTD SVG 1.1//EN"
 "http://www.w3.org/Graphics/SVG/1.1/DTD/svg11.dtd">
<!-- Generated by graphviz version 7.1.0 (0)
 -->
<!-- Title: cluster0client_browser.py Pages: 1 -->
<svg width="1464pt" height="569pt"
 viewBox="0.00 0.00 1463.79 569.00" xmlns="http://www.w3.org/2000/svg" xmlns:xlink="http://www.w3.org/1999/xlink">
<g id="graph0" class="graph" transform="scale(1 1) rotate(0) translate(4 565)">
<title>cluster0client_browser.py</title>
<polygon fill="white" stroke="none" points="-4,4 -4,-565 1459.79,-565 1459.79,4 -4,4"/>
<text text-anchor="middle" x="727.9" y="-7.8" font-family="DejaVu Sans Mono" font-size="14.00">client_browser.py</text>
<g id="clust1" class="cluster">
<title>cluster_2</title>
<polygon fill="purple" stroke="purple" points="188.29,-258 188.29,-310 258.29,-310 258.29,-258 188.29,-258"/>
</g>
<g id="clust2" class="cluster">
<title>cluster_9</title>
<polygon fill="purple" stroke="purple" points="1299.29,-114 1299.29,-166 1373.29,-166 1373.29,-114 1299.29,-114"/>
</g>
<g id="clust3" class="cluster">
<title>cluster_8</title>
<polygon fill="purple" stroke="purple" points="889.29,-31 889.29,-83 1079.29,-83 1079.29,-31 889.29,-31"/>
</g>
<g id="clust4" class="cluster">
<title>cluster_7</title>
<polygon fill="purple" stroke="purple" points="529.29,-114 529.29,-166 669.29,-166 669.29,-114 529.29,-114"/>
</g>
<g id="clust5" class="cluster">
<title>cluster_KEY</title>
<polygon fill="none" stroke="black" points="830.29,-258 830.29,-530.5 1211.29,-530.5 1211.29,-258 830.29,-258"/>
<text text-anchor="middle" x="1020.79" y="-515.3" font-family="DejaVu Sans Mono" font-size="14.00">KEY</text>
</g>
<!-- 1 -->
<g id="node1" class="node">
<title>1</title>
<polygon fill="#fffb81" stroke="black" points="743.29,-561 141.29,-561 141.29,-402 743.29,-402 743.29,-561"/>
<text text-anchor="start" x="149.29" y="-545.8" font-family="DejaVu Sans Mono" font-size="14.00">&quot;&quot;&quot;</text>
<text text-anchor="start" x="149.29" y="-530.8" font-family="DejaVu Sans Mono" font-size="14.00">Run with the following command line parameters:</text>
<text text-anchor="start" x="149.29" y="-515.8" font-family="DejaVu Sans Mono" font-size="14.00">python3 client_browser.py &lt;hostname&gt; &lt;port&gt; &lt;file&gt;</text>
<text text-anchor="start" x="149.29" y="-484.8" font-family="DejaVu Sans Mono" font-size="14.00">Examples:</text>
<text text-anchor="start" x="149.29" y="-469.8" font-family="DejaVu Sans Mono" font-size="14.00">$ python3 client_browser.py info.cern.ch 80 &quot;&quot; # defaults to index.html</text>
<text text-anchor="start" x="149.29" y="-454.8" font-family="DejaVu Sans Mono" font-size="14.00">$ python3 client_browser.py localhost 6789 &quot;hello_world.html&quot;</text>
<text text-anchor="start" x="149.29" y="-439.8" font-family="DejaVu Sans Mono" font-size="14.00">&quot;&quot;&quot;</text>
<text text-anchor="start" x="149.29" y="-424.8" font-family="DejaVu Sans Mono" font-size="14.00">import sys</text>
<text text-anchor="middle" x="442.29" y="-409.8" font-family="DejaVu Sans Mono" font-size="14.00">import socket</text>
</g>
<!-- 2 -->
<g id="node2" class="node">
<title>2</title>
<polygon fill="#ff6752" stroke="black" points="442.29,-385 260.3,-367 442.29,-349 624.28,-367 442.29,-385"/>
<text text-anchor="middle" x="442.29" y="-363.3" font-family="DejaVu Sans Mono" font-size="14.00">if len(sys.argv) != 4:</text>
</g>
<!-- 1&#45;&gt;2 -->
<g id="edge10" class="edge">
<title>1&#45;&gt;2</title>
<path fill="none" stroke="black" d="M442.29,-401.75C442.29,-399.96 442.29,-398.19 442.29,-396.48"/>
<polygon fill="black" stroke="black" points="445.79,-396.7 442.29,-386.7 438.79,-396.7 445.79,-396.7"/>
</g>
<!-- 3 -->
<g id="node3" class="node">
<title>3</title>
<polygon fill="#e552ff" stroke="#e552ff" points="250.29,-302 208.29,-302 208.29,-306 196.29,-306 196.29,-266 250.29,-266 250.29,-302"/>
<polyline fill="none" stroke="#e552ff" points="196.29,-302 208.29,-302"/>
<text text-anchor="middle" x="223.29" y="-280.3" font-family="DejaVu Sans Mono" font-size="14.00">len</text>
</g>
<!-- 2&#45;&gt;3 -->
<g id="edge1" class="edge">
<title>2&#45;&gt;3</title>
<path fill="none" stroke="black" stroke-dasharray="5,2" d="M371.08,-355.64C335.91,-348.5 293.75,-336.79 259.29,-318 255.1,-315.72 251.02,-312.84 247.19,-309.75"/>
<polygon fill="black" stroke="black" points="249.74,-307.33 239.94,-303.31 245.09,-312.57 249.74,-307.33"/>
<text text-anchor="middle" x="333.29" y="-329.8" font-family="DejaVu Sans Mono" font-size="14.00">calls</text>
</g>
<!-- 4 -->
<g id="node4" class="node">
<title>4</title>
<polygon fill="#fffb81" stroke="black" points="615.79,-318 268.79,-318 268.79,-250 615.79,-250 615.79,-318"/>
<text text-anchor="start" x="276.79" y="-302.8" font-family="DejaVu Sans Mono" font-size="14.00">server_hostname = &#39;localhost&#39;</text>
<text text-anchor="start" x="276.79" y="-287.8" font-family="DejaVu Sans Mono" font-size="14.00">server_ip = &#39;127.0.0.1&#39;</text>
<text text-anchor="start" x="276.79" y="-272.8" font-family="DejaVu Sans Mono" font-size="14.00">server_port = 6789</text>
<text text-anchor="middle" x="442.29" y="-257.8" font-family="DejaVu Sans Mono" font-size="14.00">file_name = &#39;web_files/hello_world.html&#39;</text>
</g>
<!-- 2&#45;&gt;4 -->
<g id="edge8" class="edge">
<title>2&#45;&gt;4</title>
<path fill="none" stroke="green" d="M442.29,-348.82C442.29,-343.11 442.29,-336.46 442.29,-329.65"/>
<polygon fill="green" stroke="green" points="445.79,-329.69 442.29,-319.69 438.79,-329.69 445.79,-329.69"/>
<text text-anchor="middle" x="516.79" y="-329.8" font-family="DejaVu Sans Mono" font-size="14.00">len(sys.argv) != 4</text>
</g>
<!-- 7 -->
<g id="node5" class="node">
<title>7</title>
<polygon fill="orange" stroke="black" points="599.29,-233 0.21,-215 599.29,-197 1198.37,-215 599.29,-233"/>
<polyline fill="none" stroke="black" points="12.2,-215.36 12.2,-214.64"/>
<polyline fill="none" stroke="black" points="587.3,-197.36 611.29,-197.36"/>
<polyline fill="none" stroke="black" points="1186.38,-214.64 1186.38,-215.36"/>
<polyline fill="none" stroke="black" points="611.29,-232.64 587.3,-232.64"/>
<text text-anchor="middle" x="599.29" y="-211.3" font-family="DejaVu Sans Mono" font-size="14.00">client_socket = socket.socket(family=socket.AF_INET, type=socket.SOCK_STREAM)</text>
</g>
<!-- 2&#45;&gt;7 -->
<g id="edge9" class="edge">
<title>2&#45;&gt;7</title>
<path fill="none" stroke="red" d="M537.01,-357.97C556.79,-354.25 577.13,-348.85 595.29,-341 610.71,-334.33 617.86,-333.07 625.29,-318 638.66,-290.9 634.98,-278.63 625.29,-250 624.37,-247.29 623.14,-244.63 621.72,-242.06"/>
<polygon fill="red" stroke="red" points="624.78,-240.34 616.32,-233.97 618.96,-244.23 624.78,-240.34"/>
<text text-anchor="middle" x="716.29" y="-280.3" font-family="DejaVu Sans Mono" font-size="14.00">(len(sys.argv) == 4)</text>
</g>
<!-- 4&#45;&gt;7 -->
<g id="edge7" class="edge">
<title>4&#45;&gt;7</title>
<path fill="none" stroke="black" d="M520.79,-249.5C531.04,-245.13 541.29,-240.75 550.84,-236.68"/>
<polygon fill="black" stroke="black" points="552.07,-239.96 559.89,-232.81 549.32,-233.52 552.07,-239.96"/>
</g>
<!-- 8 -->
<g id="node8" class="node">
<title>8</title>
<polygon fill="#fffb81" stroke="black" points="1079.29,-158 889.29,-158 889.29,-122 1079.29,-122 1079.29,-158"/>
<text text-anchor="middle" x="984.29" y="-136.3" font-family="DejaVu Sans Mono" font-size="14.00">client_socket.close()</text>
</g>
<!-- 7&#45;&gt;8 -->
<g id="edge6" class="edge">
<title>7&#45;&gt;8</title>
<path fill="none" stroke="black" d="M678.6,-198.96C737.16,-187.86 817.39,-172.65 880.97,-160.59"/>
<polygon fill="black" stroke="black" points="881.57,-164.04 890.74,-158.74 880.26,-157.16 881.57,-164.04"/>
</g>
<!-- 11 -->
<g id="node10" class="node">
<title>11</title>
<polygon fill="#e552ff" stroke="#e552ff" points="661.29,-158 549.29,-158 549.29,-162 537.29,-162 537.29,-122 661.29,-122 661.29,-158"/>
<polyline fill="none" stroke="#e552ff" points="537.29,-158 549.29,-158"/>
<text text-anchor="middle" x="599.29" y="-136.3" font-family="DejaVu Sans Mono" font-size="14.00">socket.socket</text>
</g>
<!-- 7&#45;&gt;11 -->
<g id="edge5" class="edge">
<title>7&#45;&gt;11</title>
<path fill="none" stroke="black" stroke-dasharray="5,2" d="M599.29,-196.7C599.29,-188.67 599.29,-178.9 599.29,-169.8"/>
<polygon fill="black" stroke="black" points="602.79,-169.94 599.29,-159.94 595.79,-169.94 602.79,-169.94"/>
<text text-anchor="middle" x="620.29" y="-177.8" font-family="DejaVu Sans Mono" font-size="14.00">calls</text>
</g>
<!-- 9 -->
<g id="node6" class="node">
<title>9</title>
<polygon fill="#fffb81" stroke="black" points="1455.79,-233 1216.79,-233 1216.79,-197 1455.79,-197 1455.79,-233"/>
<text text-anchor="middle" x="1336.29" y="-211.3" font-family="DejaVu Sans Mono" font-size="14.00">print(&#39;Exception was: &#39;, e)</text>
</g>
<!-- 10 -->
<g id="node7" class="node">
<title>10</title>
<polygon fill="#e552ff" stroke="#e552ff" points="1365.29,-158 1319.29,-158 1319.29,-162 1307.29,-162 1307.29,-122 1365.29,-122 1365.29,-158"/>
<polyline fill="none" stroke="#e552ff" points="1307.29,-158 1319.29,-158"/>
<text text-anchor="middle" x="1336.29" y="-136.3" font-family="DejaVu Sans Mono" font-size="14.00">print</text>
</g>
<!-- 9&#45;&gt;10 -->
<g id="edge2" class="edge">
<title>9&#45;&gt;10</title>
<path fill="none" stroke="black" stroke-dasharray="5,2" d="M1336.29,-196.7C1336.29,-188.67 1336.29,-178.9 1336.29,-169.8"/>
<polygon fill="black" stroke="black" points="1339.79,-169.94 1336.29,-159.94 1332.79,-169.94 1339.79,-169.94"/>
<text text-anchor="middle" x="1357.29" y="-177.8" font-family="DejaVu Sans Mono" font-size="14.00">calls</text>
</g>
<!-- 9&#45;&gt;8 -->
<g id="edge4" class="edge">
<title>9&#45;&gt;8</title>
<path fill="none" stroke="black" d="M1251.98,-196.51C1200.14,-185.76 1133.58,-171.96 1079.8,-160.81"/>
<polygon fill="black" stroke="black" points="1080.51,-157.38 1070.01,-158.78 1079.09,-164.23 1080.51,-157.38"/>
</g>
<!-- 12 -->
<g id="node9" class="node">
<title>12</title>
<polygon fill="#e552ff" stroke="#e552ff" points="1070.79,-75 909.79,-75 909.79,-79 897.79,-79 897.79,-39 1070.79,-39 1070.79,-75"/>
<polyline fill="none" stroke="#e552ff" points="897.79,-75 909.79,-75"/>
<text text-anchor="middle" x="984.29" y="-53.3" font-family="DejaVu Sans Mono" font-size="14.00">client_socket.close</text>
</g>
<!-- 8&#45;&gt;12 -->
<g id="edge3" class="edge">
<title>8&#45;&gt;12</title>
<path fill="none" stroke="black" stroke-dasharray="5,2" d="M984.29,-121.82C984.29,-111.69 984.29,-98.6 984.29,-86.92"/>
<polygon fill="black" stroke="black" points="987.79,-86.95 984.29,-76.95 980.79,-86.95 987.79,-86.95"/>
<text text-anchor="middle" x="1005.29" y="-94.8" font-family="DejaVu Sans Mono" font-size="14.00">calls</text>
</g>
<!-- input -->
<g id="node11" class="node">
<title>input</title>
<polygon fill="#afeeee" stroke="black" points="1203.33,-385 1115.77,-385 1093.25,-349 1180.81,-349 1203.33,-385"/>
<text text-anchor="middle" x="1148.29" y="-363.3" font-family="DejaVu Sans Mono" font-size="14.00">input</text>
</g>
<!-- call -->
<g id="node16" class="node">
<title>call</title>
<polygon fill="#e552ff" stroke="black" points="1175.29,-302 1133.29,-302 1133.29,-306 1121.29,-306 1121.29,-266 1175.29,-266 1175.29,-302"/>
<polyline fill="none" stroke="black" points="1121.29,-302 1133.29,-302"/>
<text text-anchor="middle" x="1148.29" y="-280.3" font-family="DejaVu Sans Mono" font-size="14.00">call</text>
</g>
<!-- input&#45;&gt;call -->
<!-- default -->
<g id="node12" class="node">
<title>default</title>
<polygon fill="#fffb81" stroke="black" points="1049.29,-302 975.29,-302 975.29,-266 1049.29,-266 1049.29,-302"/>
<text text-anchor="middle" x="1012.29" y="-280.3" font-family="DejaVu Sans Mono" font-size="14.00">default</text>
</g>
<!-- if -->
<g id="node13" class="node">
<title>if</title>
<polygon fill="#ff6752" stroke="black" points="1148.29,-499.5 1118.13,-481.5 1148.29,-463.5 1178.46,-481.5 1148.29,-499.5"/>
<text text-anchor="middle" x="1148.29" y="-477.8" font-family="DejaVu Sans Mono" font-size="14.00">if</text>
</g>
<!-- if&#45;&gt;input -->
<!-- for -->
<g id="node14" class="node">
<title>for</title>
<polygon fill="#ffbe52" stroke="black" points="1098.83,-481.5 1083.56,-499.5 1053.02,-499.5 1037.75,-481.5 1053.02,-463.5 1083.56,-463.5 1098.83,-481.5"/>
<text text-anchor="middle" x="1068.29" y="-477.8" font-family="DejaVu Sans Mono" font-size="14.00">for</text>
</g>
<!-- return -->
<g id="node17" class="node">
<title>return</title>
<polygon fill="#98fb98" stroke="black" points="1075.08,-385 975.2,-385 949.5,-349 1049.38,-349 1075.08,-385"/>
<text text-anchor="middle" x="1012.29" y="-363.3" font-family="DejaVu Sans Mono" font-size="14.00">return</text>
</g>
<!-- for&#45;&gt;return -->
<!-- while -->
<g id="node15" class="node">
<title>while</title>
<polygon fill="#ffbe52" stroke="black" points="1019.85,-481.5 998.07,-499.5 954.51,-499.5 932.73,-481.5 954.51,-463.5 998.07,-463.5 1019.85,-481.5"/>
<text text-anchor="middle" x="976.29" y="-477.8" font-family="DejaVu Sans Mono" font-size="14.00">while</text>
</g>
<!-- return&#45;&gt;default -->
<!-- try -->
<g id="node18" class="node">
<title>try</title>
<polygon fill="orange" stroke="black" points="877.29,-499.5 839.42,-481.5 877.29,-463.5 915.16,-481.5 877.29,-499.5"/>
<polyline fill="none" stroke="black" points="850.26,-486.65 850.26,-476.35"/>
<polyline fill="none" stroke="black" points="866.45,-468.65 888.13,-468.65"/>
<polyline fill="none" stroke="black" points="904.32,-476.35 904.32,-486.65"/>
<polyline fill="none" stroke="black" points="888.13,-494.35 866.45,-494.35"/>
<text text-anchor="middle" x="877.29" y="-477.8" font-family="DejaVu Sans Mono" font-size="14.00">try</text>
</g>
<!-- raise -->
<g id="node19" class="node">
<title>raise</title>
<polygon fill="#98fb98" stroke="black" points="931.98,-372.56 885.29,-385 838.6,-372.56 838.64,-352.44 931.94,-352.44 931.98,-372.56"/>
<text text-anchor="middle" x="885.29" y="-363.3" font-family="DejaVu Sans Mono" font-size="14.00">raise</text>
</g>
<!-- try&#45;&gt;raise -->
</g>
</svg>
