<?xml version="1.0" encoding="UTF-8" standalone="no"?>
<!DOCTYPE svg PUBLIC "-//W3C//DTD SVG 1.1//EN"
 "http://www.w3.org/Graphics/SVG/1.1/DTD/svg11.dtd">
<!-- Generated by graphviz version 9.0.0 (20230911.1827)
 -->
<!-- Title: cluster0client_browser.py Pages: 1 -->
<svg width="1462pt" height="569pt"
 viewBox="0.00 0.00 1461.98 569.00" xmlns="http://www.w3.org/2000/svg" xmlns:xlink="http://www.w3.org/1999/xlink">
<g id="graph0" class="graph" transform="scale(1 1) rotate(0) translate(4 565)">
<title>cluster0client_browser.py</title>
<polygon fill="white" stroke="none" points="-4,4 -4,-565 1457.98,-565 1457.98,4 -4,4"/>
<text text-anchor="middle" x="726.99" y="-5.7" font-family="DejaVu Sans Mono" font-size="14.00">client_browser.py</text>
<g id="clust1" class="cluster">
<title>cluster_2</title>
<polygon fill="purple" stroke="purple" points="203.6,-258 203.6,-310 273.6,-310 273.6,-258 203.6,-258"/>
</g>
<g id="clust2" class="cluster">
<title>cluster_9</title>
<polygon fill="purple" stroke="purple" points="1297.6,-114 1297.6,-166 1371.6,-166 1371.6,-114 1297.6,-114"/>
</g>
<g id="clust3" class="cluster">
<title>cluster_8</title>
<polygon fill="purple" stroke="purple" points="889.6,-31 889.6,-83 1077.6,-83 1077.6,-31 889.6,-31"/>
</g>
<g id="clust4" class="cluster">
<title>cluster_7</title>
<polygon fill="purple" stroke="purple" points="528.6,-114 528.6,-166 668.6,-166 668.6,-114 528.6,-114"/>
</g>
<g id="clust5" class="cluster">
<title>cluster_KEY</title>
<polygon fill="none" stroke="black" points="832.6,-258 832.6,-530.5 1210.6,-530.5 1210.6,-258 832.6,-258"/>
<text text-anchor="middle" x="1021.6" y="-513.2" font-family="DejaVu Sans Mono" font-size="14.00">KEY</text>
</g>
<!-- 1 -->
<g id="node1" class="node">
<title>1</title>
<polygon fill="#fffb81" stroke="black" points="749.48,-561 147.73,-561 147.73,-402 749.48,-402 749.48,-561"/>
<text text-anchor="start" x="155.73" y="-543.7" font-family="DejaVu Sans Mono" font-size="14.00">&quot;&quot;&quot;</text>
<text text-anchor="start" x="155.73" y="-528.7" font-family="DejaVu Sans Mono" font-size="14.00">Run with the following command line parameters:</text>
<text text-anchor="start" x="155.73" y="-513.7" font-family="DejaVu Sans Mono" font-size="14.00">python3 client_browser.py &lt;hostname&gt; &lt;port&gt; &lt;file&gt;</text>
<text text-anchor="start" x="155.73" y="-482.7" font-family="DejaVu Sans Mono" font-size="14.00">Examples:</text>
<text text-anchor="start" x="155.73" y="-467.7" font-family="DejaVu Sans Mono" font-size="14.00">$ python3 client_browser.py info.cern.ch 80 &quot;&quot; # defaults to index.html</text>
<text text-anchor="start" x="155.73" y="-452.7" font-family="DejaVu Sans Mono" font-size="14.00">$ python3 client_browser.py localhost 6789 &quot;hello_world.html&quot;</text>
<text text-anchor="start" x="155.73" y="-437.7" font-family="DejaVu Sans Mono" font-size="14.00">&quot;&quot;&quot;</text>
<text text-anchor="start" x="155.73" y="-422.7" font-family="DejaVu Sans Mono" font-size="14.00">import sys</text>
<text text-anchor="middle" x="448.6" y="-407.7" font-family="DejaVu Sans Mono" font-size="14.00">import socket</text>
</g>
<!-- 2 -->
<g id="node2" class="node">
<title>2</title>
<polygon fill="#ff6752" stroke="black" points="448.6,-385 267.07,-367 448.6,-349 630.13,-367 448.6,-385"/>
<text text-anchor="middle" x="448.6" y="-361.2" font-family="DejaVu Sans Mono" font-size="14.00">if len(sys.argv) != 4:</text>
</g>
<!-- 1&#45;&gt;2 -->
<g id="edge10" class="edge">
<title>1&#45;&gt;2</title>
<path fill="none" stroke="black" d="M448.6,-401.75C448.6,-399.96 448.6,-398.19 448.6,-396.48"/>
<polygon fill="black" stroke="black" points="452.1,-396.7 448.6,-386.7 445.1,-396.7 452.1,-396.7"/>
</g>
<!-- 3 -->
<g id="node3" class="node">
<title>3</title>
<polygon fill="#e552ff" stroke="#e552ff" points="265.6,-302 223.6,-302 223.6,-306 211.6,-306 211.6,-266 265.6,-266 265.6,-302"/>
<polyline fill="none" stroke="#e552ff" points="211.6,-302 223.6,-302"/>
<text text-anchor="middle" x="238.6" y="-278.2" font-family="DejaVu Sans Mono" font-size="14.00">len</text>
</g>
<!-- 2&#45;&gt;3 -->
<g id="edge1" class="edge">
<title>2&#45;&gt;3</title>
<path fill="none" stroke="black" stroke-dasharray="5,2" d="M381.31,-355.17C347.79,-347.9 307.5,-336.21 274.6,-318 270.43,-315.69 266.35,-312.8 262.53,-309.7"/>
<polygon fill="black" stroke="black" points="265.08,-307.29 255.28,-303.26 260.43,-312.52 265.08,-307.29"/>
<text text-anchor="middle" x="345.23" y="-327.7" font-family="DejaVu Sans Mono" font-size="14.00">calls</text>
</g>
<!-- 4 -->
<g id="node4" class="node">
<title>4</title>
<polygon fill="#fffb81" stroke="black" points="613.35,-318 283.85,-318 283.85,-250 613.35,-250 613.35,-318"/>
<text text-anchor="start" x="291.85" y="-300.7" font-family="DejaVu Sans Mono" font-size="14.00">server_hostname = &#39;localhost&#39;</text>
<text text-anchor="start" x="291.85" y="-285.7" font-family="DejaVu Sans Mono" font-size="14.00">server_ip = &#39;127.0.0.1&#39;</text>
<text text-anchor="start" x="291.85" y="-270.7" font-family="DejaVu Sans Mono" font-size="14.00">server_port = 6789</text>
<text text-anchor="middle" x="448.6" y="-255.7" font-family="DejaVu Sans Mono" font-size="14.00">file_name = &#39;web_files/hello_world.html&#39;</text>
</g>
<!-- 2&#45;&gt;4 -->
<g id="edge8" class="edge">
<title>2&#45;&gt;4</title>
<path fill="none" stroke="green" d="M448.6,-348.82C448.6,-343.11 448.6,-336.46 448.6,-329.65"/>
<polygon fill="green" stroke="green" points="452.1,-329.69 448.6,-319.69 445.1,-329.69 452.1,-329.69"/>
<text text-anchor="middle" x="522.85" y="-327.7" font-family="DejaVu Sans Mono" font-size="14.00">len(sys.argv) != 4</text>
</g>
<!-- 7 -->
<g id="node5" class="node">
<title>7</title>
<polygon fill="orange" stroke="black" points="598.6,-233 0,-215 598.6,-197 1197.2,-215 598.6,-233"/>
<polyline fill="none" stroke="black" points="11.99,-215.36 11.99,-214.64"/>
<polyline fill="none" stroke="black" points="586.61,-197.36 610.6,-197.36"/>
<polyline fill="none" stroke="black" points="1185.21,-214.64 1185.21,-215.36"/>
<polyline fill="none" stroke="black" points="610.6,-232.64 586.61,-232.64"/>
<text text-anchor="middle" x="598.6" y="-209.2" font-family="DejaVu Sans Mono" font-size="14.00">client_socket = socket.socket(family=socket.AF_INET, type=socket.SOCK_STREAM)</text>
</g>
<!-- 2&#45;&gt;7 -->
<g id="edge9" class="edge">
<title>2&#45;&gt;7</title>
<path fill="none" stroke="red" d="M550.1,-358.65C567.59,-354.8 585.11,-349.17 600.6,-341 637.41,-321.59 635.19,-289.66 622.6,-250 621.79,-247.44 620.71,-244.91 619.45,-242.46"/>
<polygon fill="red" stroke="red" points="622.57,-240.85 614.35,-234.17 616.61,-244.52 622.57,-240.85"/>
<text text-anchor="middle" x="714.1" y="-278.2" font-family="DejaVu Sans Mono" font-size="14.00">(len(sys.argv) == 4)</text>
</g>
<!-- 4&#45;&gt;7 -->
<g id="edge7" class="edge">
<title>4&#45;&gt;7</title>
<path fill="none" stroke="black" d="M523.6,-249.5C533.08,-245.27 542.55,-241.03 551.43,-237.07"/>
<polygon fill="black" stroke="black" points="552.82,-240.28 560.53,-233.01 549.97,-233.89 552.82,-240.28"/>
</g>
<!-- 8 -->
<g id="node8" class="node">
<title>8</title>
<polygon fill="#fffb81" stroke="black" points="1078.23,-158 888.98,-158 888.98,-122 1078.23,-122 1078.23,-158"/>
<text text-anchor="middle" x="983.6" y="-134.2" font-family="DejaVu Sans Mono" font-size="14.00">client_socket.close()</text>
</g>
<!-- 7&#45;&gt;8 -->
<g id="edge6" class="edge">
<title>7&#45;&gt;8</title>
<path fill="none" stroke="black" d="M677.91,-198.96C736.47,-187.86 816.7,-172.65 880.28,-160.59"/>
<polygon fill="black" stroke="black" points="880.88,-164.04 890.05,-158.74 879.57,-157.16 880.88,-164.04"/>
</g>
<!-- 11 -->
<g id="node10" class="node">
<title>11</title>
<polygon fill="#e552ff" stroke="#e552ff" points="660.23,-158 548.98,-158 548.98,-162 536.98,-162 536.98,-122 660.23,-122 660.23,-158"/>
<polyline fill="none" stroke="#e552ff" points="536.98,-158 548.98,-158"/>
<text text-anchor="middle" x="598.6" y="-134.2" font-family="DejaVu Sans Mono" font-size="14.00">socket.socket</text>
</g>
<!-- 7&#45;&gt;11 -->
<g id="edge5" class="edge">
<title>7&#45;&gt;11</title>
<path fill="none" stroke="black" stroke-dasharray="5,2" d="M598.6,-196.7C598.6,-188.67 598.6,-178.9 598.6,-169.8"/>
<polygon fill="black" stroke="black" points="602.1,-169.94 598.6,-159.94 595.1,-169.94 602.1,-169.94"/>
<text text-anchor="middle" x="619.23" y="-175.7" font-family="DejaVu Sans Mono" font-size="14.00">calls</text>
</g>
<!-- 9 -->
<g id="node6" class="node">
<title>9</title>
<polygon fill="#fffb81" stroke="black" points="1453.98,-233 1215.23,-233 1215.23,-197 1453.98,-197 1453.98,-233"/>
<text text-anchor="middle" x="1334.6" y="-209.2" font-family="DejaVu Sans Mono" font-size="14.00">print(&#39;Exception was: &#39;, e)</text>
</g>
<!-- 10 -->
<g id="node7" class="node">
<title>10</title>
<polygon fill="#e552ff" stroke="#e552ff" points="1363.23,-158 1317.98,-158 1317.98,-162 1305.98,-162 1305.98,-122 1363.23,-122 1363.23,-158"/>
<polyline fill="none" stroke="#e552ff" points="1305.98,-158 1317.98,-158"/>
<text text-anchor="middle" x="1334.6" y="-134.2" font-family="DejaVu Sans Mono" font-size="14.00">print</text>
</g>
<!-- 9&#45;&gt;10 -->
<g id="edge2" class="edge">
<title>9&#45;&gt;10</title>
<path fill="none" stroke="black" stroke-dasharray="5,2" d="M1334.6,-196.7C1334.6,-188.67 1334.6,-178.9 1334.6,-169.8"/>
<polygon fill="black" stroke="black" points="1338.1,-169.94 1334.6,-159.94 1331.1,-169.94 1338.1,-169.94"/>
<text text-anchor="middle" x="1355.23" y="-175.7" font-family="DejaVu Sans Mono" font-size="14.00">calls</text>
</g>
<!-- 9&#45;&gt;8 -->
<g id="edge4" class="edge">
<title>9&#45;&gt;8</title>
<path fill="none" stroke="black" d="M1250.53,-196.51C1198.84,-185.76 1132.46,-171.96 1078.84,-160.81"/>
<polygon fill="black" stroke="black" points="1079.58,-157.39 1069.08,-158.78 1078.16,-164.24 1079.58,-157.39"/>
</g>
<!-- 12 -->
<g id="node9" class="node">
<title>12</title>
<polygon fill="#e552ff" stroke="#e552ff" points="1069.98,-75 909.23,-75 909.23,-79 897.23,-79 897.23,-39 1069.98,-39 1069.98,-75"/>
<polyline fill="none" stroke="#e552ff" points="897.23,-75 909.23,-75"/>
<text text-anchor="middle" x="983.6" y="-51.2" font-family="DejaVu Sans Mono" font-size="14.00">client_socket.close</text>
</g>
<!-- 8&#45;&gt;12 -->
<g id="edge3" class="edge">
<title>8&#45;&gt;12</title>
<path fill="none" stroke="black" stroke-dasharray="5,2" d="M983.6,-121.82C983.6,-111.69 983.6,-98.6 983.6,-86.92"/>
<polygon fill="black" stroke="black" points="987.1,-86.95 983.6,-76.95 980.1,-86.95 987.1,-86.95"/>
<text text-anchor="middle" x="1004.23" y="-92.7" font-family="DejaVu Sans Mono" font-size="14.00">calls</text>
</g>
<!-- input -->
<g id="node11" class="node">
<title>input</title>
<polygon fill="#afeeee" stroke="black" points="1202.16,-385 1115.37,-385 1093.05,-349 1179.83,-349 1202.16,-385"/>
<text text-anchor="middle" x="1147.6" y="-361.2" font-family="DejaVu Sans Mono" font-size="14.00">input</text>
</g>
<!-- call -->
<g id="node16" class="node">
<title>call</title>
<polygon fill="#e552ff" stroke="black" points="1174.6,-302 1132.6,-302 1132.6,-306 1120.6,-306 1120.6,-266 1174.6,-266 1174.6,-302"/>
<polyline fill="none" stroke="black" points="1120.6,-302 1132.6,-302"/>
<text text-anchor="middle" x="1147.6" y="-278.2" font-family="DejaVu Sans Mono" font-size="14.00">call</text>
</g>
<!-- input&#45;&gt;call -->
<!-- default -->
<g id="node12" class="node">
<title>default</title>
<polygon fill="#fffb81" stroke="black" points="1049.48,-302 975.73,-302 975.73,-266 1049.48,-266 1049.48,-302"/>
<text text-anchor="middle" x="1012.6" y="-278.2" font-family="DejaVu Sans Mono" font-size="14.00">default</text>
</g>
<!-- if -->
<g id="node13" class="node">
<title>if</title>
<polygon fill="#ff6752" stroke="black" points="1147.6,-499.5 1117.73,-481.5 1147.6,-463.5 1177.47,-481.5 1147.6,-499.5"/>
<text text-anchor="middle" x="1147.6" y="-475.7" font-family="DejaVu Sans Mono" font-size="14.00">if</text>
</g>
<!-- if&#45;&gt;input -->
<!-- for -->
<g id="node14" class="node">
<title>for</title>
<polygon fill="#ffbe52" stroke="black" points="1099.18,-481.5 1083.89,-499.5 1053.31,-499.5 1038.02,-481.5 1053.31,-463.5 1083.89,-463.5 1099.18,-481.5"/>
<text text-anchor="middle" x="1068.6" y="-475.7" font-family="DejaVu Sans Mono" font-size="14.00">for</text>
</g>
<!-- return -->
<g id="node17" class="node">
<title>return</title>
<polygon fill="#98fb98" stroke="black" points="1075.02,-385 975.73,-385 950.18,-349 1049.48,-349 1075.02,-385"/>
<text text-anchor="middle" x="1012.6" y="-361.2" font-family="DejaVu Sans Mono" font-size="14.00">return</text>
</g>
<!-- for&#45;&gt;return -->
<!-- while -->
<g id="node15" class="node">
<title>while</title>
<polygon fill="#ffbe52" stroke="black" points="1019.57,-481.5 998.08,-499.5 955.12,-499.5 933.64,-481.5 955.12,-463.5 998.08,-463.5 1019.57,-481.5"/>
<text text-anchor="middle" x="976.6" y="-475.7" font-family="DejaVu Sans Mono" font-size="14.00">while</text>
</g>
<!-- return&#45;&gt;default -->
<!-- try -->
<g id="node18" class="node">
<title>try</title>
<polygon fill="orange" stroke="black" points="878.6,-499.5 841.15,-481.5 878.6,-463.5 916.06,-481.5 878.6,-499.5"/>
<polyline fill="none" stroke="black" points="851.96,-486.7 851.96,-476.3"/>
<polyline fill="none" stroke="black" points="867.79,-468.7 889.42,-468.7"/>
<polyline fill="none" stroke="black" points="905.24,-476.3 905.24,-486.7"/>
<polyline fill="none" stroke="black" points="889.42,-494.3 867.79,-494.3"/>
<text text-anchor="middle" x="878.6" y="-475.7" font-family="DejaVu Sans Mono" font-size="14.00">try</text>
</g>
<!-- raise -->
<g id="node19" class="node">
<title>raise</title>
<polygon fill="#98fb98" stroke="black" points="932.59,-372.56 886.6,-385 840.61,-372.56 840.65,-352.44 932.55,-352.44 932.59,-372.56"/>
<text text-anchor="middle" x="886.6" y="-361.2" font-family="DejaVu Sans Mono" font-size="14.00">raise</text>
</g>
<!-- try&#45;&gt;raise -->
</g>
</svg>
