<?xml version="1.0" encoding="UTF-8" standalone="no"?>
<!DOCTYPE svg PUBLIC "-//W3C//DTD SVG 1.1//EN"
 "http://www.w3.org/Graphics/SVG/1.1/DTD/svg11.dtd">
<!-- Generated by graphviz version 8.1.0 (20230707.0739)
 -->
<!-- Title: cluster0client_browser.py Pages: 1 -->
<svg width="1556pt" height="607pt"
 viewBox="0.00 0.00 1556.44 607.25" xmlns="http://www.w3.org/2000/svg" xmlns:xlink="http://www.w3.org/1999/xlink">
<g id="graph0" class="graph" transform="scale(1 1) rotate(0) translate(4 603.25)">
<title>cluster0client_browser.py</title>
<polygon fill="white" stroke="none" points="-4,4 -4,-603.25 1552.44,-603.25 1552.44,4 -4,4"/>
<text text-anchor="middle" x="774.22" y="-7.95" font-family="DejaVu Sans Mono" font-size="14.00">client_browser.py</text>
<g id="clust1" class="cluster">
<title>cluster_2</title>
<polygon fill="purple" stroke="purple" points="237.07,-269.25 237.07,-321.25 307.07,-321.25 307.07,-269.25 237.07,-269.25"/>
</g>
<g id="clust2" class="cluster">
<title>cluster_9</title>
<polygon fill="purple" stroke="purple" points="1392.07,-118.5 1392.07,-170.5 1466.07,-170.5 1466.07,-118.5 1392.07,-118.5"/>
</g>
<g id="clust3" class="cluster">
<title>cluster_8</title>
<polygon fill="purple" stroke="purple" points="960.07,-33.25 960.07,-85.25 1148.07,-85.25 1148.07,-33.25 960.07,-33.25"/>
</g>
<g id="clust4" class="cluster">
<title>cluster_7</title>
<polygon fill="purple" stroke="purple" points="576.07,-118.5 576.07,-170.5 716.07,-170.5 716.07,-118.5 576.07,-118.5"/>
</g>
<g id="clust5" class="cluster">
<title>cluster_KEY</title>
<polygon fill="none" stroke="black" points="889.07,-269.25 889.07,-560.88 1293.07,-560.88 1293.07,-269.25 889.07,-269.25"/>
<text text-anchor="middle" x="1091.07" y="-543.58" font-family="DejaVu Sans Mono" font-size="14.00">KEY</text>
</g>
<!-- 1 -->
<g id="node1" class="node">
<title>1</title>
<polygon fill="#fffb81" stroke="black" points="790.94,-599.25 189.19,-599.25 189.19,-420 790.94,-420 790.94,-599.25"/>
<text text-anchor="start" x="197.19" y="-581.95" font-family="DejaVu Sans Mono" font-size="14.00">&quot;&quot;&quot;</text>
<text text-anchor="start" x="197.19" y="-564.7" font-family="DejaVu Sans Mono" font-size="14.00">Run with the following command line parameters:</text>
<text text-anchor="start" x="197.19" y="-547.45" font-family="DejaVu Sans Mono" font-size="14.00">python3 client_browser.py &lt;hostname&gt; &lt;port&gt; &lt;file&gt;</text>
<text text-anchor="start" x="197.19" y="-514.2" font-family="DejaVu Sans Mono" font-size="14.00">Examples:</text>
<text text-anchor="start" x="197.19" y="-496.95" font-family="DejaVu Sans Mono" font-size="14.00">$ python3 client_browser.py info.cern.ch 80 &quot;&quot; # defaults to index.html</text>
<text text-anchor="start" x="197.19" y="-479.7" font-family="DejaVu Sans Mono" font-size="14.00">$ python3 client_browser.py localhost 6789 &quot;hello_world.html&quot;</text>
<text text-anchor="start" x="197.19" y="-462.45" font-family="DejaVu Sans Mono" font-size="14.00">&quot;&quot;&quot;</text>
<text text-anchor="start" x="197.19" y="-445.2" font-family="DejaVu Sans Mono" font-size="14.00">import sys</text>
<text text-anchor="middle" x="490.07" y="-427.95" font-family="DejaVu Sans Mono" font-size="14.00">import socket</text>
</g>
<!-- 2 -->
<g id="node2" class="node">
<title>2</title>
<polygon fill="#ff6752" stroke="black" points="490.07,-403 294.14,-385 490.07,-367 686,-385 490.07,-403"/>
<text text-anchor="middle" x="490.07" y="-380.32" font-family="DejaVu Sans Mono" font-size="14.00">if len(sys.argv) != 4:</text>
</g>
<!-- 1&#45;&gt;2 -->
<g id="edge10" class="edge">
<title>1&#45;&gt;2</title>
<path fill="none" stroke="black" d="M490.07,-419.51C490.07,-417.65 490.07,-415.84 490.07,-414.07"/>
<polygon fill="black" stroke="black" points="493.57,-414.31 490.07,-404.31 486.57,-414.31 493.57,-414.31"/>
</g>
<!-- 3 -->
<g id="node3" class="node">
<title>3</title>
<polygon fill="#e552ff" stroke="#e552ff" points="299.07,-313.25 257.07,-313.25 257.07,-317.25 245.07,-317.25 245.07,-277.25 299.07,-277.25 299.07,-313.25"/>
<polyline fill="none" stroke="#e552ff" points="245.07,-313.25 257.07,-313.25"/>
<text text-anchor="middle" x="272.07" y="-290.57" font-family="DejaVu Sans Mono" font-size="14.00">len</text>
</g>
<!-- 2&#45;&gt;3 -->
<g id="edge1" class="edge">
<title>2&#45;&gt;3</title>
<path fill="none" stroke="black" stroke-dasharray="5,2" d="M417.39,-373.2C382.56,-365.78 341.29,-353.56 308.07,-333.75 302.51,-330.43 297.23,-326.03 292.53,-321.41"/>
<polygon fill="black" stroke="black" points="295.58,-319.48 286.18,-314.58 290.47,-324.27 295.58,-319.48"/>
<text text-anchor="middle" x="385.69" y="-345.7" font-family="DejaVu Sans Mono" font-size="14.00">calls</text>
</g>
<!-- 4 -->
<g id="node4" class="node">
<title>4</title>
<polygon fill="#fffb81" stroke="black" points="663.07,-333.75 317.07,-333.75 317.07,-256.75 663.07,-256.75 663.07,-333.75"/>
<text text-anchor="start" x="325.07" y="-316.45" font-family="DejaVu Sans Mono" font-size="14.00">server_hostname = &#39;localhost&#39;</text>
<text text-anchor="start" x="325.07" y="-299.2" font-family="DejaVu Sans Mono" font-size="14.00">server_ip = &#39;127.0.0.1&#39;</text>
<text text-anchor="start" x="325.07" y="-281.95" font-family="DejaVu Sans Mono" font-size="14.00">server_port = 6789</text>
<text text-anchor="middle" x="490.07" y="-264.7" font-family="DejaVu Sans Mono" font-size="14.00">file_name = &#39;web_files/hello_world.html&#39;</text>
</g>
<!-- 2&#45;&gt;4 -->
<g id="edge8" class="edge">
<title>2&#45;&gt;4</title>
<path fill="none" stroke="green" d="M490.07,-366.66C490.07,-360.35 490.07,-352.86 490.07,-345.16"/>
<polygon fill="green" stroke="green" points="493.57,-345.24 490.07,-335.24 486.57,-345.24 493.57,-345.24"/>
<text text-anchor="middle" x="564.32" y="-345.7" font-family="DejaVu Sans Mono" font-size="14.00">len(sys.argv) != 4</text>
</g>
<!-- 7 -->
<g id="node5" class="node">
<title>7</title>
<polygon fill="orange" stroke="black" points="646.07,-239.75 0,-221.75 646.07,-203.75 1292.14,-221.75 646.07,-239.75"/>
<polyline fill="none" stroke="black" points="12,-222.08 12,-221.42"/>
<polyline fill="none" stroke="black" points="634.07,-204.08 658.06,-204.08"/>
<polyline fill="none" stroke="black" points="1280.14,-221.42 1280.14,-222.08"/>
<polyline fill="none" stroke="black" points="658.06,-239.42 634.07,-239.42"/>
<text text-anchor="middle" x="646.07" y="-217.07" font-family="DejaVu Sans Mono" font-size="14.00">client_socket = socket.socket(family=socket.AF_INET, type=socket.SOCK_STREAM)</text>
</g>
<!-- 2&#45;&gt;7 -->
<g id="edge9" class="edge">
<title>2&#45;&gt;7</title>
<path fill="none" stroke="red" d="M588.86,-375.66C607.08,-371.93 625.55,-366.6 642.07,-359 657.9,-351.71 664.71,-349.55 672.07,-333.75 686.51,-302.72 683.04,-289.17 672.07,-256.75 671.12,-253.94 669.83,-251.19 668.34,-248.53"/>
<polygon fill="red" stroke="red" points="670.73,-246.81 662.25,-240.46 664.92,-250.71 670.73,-246.81"/>
<text text-anchor="middle" x="764.57" y="-290.57" font-family="DejaVu Sans Mono" font-size="14.00">(len(sys.argv) == 4)</text>
</g>
<!-- 4&#45;&gt;7 -->
<g id="edge7" class="edge">
<title>4&#45;&gt;7</title>
<path fill="none" stroke="black" d="M572.64,-256.41C582.09,-252.07 591.46,-247.78 600.17,-243.78"/>
<polygon fill="black" stroke="black" points="601.44,-246.59 609.08,-239.25 598.53,-240.23 601.44,-246.59"/>
</g>
<!-- 8 -->
<g id="node8" class="node">
<title>8</title>
<polygon fill="#fffb81" stroke="black" points="1148.69,-162.5 959.44,-162.5 959.44,-126.5 1148.69,-126.5 1148.69,-162.5"/>
<text text-anchor="middle" x="1054.07" y="-139.82" font-family="DejaVu Sans Mono" font-size="14.00">client_socket.close()</text>
</g>
<!-- 7&#45;&gt;8 -->
<g id="edge6" class="edge">
<title>7&#45;&gt;8</title>
<path fill="none" stroke="black" d="M728.14,-205.61C791.67,-193.9 880.1,-177.59 948.83,-164.91"/>
<polygon fill="black" stroke="black" points="949.05,-168.24 958.25,-162.99 947.78,-161.36 949.05,-168.24"/>
</g>
<!-- 11 -->
<g id="node10" class="node">
<title>11</title>
<polygon fill="#e552ff" stroke="#e552ff" points="707.69,-162.5 596.44,-162.5 596.44,-166.5 584.44,-166.5 584.44,-126.5 707.69,-126.5 707.69,-162.5"/>
<polyline fill="none" stroke="#e552ff" points="584.44,-162.5 596.44,-162.5"/>
<text text-anchor="middle" x="646.07" y="-139.82" font-family="DejaVu Sans Mono" font-size="14.00">socket.socket</text>
</g>
<!-- 7&#45;&gt;11 -->
<g id="edge5" class="edge">
<title>7&#45;&gt;11</title>
<path fill="none" stroke="black" stroke-dasharray="5,2" d="M646.07,-203.3C646.07,-194.46 646.07,-183.53 646.07,-173.55"/>
<polygon fill="black" stroke="black" points="649.57,-173.86 646.07,-163.86 642.57,-173.86 649.57,-173.86"/>
<text text-anchor="middle" x="666.69" y="-182.45" font-family="DejaVu Sans Mono" font-size="14.00">calls</text>
</g>
<!-- 9 -->
<g id="node6" class="node">
<title>9</title>
<polygon fill="#fffb81" stroke="black" points="1548.44,-239.75 1309.69,-239.75 1309.69,-203.75 1548.44,-203.75 1548.44,-239.75"/>
<text text-anchor="middle" x="1429.07" y="-217.07" font-family="DejaVu Sans Mono" font-size="14.00">print(&#39;Exception was: &#39;, e)</text>
</g>
<!-- 10 -->
<g id="node7" class="node">
<title>10</title>
<polygon fill="#e552ff" stroke="#e552ff" points="1457.69,-162.5 1412.44,-162.5 1412.44,-166.5 1400.44,-166.5 1400.44,-126.5 1457.69,-126.5 1457.69,-162.5"/>
<polyline fill="none" stroke="#e552ff" points="1400.44,-162.5 1412.44,-162.5"/>
<text text-anchor="middle" x="1429.07" y="-139.82" font-family="DejaVu Sans Mono" font-size="14.00">print</text>
</g>
<!-- 9&#45;&gt;10 -->
<g id="edge2" class="edge">
<title>9&#45;&gt;10</title>
<path fill="none" stroke="black" stroke-dasharray="5,2" d="M1429.07,-203.3C1429.07,-194.46 1429.07,-183.53 1429.07,-173.55"/>
<polygon fill="black" stroke="black" points="1432.57,-173.86 1429.07,-163.86 1425.57,-173.86 1432.57,-173.86"/>
<text text-anchor="middle" x="1449.69" y="-182.45" font-family="DejaVu Sans Mono" font-size="14.00">calls</text>
</g>
<!-- 9&#45;&gt;8 -->
<g id="edge4" class="edge">
<title>9&#45;&gt;8</title>
<path fill="none" stroke="black" d="M1342.09,-203.3C1285.15,-191.87 1210.63,-176.92 1151.67,-165.08"/>
<polygon fill="black" stroke="black" points="1152.71,-161.52 1142.22,-162.99 1151.34,-168.39 1152.71,-161.52"/>
</g>
<!-- 12 -->
<g id="node9" class="node">
<title>12</title>
<polygon fill="#e552ff" stroke="#e552ff" points="1140.44,-77.25 979.69,-77.25 979.69,-81.25 967.69,-81.25 967.69,-41.25 1140.44,-41.25 1140.44,-77.25"/>
<polyline fill="none" stroke="#e552ff" points="967.69,-77.25 979.69,-77.25"/>
<text text-anchor="middle" x="1054.07" y="-54.58" font-family="DejaVu Sans Mono" font-size="14.00">client_socket.close</text>
</g>
<!-- 8&#45;&gt;12 -->
<g id="edge3" class="edge">
<title>8&#45;&gt;12</title>
<path fill="none" stroke="black" stroke-dasharray="5,2" d="M1054.07,-126.25C1054.07,-115.31 1054.07,-100.9 1054.07,-88.34"/>
<polygon fill="black" stroke="black" points="1057.57,-88.48 1054.07,-78.48 1050.57,-88.48 1057.57,-88.48"/>
<text text-anchor="middle" x="1074.69" y="-97.2" font-family="DejaVu Sans Mono" font-size="14.00">calls</text>
</g>
<!-- input -->
<g id="node11" class="node">
<title>input</title>
<polygon fill="#afeeee" stroke="black" points="1284.95,-403 1191.28,-403 1167.19,-367 1260.85,-367 1284.95,-403"/>
<text text-anchor="middle" x="1226.07" y="-380.32" font-family="DejaVu Sans Mono" font-size="14.00">input</text>
</g>
<!-- call -->
<g id="node16" class="node">
<title>call</title>
<polygon fill="#e552ff" stroke="black" points="1253.07,-313.25 1211.07,-313.25 1211.07,-317.25 1199.07,-317.25 1199.07,-277.25 1253.07,-277.25 1253.07,-313.25"/>
<polyline fill="none" stroke="black" points="1199.07,-313.25 1211.07,-313.25"/>
<text text-anchor="middle" x="1226.07" y="-290.57" font-family="DejaVu Sans Mono" font-size="14.00">call</text>
</g>
<!-- input&#45;&gt;call -->
<!-- default -->
<g id="node12" class="node">
<title>default</title>
<polygon fill="#fffb81" stroke="black" points="1118.94,-313.25 1045.19,-313.25 1045.19,-277.25 1118.94,-277.25 1118.94,-313.25"/>
<text text-anchor="middle" x="1082.07" y="-290.57" font-family="DejaVu Sans Mono" font-size="14.00">default</text>
</g>
<!-- if -->
<g id="node13" class="node">
<title>if</title>
<polygon fill="#ff6752" stroke="black" points="1226.07,-527.62 1193.83,-509.62 1226.07,-491.62 1258.31,-509.62 1226.07,-527.62"/>
<text text-anchor="middle" x="1226.07" y="-504.95" font-family="DejaVu Sans Mono" font-size="14.00">if</text>
</g>
<!-- if&#45;&gt;input -->
<!-- for -->
<g id="node14" class="node">
<title>for</title>
<polygon fill="#ffbe52" stroke="black" points="1174.08,-509.62 1157.57,-527.62 1124.56,-527.62 1108.06,-509.62 1124.56,-491.62 1157.57,-491.62 1174.08,-509.62"/>
<text text-anchor="middle" x="1141.07" y="-504.95" font-family="DejaVu Sans Mono" font-size="14.00">for</text>
</g>
<!-- return -->
<g id="node17" class="node">
<title>return</title>
<polygon fill="#98fb98" stroke="black" points="1149.43,-403 1042.27,-403 1014.7,-367 1121.87,-367 1149.43,-403"/>
<text text-anchor="middle" x="1082.07" y="-380.32" font-family="DejaVu Sans Mono" font-size="14.00">return</text>
</g>
<!-- for&#45;&gt;return -->
<!-- while -->
<g id="node15" class="node">
<title>while</title>
<polygon fill="#ffbe52" stroke="black" points="1090.44,-509.62 1067.25,-527.62 1020.88,-527.62 997.7,-509.62 1020.88,-491.62 1067.25,-491.62 1090.44,-509.62"/>
<text text-anchor="middle" x="1044.07" y="-504.95" font-family="DejaVu Sans Mono" font-size="14.00">while</text>
</g>
<!-- return&#45;&gt;default -->
<!-- try -->
<g id="node18" class="node">
<title>try</title>
<polygon fill="orange" stroke="black" points="939.07,-527.62 898.64,-509.62 939.07,-491.62 979.49,-509.62 939.07,-527.62"/>
<polyline fill="none" stroke="black" points="909.6,-514.51 909.6,-504.74"/>
<polyline fill="none" stroke="black" points="928.11,-496.51 950.03,-496.51"/>
<polyline fill="none" stroke="black" points="968.53,-504.74 968.53,-514.51"/>
<polyline fill="none" stroke="black" points="950.03,-522.74 928.11,-522.74"/>
<text text-anchor="middle" x="939.07" y="-504.95" font-family="DejaVu Sans Mono" font-size="14.00">try</text>
</g>
<!-- raise -->
<g id="node19" class="node">
<title>raise</title>
<polygon fill="#98fb98" stroke="black" points="996.71,-390.56 947.07,-403 897.43,-390.56 897.47,-370.44 996.66,-370.44 996.71,-390.56"/>
<text text-anchor="middle" x="947.07" y="-380.32" font-family="DejaVu Sans Mono" font-size="14.00">raise</text>
</g>
<!-- try&#45;&gt;raise -->
</g>
</svg>
