<?xml version="1.0" encoding="UTF-8" standalone="no"?>
<!DOCTYPE svg PUBLIC "-//W3C//DTD SVG 1.1//EN"
 "http://www.w3.org/Graphics/SVG/1.1/DTD/svg11.dtd">
<!-- Generated by graphviz version 9.0.0 (20230911.1827)
 -->
<!-- Title: cluster0web_server.py Pages: 1 -->
<svg width="3491pt" height="1051pt"
 viewBox="0.00 0.00 3490.50 1050.50" xmlns="http://www.w3.org/2000/svg" xmlns:xlink="http://www.w3.org/1999/xlink">
<g id="graph0" class="graph" transform="scale(1 1) rotate(0) translate(4 1046.5)">
<title>cluster0web_server.py</title>
<polygon fill="white" stroke="none" points="-4,4 -4,-1046.5 3486.5,-1046.5 3486.5,4 -4,4"/>
<text text-anchor="middle" x="1741.25" y="-5.7" font-family="DejaVu Sans Mono" font-size="14.00">web_server.py</text>
<g id="clust1" class="cluster">
<title>cluster_50</title>
<polygon fill="purple" stroke="purple" points="286.5,-497 286.5,-549 356.5,-549 356.5,-497 286.5,-497"/>
</g>
<g id="clust2" class="cluster">
<title>cluster0handler</title>
<polygon fill="none" stroke="black" points="651.5,-31 651.5,-1019.5 2113.5,-1019.5 2113.5,-31 651.5,-31"/>
<text text-anchor="middle" x="1382.5" y="-1002.2" font-family="DejaVu Sans Mono" font-size="14.00">handler</text>
</g>
<g id="clust3" class="cluster">
<title>cluster_6</title>
<polygon fill="purple" stroke="purple" points="1051.5,-39 1051.5,-174 1265.5,-174 1265.5,-39 1051.5,-39"/>
</g>
<g id="clust4" class="cluster">
<title>cluster_5</title>
<polygon fill="purple" stroke="purple" points="1273.5,-39 1273.5,-91 1445.5,-91 1445.5,-39 1273.5,-39"/>
</g>
<g id="clust5" class="cluster">
<title>cluster_9</title>
<polygon fill="purple" stroke="purple" points="799.5,-122 799.5,-174 873.5,-174 873.5,-122 799.5,-122"/>
</g>
<g id="clust6" class="cluster">
<title>cluster_4</title>
<polygon fill="purple" stroke="purple" points="1008.5,-603 1008.5,-655 1671.5,-655 1671.5,-603 1008.5,-603"/>
</g>
<g id="clust7" class="cluster">
<title>cluster_17</title>
<polygon fill="purple" stroke="purple" points="1498.5,-39 1498.5,-174 2105.5,-174 2105.5,-39 1498.5,-39"/>
</g>
<g id="clust8" class="cluster">
<title>cluster0main</title>
<polygon fill="none" stroke="black" points="2121.5,-290 2121.5,-1034.5 3088.5,-1034.5 3088.5,-290 2121.5,-290"/>
<text text-anchor="middle" x="2605" y="-1017.2" font-family="DejaVu Sans Mono" font-size="14.00">main</text>
</g>
<g id="clust9" class="cluster">
<title>cluster_28</title>
<polygon fill="purple" stroke="purple" points="2129.5,-743 2129.5,-795 2725.5,-795 2725.5,-743 2129.5,-743"/>
</g>
<g id="clust10" class="cluster">
<title>cluster_35</title>
<polygon fill="purple" stroke="purple" points="2149.5,-497 2149.5,-549 2298.5,-549 2298.5,-497 2149.5,-497"/>
</g>
<g id="clust11" class="cluster">
<title>cluster_34</title>
<polygon fill="purple" stroke="purple" points="2129.5,-298 2129.5,-350 2317.5,-350 2317.5,-298 2129.5,-298"/>
</g>
<g id="clust12" class="cluster">
<title>cluster_39</title>
<polygon fill="purple" stroke="purple" points="2325.5,-298 2325.5,-350 3080.5,-350 3080.5,-298 2325.5,-298"/>
</g>
<g id="clust13" class="cluster">
<title>cluster_KEY</title>
<polygon fill="none" stroke="black" points="3096.5,-603 3096.5,-1003.5 3474.5,-1003.5 3474.5,-603 3096.5,-603"/>
<text text-anchor="middle" x="3285.5" y="-986.2" font-family="DejaVu Sans Mono" font-size="14.00">KEY</text>
</g>
<!-- 1 -->
<g id="node1" class="node">
<title>1</title>
<polygon fill="#fffb81" stroke="black" points="643,-1026 0,-1026 0,-883 643,-883 643,-1026"/>
<text text-anchor="start" x="8" y="-1008.7" font-family="DejaVu Sans Mono" font-size="14.00">&quot;&quot;&quot;</text>
<text text-anchor="start" x="8" y="-993.7" font-family="DejaVu Sans Mono" font-size="14.00">A simple Web server.</text>
<text text-anchor="start" x="8" y="-978.7" font-family="DejaVu Sans Mono" font-size="14.00">GET requests must name a specific file,</text>
<text text-anchor="start" x="8" y="-963.7" font-family="DejaVu Sans Mono" font-size="14.00">since it does not assume an index.html.</text>
<text text-anchor="start" x="8" y="-948.7" font-family="DejaVu Sans Mono" font-size="14.00">&quot;&quot;&quot;</text>
<text text-anchor="start" x="8" y="-933.7" font-family="DejaVu Sans Mono" font-size="14.00">import socket</text>
<text text-anchor="start" x="8" y="-918.7" font-family="DejaVu Sans Mono" font-size="14.00">import threading</text>
<text text-anchor="start" x="8" y="-903.7" font-family="DejaVu Sans Mono" font-size="14.00">def handler(conn_socket: socket.socket, address: tuple[str, int]) &#45;&gt;None:...</text>
<text text-anchor="middle" x="321.5" y="-888.7" font-family="DejaVu Sans Mono" font-size="14.00">def main() &#45;&gt;None:...</text>
</g>
<!-- 49 -->
<g id="node2" class="node">
<title>49</title>
<polygon fill="#ff6752" stroke="black" points="321.5,-787 109.63,-769 321.5,-751 533.37,-769 321.5,-787"/>
<text text-anchor="middle" x="321.5" y="-763.2" font-family="DejaVu Sans Mono" font-size="14.00">if __name__ == &#39;__main__&#39;:</text>
</g>
<!-- 1&#45;&gt;49 -->
<g id="edge3" class="edge">
<title>1&#45;&gt;49</title>
<path fill="none" stroke="black" d="M321.5,-882.55C321.5,-853.28 321.5,-821.03 321.5,-798.58"/>
<polygon fill="black" stroke="black" points="325,-798.71 321.5,-788.71 318,-798.71 325,-798.71"/>
</g>
<!-- 50 -->
<g id="node3" class="node">
<title>50</title>
<polygon fill="#fffb81" stroke="black" points="354.25,-647 288.75,-647 288.75,-611 354.25,-611 354.25,-647"/>
<text text-anchor="middle" x="321.5" y="-623.2" font-family="DejaVu Sans Mono" font-size="14.00">main()</text>
</g>
<!-- 49&#45;&gt;50 -->
<g id="edge2" class="edge">
<title>49&#45;&gt;50</title>
<path fill="none" stroke="green" d="M321.5,-750.52C321.5,-727.4 321.5,-686.34 321.5,-658.65"/>
<polygon fill="green" stroke="green" points="325,-658.85 321.5,-648.85 318,-658.85 325,-658.85"/>
<text text-anchor="middle" x="412.25" y="-664.7" font-family="DejaVu Sans Mono" font-size="14.00">__name__ == &#39;__main__&#39;</text>
</g>
<!-- 52 -->
<g id="node4" class="node">
<title>52</title>
<polygon fill="#e552ff" stroke="#e552ff" points="348.5,-541 306.5,-541 306.5,-545 294.5,-545 294.5,-505 348.5,-505 348.5,-541"/>
<polyline fill="none" stroke="#e552ff" points="294.5,-541 306.5,-541"/>
<text text-anchor="middle" x="321.5" y="-517.2" font-family="DejaVu Sans Mono" font-size="14.00">main</text>
</g>
<!-- 50&#45;&gt;52 -->
<g id="edge1" class="edge">
<title>50&#45;&gt;52</title>
<path fill="none" stroke="black" stroke-dasharray="5,2" d="M321.5,-610.83C321.5,-595.02 321.5,-571.27 321.5,-552.6"/>
<polygon fill="black" stroke="black" points="325,-552.71 321.5,-542.71 318,-552.71 325,-552.71"/>
<text text-anchor="middle" x="342.12" y="-581.7" font-family="DejaVu Sans Mono" font-size="14.00">calls</text>
</g>
<!-- 3 -->
<g id="node5" class="node">
<title>3</title>
<polygon fill="#fffb81" stroke="black" points="1777.12,-988.5 1191.88,-988.5 1191.88,-920.5 1777.12,-920.5 1777.12,-988.5"/>
<text text-anchor="start" x="1199.88" y="-971.2" font-family="DejaVu Sans Mono" font-size="14.00">&quot;&quot;&quot;</text>
<text text-anchor="start" x="1199.88" y="-956.2" font-family="DejaVu Sans Mono" font-size="14.00"> &#160;&#160;&#160;Handles the part of the client work&#45;flow that is client&#45;dependent,</text>
<text text-anchor="start" x="1199.88" y="-941.2" font-family="DejaVu Sans Mono" font-size="14.00"> &#160;&#160;&#160;and thus may be delayed by the user, blocking program flow.</text>
<text text-anchor="middle" x="1484.5" y="-926.2" font-family="DejaVu Sans Mono" font-size="14.00"> &#160;&#160;&#160;&quot;&quot;&quot;</text>
</g>
<!-- 4 -->
<g id="node6" class="node">
<title>4</title>
<polygon fill="orange" stroke="black" points="1484.5,-852 1122,-769 1484.5,-686 1847,-769 1484.5,-852"/>
<polyline fill="none" stroke="black" points="1133.7,-771.68 1133.7,-766.32"/>
<polyline fill="none" stroke="black" points="1472.8,-688.68 1496.2,-688.68"/>
<polyline fill="none" stroke="black" points="1835.3,-766.32 1835.3,-771.68"/>
<polyline fill="none" stroke="black" points="1496.2,-849.32 1472.8,-849.32"/>
<text text-anchor="middle" x="1484.5" y="-793.2" font-family="DejaVu Sans Mono" font-size="14.00">request = conn_socket.recv(1024).decode()</text>
<text text-anchor="middle" x="1484.5" y="-778.2" font-family="DejaVu Sans Mono" font-size="14.00">print(f&quot;&quot;&quot;Received request from {address}:</text>
<text text-anchor="middle" x="1484.5" y="-763.2" font-family="DejaVu Sans Mono" font-size="14.00">{request}&quot;&quot;&quot;)</text>
<text text-anchor="middle" x="1484.5" y="-748.2" font-family="DejaVu Sans Mono" font-size="14.00">request_line = request.splitlines()[0]</text>
<text text-anchor="middle" x="1484.5" y="-733.2" font-family="DejaVu Sans Mono" font-size="14.00">filename = request_line.split()[1]</text>
</g>
<!-- 3&#45;&gt;4 -->
<g id="edge25" class="edge">
<title>3&#45;&gt;4</title>
<path fill="none" stroke="black" d="M1484.5,-920.27C1484.5,-904.15 1484.5,-883.89 1484.5,-863.51"/>
<polygon fill="black" stroke="black" points="1488,-863.72 1484.5,-853.72 1481,-863.72 1488,-863.72"/>
</g>
<!-- 11 -->
<g id="node14" class="node">
<title>11</title>
<polygon fill="#e552ff" stroke="#e552ff" points="1587.38,-647 1393.62,-647 1393.62,-651 1381.62,-651 1381.62,-611 1587.38,-611 1587.38,-647"/>
<polyline fill="none" stroke="#e552ff" points="1381.62,-647 1393.62,-647"/>
<text text-anchor="middle" x="1484.5" y="-623.2" font-family="DejaVu Sans Mono" font-size="14.00">conn_socket.recv.decode</text>
</g>
<!-- 4&#45;&gt;11 -->
<g id="edge10" class="edge">
<title>4&#45;&gt;11</title>
<path fill="none" stroke="black" stroke-dasharray="5,2" d="M1484.5,-685.73C1484.5,-676.07 1484.5,-666.77 1484.5,-658.63"/>
<polygon fill="black" stroke="black" points="1488,-658.78 1484.5,-648.78 1481,-658.78 1488,-658.78"/>
<text text-anchor="middle" x="1505.12" y="-664.7" font-family="DejaVu Sans Mono" font-size="14.00">calls</text>
</g>
<!-- 12 -->
<g id="node15" class="node">
<title>12</title>
<polygon fill="#e552ff" stroke="#e552ff" points="1663.12,-647 1617.88,-647 1617.88,-651 1605.88,-651 1605.88,-611 1663.12,-611 1663.12,-647"/>
<polyline fill="none" stroke="#e552ff" points="1605.88,-647 1617.88,-647"/>
<text text-anchor="middle" x="1634.5" y="-623.2" font-family="DejaVu Sans Mono" font-size="14.00">print</text>
</g>
<!-- 4&#45;&gt;12 -->
<g id="edge11" class="edge">
<title>4&#45;&gt;12</title>
<path fill="none" stroke="black" stroke-dasharray="5,2" d="M1555.99,-702.23C1574.23,-685.45 1592.76,-668.4 1607.23,-655.09"/>
<polygon fill="black" stroke="black" points="1609.57,-657.69 1614.56,-648.35 1604.83,-652.54 1609.57,-657.69"/>
<text text-anchor="middle" x="1618.12" y="-664.7" font-family="DejaVu Sans Mono" font-size="14.00">calls</text>
</g>
<!-- 13 -->
<g id="node16" class="node">
<title>13</title>
<polygon fill="#e552ff" stroke="#e552ff" points="1180.75,-647 1028.25,-647 1028.25,-651 1016.25,-651 1016.25,-611 1180.75,-611 1180.75,-647"/>
<polyline fill="none" stroke="#e552ff" points="1016.25,-647 1028.25,-647"/>
<text text-anchor="middle" x="1098.5" y="-623.2" font-family="DejaVu Sans Mono" font-size="14.00">request.splitlines</text>
</g>
<!-- 4&#45;&gt;13 -->
<g id="edge12" class="edge">
<title>4&#45;&gt;13</title>
<path fill="none" stroke="black" stroke-dasharray="5,2" d="M1344.05,-717.79C1279.92,-694.86 1207.42,-668.94 1157.92,-651.24"/>
<polygon fill="black" stroke="black" points="1159.11,-647.95 1148.52,-647.88 1156.76,-654.54 1159.11,-647.95"/>
<text text-anchor="middle" x="1243.12" y="-664.7" font-family="DejaVu Sans Mono" font-size="14.00">calls</text>
</g>
<!-- 14 -->
<g id="node17" class="node">
<title>14</title>
<polygon fill="#e552ff" stroke="#e552ff" points="1363.75,-647 1211.25,-647 1211.25,-651 1199.25,-651 1199.25,-611 1363.75,-611 1363.75,-647"/>
<polyline fill="none" stroke="#e552ff" points="1199.25,-647 1211.25,-647"/>
<text text-anchor="middle" x="1281.5" y="-623.2" font-family="DejaVu Sans Mono" font-size="14.00">request_line.split</text>
</g>
<!-- 4&#45;&gt;14 -->
<g id="edge13" class="edge">
<title>4&#45;&gt;14</title>
<path fill="none" stroke="black" stroke-dasharray="5,2" d="M1393.98,-706.47C1366.48,-687.77 1337.88,-668.33 1316.41,-653.73"/>
<polygon fill="black" stroke="black" points="1318.56,-650.96 1308.32,-648.23 1314.62,-656.75 1318.56,-650.96"/>
<text text-anchor="middle" x="1367.12" y="-664.7" font-family="DejaVu Sans Mono" font-size="14.00">calls</text>
</g>
<!-- 15 -->
<g id="node18" class="node">
<title>15</title>
<polygon fill="#ff6752" stroke="black" points="1832.5,-647 1681.3,-629 1832.5,-611 1983.7,-629 1832.5,-647"/>
<text text-anchor="middle" x="1832.5" y="-623.2" font-family="DejaVu Sans Mono" font-size="14.00">if filename == &#39;/&#39;:</text>
</g>
<!-- 4&#45;&gt;15 -->
<g id="edge24" class="edge">
<title>4&#45;&gt;15</title>
<path fill="none" stroke="black" d="M1616.06,-715.83C1676.93,-691.69 1745.16,-664.63 1788.45,-647.47"/>
<polygon fill="black" stroke="black" points="1789.49,-650.82 1797.5,-643.88 1786.91,-644.31 1789.49,-650.82"/>
</g>
<!-- 6 -->
<g id="node7" class="node">
<title>6</title>
<polygon fill="#fffb81" stroke="black" points="1600.88,-382 1032.12,-382 1032.12,-266 1600.88,-266 1600.88,-382"/>
<text text-anchor="end" x="1592.88" y="-364.7" font-family="DejaVu Sans Mono" font-size="14.00">response_header = &#39;HTTP/1.1 404 Not Found</text>
<text text-anchor="start" x="1040.12" y="-301.7" font-family="DejaVu Sans Mono" font-size="14.00">&#39;</text>
<text text-anchor="start" x="1040.12" y="-286.7" font-family="DejaVu Sans Mono" font-size="14.00">response_body = b&#39;&lt;html&gt;&lt;body&gt;&lt;h1&gt;404 Not Found&lt;/h1&gt;&lt;/body&gt;&lt;/html&gt;&#39;</text>
<text text-anchor="middle" x="1316.5" y="-271.7" font-family="DejaVu Sans Mono" font-size="14.00">conn_socket.sendall(response_header.encode() + response_body)</text>
</g>
<!-- 7 -->
<g id="node8" class="node">
<title>7</title>
<polygon fill="#e552ff" stroke="#e552ff" points="1249.88,-166 1089.12,-166 1089.12,-170 1077.12,-170 1077.12,-130 1249.88,-130 1249.88,-166"/>
<polyline fill="none" stroke="#e552ff" points="1077.12,-166 1089.12,-166"/>
<text text-anchor="middle" x="1163.5" y="-142.2" font-family="DejaVu Sans Mono" font-size="14.00">conn_socket.sendall</text>
</g>
<!-- 6&#45;&gt;7 -->
<g id="edge4" class="edge">
<title>6&#45;&gt;7</title>
<path fill="none" stroke="black" stroke-dasharray="5,2" d="M1265.98,-265.54C1238.96,-234.82 1207.05,-198.52 1186.1,-174.7"/>
<polygon fill="black" stroke="black" points="1188.87,-172.55 1179.64,-167.35 1183.61,-177.17 1188.87,-172.55"/>
<text text-anchor="middle" x="1225.12" y="-183.7" font-family="DejaVu Sans Mono" font-size="14.00">calls</text>
</g>
<!-- 5 -->
<g id="node10" class="node">
<title>5</title>
<polygon fill="#fffb81" stroke="black" points="1445.88,-166 1273.12,-166 1273.12,-130 1445.88,-130 1445.88,-166"/>
<text text-anchor="middle" x="1359.5" y="-142.2" font-family="DejaVu Sans Mono" font-size="14.00">conn_socket.close()</text>
</g>
<!-- 6&#45;&gt;5 -->
<g id="edge7" class="edge">
<title>6&#45;&gt;5</title>
<path fill="none" stroke="black" d="M1330.7,-265.54C1338.02,-235.9 1346.63,-201.08 1352.52,-177.26"/>
<polygon fill="black" stroke="black" points="1355.88,-178.23 1354.88,-167.68 1349.09,-176.55 1355.88,-178.23"/>
</g>
<!-- 8 -->
<g id="node9" class="node">
<title>8</title>
<polygon fill="#e552ff" stroke="#e552ff" points="1257.25,-83 1071.75,-83 1071.75,-87 1059.75,-87 1059.75,-47 1257.25,-47 1257.25,-83"/>
<polyline fill="none" stroke="#e552ff" points="1059.75,-83 1071.75,-83"/>
<text text-anchor="middle" x="1158.5" y="-59.2" font-family="DejaVu Sans Mono" font-size="14.00">response_header.encode</text>
</g>
<!-- 7&#45;&gt;8 -->
<g id="edge5" class="edge">
<title>7&#45;&gt;8</title>
<path fill="none" stroke="black" d="M1162.44,-129.82C1161.81,-119.69 1161.01,-106.6 1160.29,-94.92"/>
<polygon fill="black" stroke="black" points="1163.78,-94.71 1159.67,-84.94 1156.79,-95.14 1163.78,-94.71"/>
</g>
<!-- 24 -->
<g id="node11" class="node">
<title>24</title>
<polygon fill="#e552ff" stroke="#e552ff" points="1437.62,-83 1293.38,-83 1293.38,-87 1281.38,-87 1281.38,-47 1437.62,-47 1437.62,-83"/>
<polyline fill="none" stroke="#e552ff" points="1281.38,-83 1293.38,-83"/>
<text text-anchor="middle" x="1359.5" y="-59.2" font-family="DejaVu Sans Mono" font-size="14.00">conn_socket.close</text>
</g>
<!-- 5&#45;&gt;24 -->
<g id="edge6" class="edge">
<title>5&#45;&gt;24</title>
<path fill="none" stroke="black" stroke-dasharray="5,2" d="M1359.5,-129.82C1359.5,-119.69 1359.5,-106.6 1359.5,-94.92"/>
<polygon fill="black" stroke="black" points="1363,-94.95 1359.5,-84.95 1356,-94.95 1363,-94.95"/>
<text text-anchor="middle" x="1380.12" y="-100.7" font-family="DejaVu Sans Mono" font-size="14.00">calls</text>
</g>
<!-- 9 -->
<g id="node12" class="node">
<title>9</title>
<polygon fill="#fffb81" stroke="black" points="1013.62,-342 659.38,-342 659.38,-306 1013.62,-306 1013.62,-342"/>
<text text-anchor="middle" x="836.5" y="-318.2" font-family="DejaVu Sans Mono" font-size="14.00">print(f&#39;Bad request from {address}: {e}&#39;)</text>
</g>
<!-- 9&#45;&gt;5 -->
<g id="edge9" class="edge">
<title>9&#45;&gt;5</title>
<path fill="none" stroke="black" d="M857.35,-305.57C890.32,-279.06 957.53,-229.14 1023.5,-205 1093.04,-179.56 1114.98,-190.75 1188.5,-182 1224.42,-177.72 1233.94,-180.64 1269.5,-174 1276.59,-172.67 1283.94,-171.06 1291.23,-169.28"/>
<polygon fill="black" stroke="black" points="1291.93,-172.72 1300.76,-166.87 1290.21,-165.93 1291.93,-172.72"/>
</g>
<!-- 10 -->
<g id="node13" class="node">
<title>10</title>
<polygon fill="#e552ff" stroke="#e552ff" points="865.12,-166 819.88,-166 819.88,-170 807.88,-170 807.88,-130 865.12,-130 865.12,-166"/>
<polyline fill="none" stroke="#e552ff" points="807.88,-166 819.88,-166"/>
<text text-anchor="middle" x="836.5" y="-142.2" font-family="DejaVu Sans Mono" font-size="14.00">print</text>
</g>
<!-- 9&#45;&gt;10 -->
<g id="edge8" class="edge">
<title>9&#45;&gt;10</title>
<path fill="none" stroke="black" stroke-dasharray="5,2" d="M836.5,-305.68C836.5,-275.72 836.5,-213.92 836.5,-177.53"/>
<polygon fill="black" stroke="black" points="840,-177.76 836.5,-167.76 833,-177.76 840,-177.76"/>
<text text-anchor="middle" x="857.12" y="-183.7" font-family="DejaVu Sans Mono" font-size="14.00">calls</text>
</g>
<!-- 16 -->
<g id="node19" class="node">
<title>16</title>
<polygon fill="#fffb81" stroke="black" points="1862.38,-541 1656.62,-541 1656.62,-505 1862.38,-505 1862.38,-541"/>
<text text-anchor="middle" x="1759.5" y="-517.2" font-family="DejaVu Sans Mono" font-size="14.00">filename = &#39;/index.html&#39;</text>
</g>
<!-- 15&#45;&gt;16 -->
<g id="edge22" class="edge">
<title>15&#45;&gt;16</title>
<path fill="none" stroke="green" d="M1800.98,-614.44C1792.45,-609.43 1783.95,-602.98 1778,-595 1768.84,-582.71 1764.2,-566.29 1761.86,-552.34"/>
<polygon fill="green" stroke="green" points="1765.39,-552.29 1760.59,-542.84 1758.45,-553.22 1765.39,-552.29"/>
<text text-anchor="middle" x="1835.25" y="-581.7" font-family="DejaVu Sans Mono" font-size="14.00">filename == &#39;/&#39;</text>
</g>
<!-- 17 -->
<g id="node20" class="node">
<title>17</title>
<polygon fill="#fffb81" stroke="black" points="2105.62,-443 1619.38,-443 1619.38,-205 2105.62,-205 2105.62,-443"/>
<text text-anchor="start" x="1627.38" y="-425.7" font-family="DejaVu Sans Mono" font-size="14.00">file_path = &#39;.&#39; + filename</text>
<text text-anchor="start" x="1627.38" y="-410.7" font-family="DejaVu Sans Mono" font-size="14.00">response_body = f.read()</text>
<text text-anchor="end" x="2097.62" y="-395.7" font-family="DejaVu Sans Mono" font-size="14.00">response_header = &#39;HTTP/1.1 200 OK</text>
<text text-anchor="start" x="1627.38" y="-364.7" font-family="DejaVu Sans Mono" font-size="14.00">&#39;</text>
<text text-anchor="end" x="2097.62" y="-349.7" font-family="DejaVu Sans Mono" font-size="14.00">response_header += &#39;Content&#45;Type: text/html</text>
<text text-anchor="start" x="1627.38" y="-318.7" font-family="DejaVu Sans Mono" font-size="14.00">&#39;</text>
<text text-anchor="end" x="2097.62" y="-303.7" font-family="DejaVu Sans Mono" font-size="14.00">response_header += f&#39;Content&#45;Length: {len(response_body)}</text>
<text text-anchor="start" x="1627.38" y="-240.7" font-family="DejaVu Sans Mono" font-size="14.00">&#39;</text>
<text text-anchor="start" x="1627.38" y="-225.7" font-family="DejaVu Sans Mono" font-size="14.00">conn_socket.sendall(response_header.encode())</text>
<text text-anchor="middle" x="1862.5" y="-210.7" font-family="DejaVu Sans Mono" font-size="14.00">conn_socket.sendall(response_body)</text>
</g>
<!-- 15&#45;&gt;17 -->
<g id="edge23" class="edge">
<title>15&#45;&gt;17</title>
<path fill="none" stroke="red" d="M1871.09,-615.09C1879.97,-610.23 1888.32,-603.69 1893.5,-595 1918.32,-553.35 1918.22,-501.63 1909.21,-454.64"/>
<polygon fill="red" stroke="red" points="1912.65,-454 1907.18,-444.92 1905.79,-455.42 1912.65,-454"/>
<text text-anchor="middle" x="1980.5" y="-517.2" font-family="DejaVu Sans Mono" font-size="14.00">(filename != &#39;/&#39;)</text>
</g>
<!-- 16&#45;&gt;17 -->
<g id="edge21" class="edge">
<title>16&#45;&gt;17</title>
<path fill="none" stroke="black" d="M1768.64,-504.52C1775.24,-491.89 1784.82,-473.57 1795.37,-453.4"/>
<polygon fill="black" stroke="black" points="1798.38,-455.2 1799.91,-444.71 1792.17,-451.95 1798.38,-455.2"/>
</g>
<!-- 17&#45;&gt;5 -->
<g id="edge20" class="edge">
<title>17&#45;&gt;5</title>
<path fill="none" stroke="black" d="M1619.17,-208.37C1615.94,-207.22 1612.71,-206.09 1609.5,-205 1601.69,-202.34 1518.83,-183.92 1450.62,-168.93"/>
<polygon fill="black" stroke="black" points="1451.37,-165.51 1440.85,-166.78 1449.87,-172.35 1451.37,-165.51"/>
</g>
<!-- 18 -->
<g id="node21" class="node">
<title>18</title>
<polygon fill="#e552ff" stroke="#e552ff" points="1560.5,-166 1518.5,-166 1518.5,-170 1506.5,-170 1506.5,-130 1560.5,-130 1560.5,-166"/>
<polyline fill="none" stroke="#e552ff" points="1506.5,-166 1518.5,-166"/>
<text text-anchor="middle" x="1533.5" y="-142.2" font-family="DejaVu Sans Mono" font-size="14.00">open</text>
</g>
<!-- 17&#45;&gt;18 -->
<g id="edge14" class="edge">
<title>17&#45;&gt;18</title>
<path fill="none" stroke="black" stroke-dasharray="5,2" d="M1625.66,-204.54C1620.81,-202.02 1616,-199.5 1611.25,-197 1592.5,-187.14 1587.5,-185.17 1569.5,-174 1568.65,-173.47 1567.8,-172.94 1566.93,-172.39"/>
<polygon fill="black" stroke="black" points="1569.21,-169.7 1558.94,-167.12 1565.36,-175.55 1569.21,-169.7"/>
<text text-anchor="middle" x="1631.12" y="-183.7" font-family="DejaVu Sans Mono" font-size="14.00">calls</text>
</g>
<!-- 19 -->
<g id="node22" class="node">
<title>19</title>
<polygon fill="#e552ff" stroke="#e552ff" points="1644.25,-166 1590.75,-166 1590.75,-170 1578.75,-170 1578.75,-130 1644.25,-130 1644.25,-166"/>
<polyline fill="none" stroke="#e552ff" points="1578.75,-166 1590.75,-166"/>
<text text-anchor="middle" x="1611.5" y="-142.2" font-family="DejaVu Sans Mono" font-size="14.00">f.read</text>
</g>
<!-- 17&#45;&gt;19 -->
<g id="edge15" class="edge">
<title>17&#45;&gt;19</title>
<path fill="none" stroke="black" stroke-dasharray="5,2" d="M1688.34,-204.79C1684.61,-202.18 1680.91,-199.58 1677.25,-197 1666.37,-189.33 1654.6,-180.81 1644.06,-173.1"/>
<polygon fill="black" stroke="black" points="1646.15,-170.29 1636.01,-167.19 1642,-175.93 1646.15,-170.29"/>
<text text-anchor="middle" x="1697.12" y="-183.7" font-family="DejaVu Sans Mono" font-size="14.00">calls</text>
</g>
<!-- 20 -->
<g id="node23" class="node">
<title>20</title>
<polygon fill="#e552ff" stroke="#e552ff" points="1716.5,-166 1674.5,-166 1674.5,-170 1662.5,-170 1662.5,-130 1716.5,-130 1716.5,-166"/>
<polyline fill="none" stroke="#e552ff" points="1662.5,-166 1674.5,-166"/>
<text text-anchor="middle" x="1689.5" y="-142.2" font-family="DejaVu Sans Mono" font-size="14.00">len</text>
</g>
<!-- 17&#45;&gt;20 -->
<g id="edge16" class="edge">
<title>17&#45;&gt;20</title>
<path fill="none" stroke="black" stroke-dasharray="5,2" d="M1744.71,-204.53C1733.59,-193.34 1723.26,-182.95 1714.61,-174.26"/>
<polygon fill="black" stroke="black" points="1717.17,-171.86 1707.63,-167.24 1712.2,-176.8 1717.17,-171.86"/>
<text text-anchor="middle" x="1756.12" y="-183.7" font-family="DejaVu Sans Mono" font-size="14.00">calls</text>
</g>
<!-- 21 -->
<g id="node24" class="node">
<title>21</title>
<polygon fill="#e552ff" stroke="#e552ff" points="1906.88,-166 1746.12,-166 1746.12,-170 1734.12,-170 1734.12,-130 1906.88,-130 1906.88,-166"/>
<polyline fill="none" stroke="#e552ff" points="1734.12,-166 1746.12,-166"/>
<text text-anchor="middle" x="1820.5" y="-142.2" font-family="DejaVu Sans Mono" font-size="14.00">conn_socket.sendall</text>
</g>
<!-- 17&#45;&gt;21 -->
<g id="edge17" class="edge">
<title>17&#45;&gt;21</title>
<path fill="none" stroke="black" stroke-dasharray="5,2" d="M1833.9,-204.53C1831.51,-194.62 1829.27,-185.34 1827.33,-177.31"/>
<polygon fill="black" stroke="black" points="1830.75,-176.54 1825,-167.64 1823.94,-178.18 1830.75,-176.54"/>
<text text-anchor="middle" x="1852.12" y="-183.7" font-family="DejaVu Sans Mono" font-size="14.00">calls</text>
</g>
<!-- 23 -->
<g id="node25" class="node">
<title>23</title>
<polygon fill="#e552ff" stroke="#e552ff" points="2097.88,-166 1937.12,-166 1937.12,-170 1925.12,-170 1925.12,-130 2097.88,-130 2097.88,-166"/>
<polyline fill="none" stroke="#e552ff" points="1925.12,-166 1937.12,-166"/>
<text text-anchor="middle" x="2011.5" y="-142.2" font-family="DejaVu Sans Mono" font-size="14.00">conn_socket.sendall</text>
</g>
<!-- 17&#45;&gt;23 -->
<g id="edge18" class="edge">
<title>17&#45;&gt;23</title>
<path fill="none" stroke="black" stroke-dasharray="5,2" d="M1963.95,-204.53C1973.33,-193.57 1982.06,-183.38 1989.4,-174.8"/>
<polygon fill="black" stroke="black" points="1991.97,-177.19 1995.82,-167.31 1986.65,-172.63 1991.97,-177.19"/>
<text text-anchor="middle" x="2003.12" y="-183.7" font-family="DejaVu Sans Mono" font-size="14.00">calls</text>
</g>
<!-- 22 -->
<g id="node26" class="node">
<title>22</title>
<polygon fill="#e552ff" stroke="#e552ff" points="1919.25,-83 1733.75,-83 1733.75,-87 1721.75,-87 1721.75,-47 1919.25,-47 1919.25,-83"/>
<polyline fill="none" stroke="#e552ff" points="1721.75,-83 1733.75,-83"/>
<text text-anchor="middle" x="1820.5" y="-59.2" font-family="DejaVu Sans Mono" font-size="14.00">response_header.encode</text>
</g>
<!-- 21&#45;&gt;22 -->
<g id="edge19" class="edge">
<title>21&#45;&gt;22</title>
<path fill="none" stroke="black" d="M1820.5,-129.82C1820.5,-119.69 1820.5,-106.6 1820.5,-94.92"/>
<polygon fill="black" stroke="black" points="1824,-94.95 1820.5,-84.95 1817,-94.95 1824,-94.95"/>
</g>
<!-- 28 -->
<g id="node27" class="node">
<title>28</title>
<polygon fill="#fffb81" stroke="black" points="2799.12,-1003.5 2147.88,-1003.5 2147.88,-905.5 2799.12,-905.5 2799.12,-1003.5"/>
<text text-anchor="start" x="2155.88" y="-986.2" font-family="DejaVu Sans Mono" font-size="14.00">server_socket = socket.socket(family=socket.AF_INET, type=socket.SOCK_STREAM)</text>
<text text-anchor="start" x="2155.88" y="-971.2" font-family="DejaVu Sans Mono" font-size="14.00">server_port = 6789</text>
<text text-anchor="start" x="2155.88" y="-956.2" font-family="DejaVu Sans Mono" font-size="14.00">server_socket.bind((&#39;localhost&#39;, server_port))</text>
<text text-anchor="start" x="2155.88" y="-941.2" font-family="DejaVu Sans Mono" font-size="14.00">server_socket.listen(2)</text>
<text text-anchor="start" x="2155.88" y="-926.2" font-family="DejaVu Sans Mono" font-size="14.00">print(f&#39;Server started on port {server_port}, listening for connections...&#39;)</text>
<text text-anchor="middle" x="2473.5" y="-911.2" font-family="DejaVu Sans Mono" font-size="14.00">threads = []</text>
</g>
<!-- 29 -->
<g id="node28" class="node">
<title>29</title>
<polygon fill="#e552ff" stroke="#e552ff" points="2535.12,-787 2423.88,-787 2423.88,-791 2411.88,-791 2411.88,-751 2535.12,-751 2535.12,-787"/>
<polyline fill="none" stroke="#e552ff" points="2411.88,-787 2423.88,-787"/>
<text text-anchor="middle" x="2473.5" y="-763.2" font-family="DejaVu Sans Mono" font-size="14.00">socket.socket</text>
</g>
<!-- 28&#45;&gt;29 -->
<g id="edge26" class="edge">
<title>28&#45;&gt;29</title>
<path fill="none" stroke="black" stroke-dasharray="5,2" d="M2473.5,-905.29C2473.5,-871.28 2473.5,-826.89 2473.5,-798.4"/>
<polygon fill="black" stroke="black" points="2477,-798.76 2473.5,-788.76 2470,-798.76 2477,-798.76"/>
<text text-anchor="middle" x="2494.12" y="-861.7" font-family="DejaVu Sans Mono" font-size="14.00">calls</text>
</g>
<!-- 30 -->
<g id="node29" class="node">
<title>30</title>
<polygon fill="#e552ff" stroke="#e552ff" points="2717.75,-787 2565.25,-787 2565.25,-791 2553.25,-791 2553.25,-751 2717.75,-751 2717.75,-787"/>
<polyline fill="none" stroke="#e552ff" points="2553.25,-787 2565.25,-787"/>
<text text-anchor="middle" x="2635.5" y="-763.2" font-family="DejaVu Sans Mono" font-size="14.00">server_socket.bind</text>
</g>
<!-- 28&#45;&gt;30 -->
<g id="edge27" class="edge">
<title>28&#45;&gt;30</title>
<path fill="none" stroke="black" stroke-dasharray="5,2" d="M2516.06,-905.29C2547.02,-870.22 2587.74,-824.1 2612.74,-795.78"/>
<polygon fill="black" stroke="black" points="2615.28,-798.2 2619.27,-788.38 2610.03,-793.56 2615.28,-798.2"/>
<text text-anchor="middle" x="2575.12" y="-861.7" font-family="DejaVu Sans Mono" font-size="14.00">calls</text>
</g>
<!-- 31 -->
<g id="node30" class="node">
<title>31</title>
<polygon fill="#e552ff" stroke="#e552ff" points="2319,-787 2150,-787 2150,-791 2138,-791 2138,-751 2319,-751 2319,-787"/>
<polyline fill="none" stroke="#e552ff" points="2138,-787 2150,-787"/>
<text text-anchor="middle" x="2228.5" y="-763.2" font-family="DejaVu Sans Mono" font-size="14.00">server_socket.listen</text>
</g>
<!-- 28&#45;&gt;31 -->
<g id="edge28" class="edge">
<title>28&#45;&gt;31</title>
<path fill="none" stroke="black" stroke-dasharray="5,2" d="M2401.35,-905.12C2377.53,-888.68 2351.1,-869.93 2327.5,-852 2303.26,-833.59 2276.75,-811.52 2257.26,-794.91"/>
<polygon fill="black" stroke="black" points="2259.59,-792.3 2249.72,-788.46 2255.04,-797.62 2259.59,-792.3"/>
<text text-anchor="middle" x="2375.12" y="-861.7" font-family="DejaVu Sans Mono" font-size="14.00">calls</text>
</g>
<!-- 32 -->
<g id="node31" class="node">
<title>32</title>
<polygon fill="#e552ff" stroke="#e552ff" points="2394.12,-787 2348.88,-787 2348.88,-791 2336.88,-791 2336.88,-751 2394.12,-751 2394.12,-787"/>
<polyline fill="none" stroke="#e552ff" points="2336.88,-787 2348.88,-787"/>
<text text-anchor="middle" x="2365.5" y="-763.2" font-family="DejaVu Sans Mono" font-size="14.00">print</text>
</g>
<!-- 28&#45;&gt;32 -->
<g id="edge29" class="edge">
<title>28&#45;&gt;32</title>
<path fill="none" stroke="black" stroke-dasharray="5,2" d="M2436.93,-905.14C2425.24,-888.7 2412.71,-869.95 2402.5,-852 2392.59,-834.57 2383.31,-814 2376.53,-797.83"/>
<polygon fill="black" stroke="black" points="2379.87,-796.74 2372.83,-788.82 2373.39,-799.4 2379.87,-796.74"/>
<text text-anchor="middle" x="2435.12" y="-861.7" font-family="DejaVu Sans Mono" font-size="14.00">calls</text>
</g>
<!-- 33 -->
<g id="node32" class="node">
<title>33</title>
<polygon fill="orange" stroke="black" points="2780.5,-787 2735.46,-769 2780.5,-751 2825.54,-769 2780.5,-787"/>
<polyline fill="none" stroke="black" points="2746.6,-773.45 2746.6,-764.55"/>
<polyline fill="none" stroke="black" points="2769.36,-755.45 2791.64,-755.45"/>
<polyline fill="none" stroke="black" points="2814.4,-764.55 2814.4,-773.45"/>
<polyline fill="none" stroke="black" points="2791.64,-782.55 2769.36,-782.55"/>
<text text-anchor="middle" x="2780.5" y="-763.2" font-family="DejaVu Sans Mono" font-size="14.00">try:</text>
</g>
<!-- 28&#45;&gt;33 -->
<g id="edge43" class="edge">
<title>28&#45;&gt;33</title>
<path fill="none" stroke="black" d="M2640.87,-905.04C2672.38,-891.14 2703.54,-873.69 2729.5,-852 2747.72,-836.78 2761.39,-813.31 2769.97,-795.37"/>
<polygon fill="black" stroke="black" points="2773.08,-796.97 2774.02,-786.42 2766.71,-794.08 2773.08,-796.97"/>
</g>
<!-- 38 -->
<g id="node38" class="node">
<title>38</title>
<polygon fill="#ffbe52" stroke="black" points="2852.61,-629 2812.56,-647 2732.44,-647 2692.39,-629 2732.44,-611 2812.56,-611 2852.61,-629"/>
<text text-anchor="middle" x="2772.5" y="-623.2" font-family="DejaVu Sans Mono" font-size="14.00">while True:</text>
</g>
<!-- 33&#45;&gt;38 -->
<g id="edge42" class="edge">
<title>33&#45;&gt;38</title>
<path fill="none" stroke="black" d="M2779.52,-751.08C2778.19,-728.13 2775.79,-686.81 2774.18,-658.9"/>
<polygon fill="black" stroke="black" points="2777.67,-658.79 2773.6,-649.01 2770.69,-659.19 2777.67,-658.79"/>
</g>
<!-- 35 -->
<g id="node33" class="node">
<title>35</title>
<polygon fill="#fffb81" stroke="black" points="2615.62,-648 2129.38,-648 2129.38,-610 2615.62,-610 2615.62,-648"/>
<text text-anchor="start" x="2137.38" y="-630.7" font-family="DejaVu Sans Mono" font-size="14.00">print(&#39;Exception occurred (maybe you killed the server)&#39;)</text>
<text text-anchor="middle" x="2372.5" y="-615.7" font-family="DejaVu Sans Mono" font-size="14.00">print(e)</text>
</g>
<!-- 36 -->
<g id="node34" class="node">
<title>36</title>
<polygon fill="#e552ff" stroke="#e552ff" points="2215.12,-541 2169.88,-541 2169.88,-545 2157.88,-545 2157.88,-505 2215.12,-505 2215.12,-541"/>
<polyline fill="none" stroke="#e552ff" points="2157.88,-541 2169.88,-541"/>
<text text-anchor="middle" x="2186.5" y="-517.2" font-family="DejaVu Sans Mono" font-size="14.00">print</text>
</g>
<!-- 35&#45;&gt;36 -->
<g id="edge30" class="edge">
<title>35&#45;&gt;36</title>
<path fill="none" stroke="black" stroke-dasharray="5,2" d="M2289.54,-609.55C2266.06,-601.16 2241.91,-589.13 2223.5,-572 2216.57,-565.55 2209.94,-557.7 2204.25,-550.24"/>
<polygon fill="black" stroke="black" points="2207.22,-548.36 2198.5,-542.34 2201.56,-552.49 2207.22,-548.36"/>
<text text-anchor="middle" x="2275.12" y="-581.7" font-family="DejaVu Sans Mono" font-size="14.00">calls</text>
</g>
<!-- 37 -->
<g id="node35" class="node">
<title>37</title>
<polygon fill="#e552ff" stroke="#e552ff" points="2290.12,-541 2244.88,-541 2244.88,-545 2232.88,-545 2232.88,-505 2290.12,-505 2290.12,-541"/>
<polyline fill="none" stroke="#e552ff" points="2232.88,-541 2244.88,-541"/>
<text text-anchor="middle" x="2261.5" y="-517.2" font-family="DejaVu Sans Mono" font-size="14.00">print</text>
</g>
<!-- 35&#45;&gt;37 -->
<g id="edge31" class="edge">
<title>35&#45;&gt;37</title>
<path fill="none" stroke="black" stroke-dasharray="5,2" d="M2342.08,-609.73C2326.81,-599.71 2308.62,-586.41 2294.5,-572 2288.27,-565.64 2282.43,-557.99 2277.44,-550.67"/>
<polygon fill="black" stroke="black" points="2280.41,-548.82 2272.03,-542.34 2274.53,-552.63 2280.41,-548.82"/>
<text text-anchor="middle" x="2340.12" y="-581.7" font-family="DejaVu Sans Mono" font-size="14.00">calls</text>
</g>
<!-- 34 -->
<g id="node36" class="node">
<title>34</title>
<polygon fill="#fffb81" stroke="black" points="2497.12,-541 2307.88,-541 2307.88,-505 2497.12,-505 2497.12,-541"/>
<text text-anchor="middle" x="2402.5" y="-517.2" font-family="DejaVu Sans Mono" font-size="14.00">server_socket.close()</text>
</g>
<!-- 35&#45;&gt;34 -->
<g id="edge33" class="edge">
<title>35&#45;&gt;34</title>
<path fill="none" stroke="black" d="M2377.73,-609.88C2382.32,-593.96 2389.08,-570.52 2394.38,-552.16"/>
<polygon fill="black" stroke="black" points="2397.71,-553.25 2397.11,-542.67 2390.98,-551.31 2397.71,-553.25"/>
</g>
<!-- 46 -->
<g id="node37" class="node">
<title>46</title>
<polygon fill="#e552ff" stroke="#e552ff" points="2309.88,-342 2149.12,-342 2149.12,-346 2137.12,-346 2137.12,-306 2309.88,-306 2309.88,-342"/>
<polyline fill="none" stroke="#e552ff" points="2137.12,-342 2149.12,-342"/>
<text text-anchor="middle" x="2223.5" y="-318.2" font-family="DejaVu Sans Mono" font-size="14.00">server_socket.close</text>
</g>
<!-- 34&#45;&gt;46 -->
<g id="edge32" class="edge">
<title>34&#45;&gt;46</title>
<path fill="none" stroke="black" stroke-dasharray="5,2" d="M2383.61,-504.65C2366.84,-488.99 2341.89,-465.08 2321.5,-443 2293.43,-412.6 2263.34,-375.63 2244.01,-351.27"/>
<polygon fill="black" stroke="black" points="2246.8,-349.15 2237.85,-343.47 2241.3,-353.49 2246.8,-349.15"/>
<text text-anchor="middle" x="2363.12" y="-452.7" font-family="DejaVu Sans Mono" font-size="14.00">calls</text>
</g>
<!-- 38&#45;&gt;34 -->
<g id="edge41" class="edge">
<title>38&#45;&gt;34</title>
<path fill="none" stroke="red" d="M2712.85,-619.39C2658.27,-610.58 2575.71,-594.93 2506.5,-572 2485.73,-565.12 2463.61,-555.29 2445.13,-546.31"/>
<polygon fill="red" stroke="red" points="2446.86,-543.26 2436.34,-541.97 2443.75,-549.54 2446.86,-543.26"/>
<text text-anchor="middle" x="2614.38" y="-581.7" font-family="DejaVu Sans Mono" font-size="14.00">(False)</text>
</g>
<!-- 39 -->
<g id="node39" class="node">
<title>39</title>
<polygon fill="#fffb81" stroke="black" points="3059.5,-572 2515.5,-572 2515.5,-474 3059.5,-474 3059.5,-572"/>
<text text-anchor="start" x="2523.5" y="-554.7" font-family="DejaVu Sans Mono" font-size="14.00">conn_socket, client_address = server_socket.accept()</text>
<text text-anchor="start" x="2523.5" y="-539.7" font-family="DejaVu Sans Mono" font-size="14.00">print(f&#39;Connection established with {client_address}&#39;)</text>
<text text-anchor="start" x="2523.5" y="-524.7" font-family="DejaVu Sans Mono" font-size="14.00">new_thread = threading.Thread(target=handler, args=(conn_socket,</text>
<text text-anchor="start" x="2523.5" y="-509.7" font-family="DejaVu Sans Mono" font-size="14.00"> &#160;&#160;&#160;client_address))</text>
<text text-anchor="start" x="2523.5" y="-494.7" font-family="DejaVu Sans Mono" font-size="14.00">new_thread.start()</text>
<text text-anchor="middle" x="2787.5" y="-479.7" font-family="DejaVu Sans Mono" font-size="14.00">threads.append(new_thread)</text>
</g>
<!-- 38&#45;&gt;39 -->
<g id="edge40" class="edge">
<title>38&#45;&gt;39</title>
<path fill="none" stroke="green" d="M2764.76,-610.69C2762.35,-603.63 2760.37,-595.22 2761.57,-583.56"/>
<polygon fill="green" stroke="green" points="2764.98,-584.37 2763.25,-573.92 2758.09,-583.17 2764.98,-584.37"/>
<text text-anchor="middle" x="2778" y="-581.7" font-family="DejaVu Sans Mono" font-size="14.00">True</text>
</g>
<!-- 39&#45;&gt;38 -->
<g id="edge39" class="edge">
<title>39&#45;&gt;38</title>
<path fill="none" stroke="black" d="M2801.26,-572.31C2801.67,-580.02 2800.99,-587.81 2798.5,-595 2797.77,-597.12 2796.83,-599.21 2795.76,-601.24"/>
<polygon fill="black" stroke="black" points="2792.86,-599.27 2790.32,-609.55 2798.72,-603.1 2792.86,-599.27"/>
</g>
<!-- 41 -->
<g id="node40" class="node">
<title>41</title>
<polygon fill="#e552ff" stroke="#e552ff" points="2515,-342 2346,-342 2346,-346 2334,-346 2334,-306 2515,-306 2515,-342"/>
<polyline fill="none" stroke="#e552ff" points="2334,-342 2346,-342"/>
<text text-anchor="middle" x="2424.5" y="-318.2" font-family="DejaVu Sans Mono" font-size="14.00">server_socket.accept</text>
</g>
<!-- 39&#45;&gt;41 -->
<g id="edge34" class="edge">
<title>39&#45;&gt;41</title>
<path fill="none" stroke="black" stroke-dasharray="5,2" d="M2571.41,-473.65C2554.27,-465.05 2538,-454.93 2523.5,-443 2490.71,-416.04 2460.53,-377.15 2442.32,-351.49"/>
<polygon fill="black" stroke="black" points="2445.4,-349.79 2436.81,-343.59 2439.66,-353.8 2445.4,-349.79"/>
<text text-anchor="middle" x="2574.12" y="-452.7" font-family="DejaVu Sans Mono" font-size="14.00">calls</text>
</g>
<!-- 42 -->
<g id="node41" class="node">
<title>42</title>
<polygon fill="#e552ff" stroke="#e552ff" points="2590.12,-342 2544.88,-342 2544.88,-346 2532.88,-346 2532.88,-306 2590.12,-306 2590.12,-342"/>
<polyline fill="none" stroke="#e552ff" points="2532.88,-342 2544.88,-342"/>
<text text-anchor="middle" x="2561.5" y="-318.2" font-family="DejaVu Sans Mono" font-size="14.00">print</text>
</g>
<!-- 39&#45;&gt;42 -->
<g id="edge35" class="edge">
<title>39&#45;&gt;42</title>
<path fill="none" stroke="black" stroke-dasharray="5,2" d="M2637.29,-473.68C2623.35,-465.02 2610.39,-454.87 2599.5,-443 2576.79,-418.24 2567.65,-379.81 2563.97,-353.58"/>
<polygon fill="black" stroke="black" points="2567.48,-353.49 2562.82,-343.98 2560.53,-354.33 2567.48,-353.49"/>
<text text-anchor="middle" x="2644.12" y="-452.7" font-family="DejaVu Sans Mono" font-size="14.00">calls</text>
</g>
<!-- 43 -->
<g id="node42" class="node">
<title>43</title>
<polygon fill="#e552ff" stroke="#e552ff" points="2756.5,-342 2620.5,-342 2620.5,-346 2608.5,-346 2608.5,-306 2756.5,-306 2756.5,-342"/>
<polyline fill="none" stroke="#e552ff" points="2608.5,-342 2620.5,-342"/>
<text text-anchor="middle" x="2682.5" y="-318.2" font-family="DejaVu Sans Mono" font-size="14.00">threading.Thread</text>
</g>
<!-- 39&#45;&gt;43 -->
<g id="edge36" class="edge">
<title>39&#45;&gt;43</title>
<path fill="none" stroke="black" stroke-dasharray="5,2" d="M2761.68,-473.56C2741.36,-435.44 2713.79,-383.71 2697.12,-352.43"/>
<polygon fill="black" stroke="black" points="2700.21,-350.79 2692.42,-343.61 2694.03,-354.08 2700.21,-350.79"/>
<text text-anchor="middle" x="2776.12" y="-452.7" font-family="DejaVu Sans Mono" font-size="14.00">calls</text>
</g>
<!-- 44 -->
<g id="node43" class="node">
<title>44</title>
<polygon fill="#e552ff" stroke="#e552ff" points="2922.5,-342 2786.5,-342 2786.5,-346 2774.5,-346 2774.5,-306 2922.5,-306 2922.5,-342"/>
<polyline fill="none" stroke="#e552ff" points="2774.5,-342 2786.5,-342"/>
<text text-anchor="middle" x="2848.5" y="-318.2" font-family="DejaVu Sans Mono" font-size="14.00">new_thread.start</text>
</g>
<!-- 39&#45;&gt;44 -->
<g id="edge37" class="edge">
<title>39&#45;&gt;44</title>
<path fill="none" stroke="black" stroke-dasharray="5,2" d="M2802.5,-473.56C2814.2,-435.77 2830.04,-384.61 2839.75,-353.25"/>
<polygon fill="black" stroke="black" points="2843.09,-354.31 2842.7,-343.72 2836.4,-352.24 2843.09,-354.31"/>
<text text-anchor="middle" x="2829.12" y="-452.7" font-family="DejaVu Sans Mono" font-size="14.00">calls</text>
</g>
<!-- 45 -->
<g id="node44" class="node">
<title>45</title>
<polygon fill="#e552ff" stroke="#e552ff" points="3072.25,-342 2952.75,-342 2952.75,-346 2940.75,-346 2940.75,-306 3072.25,-306 3072.25,-342"/>
<polyline fill="none" stroke="#e552ff" points="2940.75,-342 2952.75,-342"/>
<text text-anchor="middle" x="3006.5" y="-318.2" font-family="DejaVu Sans Mono" font-size="14.00">threads.append</text>
</g>
<!-- 39&#45;&gt;45 -->
<g id="edge38" class="edge">
<title>39&#45;&gt;45</title>
<path fill="none" stroke="black" stroke-dasharray="5,2" d="M2891.02,-473.63C2905.45,-464.55 2919.43,-454.31 2931.5,-443 2959.39,-416.85 2981.35,-378.21 2994.12,-352.35"/>
<polygon fill="black" stroke="black" points="2997.2,-354.02 2998.37,-343.49 2990.89,-350.99 2997.2,-354.02"/>
<text text-anchor="middle" x="2942.12" y="-452.7" font-family="DejaVu Sans Mono" font-size="14.00">calls</text>
</g>
<!-- input -->
<g id="node45" class="node">
<title>input</title>
<polygon fill="#afeeee" stroke="black" points="3466.06,-787 3379.27,-787 3356.94,-751 3443.73,-751 3466.06,-787"/>
<text text-anchor="middle" x="3411.5" y="-763.2" font-family="DejaVu Sans Mono" font-size="14.00">input</text>
</g>
<!-- call -->
<g id="node50" class="node">
<title>call</title>
<polygon fill="#e552ff" stroke="black" points="3438.5,-647 3396.5,-647 3396.5,-651 3384.5,-651 3384.5,-611 3438.5,-611 3438.5,-647"/>
<polyline fill="none" stroke="black" points="3384.5,-647 3396.5,-647"/>
<text text-anchor="middle" x="3411.5" y="-623.2" font-family="DejaVu Sans Mono" font-size="14.00">call</text>
</g>
<!-- input&#45;&gt;call -->
<!-- default -->
<g id="node46" class="node">
<title>default</title>
<polygon fill="#fffb81" stroke="black" points="3313.38,-647 3239.62,-647 3239.62,-611 3313.38,-611 3313.38,-647"/>
<text text-anchor="middle" x="3276.5" y="-623.2" font-family="DejaVu Sans Mono" font-size="14.00">default</text>
</g>
<!-- if -->
<g id="node47" class="node">
<title>if</title>
<polygon fill="#ff6752" stroke="black" points="3411.5,-972.5 3381.63,-954.5 3411.5,-936.5 3441.37,-954.5 3411.5,-972.5"/>
<text text-anchor="middle" x="3411.5" y="-948.7" font-family="DejaVu Sans Mono" font-size="14.00">if</text>
</g>
<!-- if&#45;&gt;input -->
<!-- for -->
<g id="node48" class="node">
<title>for</title>
<polygon fill="#ffbe52" stroke="black" points="3363.08,-954.5 3347.79,-972.5 3317.21,-972.5 3301.92,-954.5 3317.21,-936.5 3347.79,-936.5 3363.08,-954.5"/>
<text text-anchor="middle" x="3332.5" y="-948.7" font-family="DejaVu Sans Mono" font-size="14.00">for</text>
</g>
<!-- return -->
<g id="node51" class="node">
<title>return</title>
<polygon fill="#98fb98" stroke="black" points="3338.92,-787 3239.63,-787 3214.08,-751 3313.37,-751 3338.92,-787"/>
<text text-anchor="middle" x="3276.5" y="-763.2" font-family="DejaVu Sans Mono" font-size="14.00">return</text>
</g>
<!-- for&#45;&gt;return -->
<!-- while -->
<g id="node49" class="node">
<title>while</title>
<polygon fill="#ffbe52" stroke="black" points="3283.47,-954.5 3261.98,-972.5 3219.02,-972.5 3197.53,-954.5 3219.02,-936.5 3261.98,-936.5 3283.47,-954.5"/>
<text text-anchor="middle" x="3240.5" y="-948.7" font-family="DejaVu Sans Mono" font-size="14.00">while</text>
</g>
<!-- return&#45;&gt;default -->
<!-- try -->
<g id="node52" class="node">
<title>try</title>
<polygon fill="orange" stroke="black" points="3142.5,-972.5 3105.04,-954.5 3142.5,-936.5 3179.96,-954.5 3142.5,-972.5"/>
<polyline fill="none" stroke="black" points="3115.86,-959.7 3115.86,-949.3"/>
<polyline fill="none" stroke="black" points="3131.68,-941.7 3153.32,-941.7"/>
<polyline fill="none" stroke="black" points="3169.14,-949.3 3169.14,-959.7"/>
<polyline fill="none" stroke="black" points="3153.32,-967.3 3131.68,-967.3"/>
<text text-anchor="middle" x="3142.5" y="-948.7" font-family="DejaVu Sans Mono" font-size="14.00">try</text>
</g>
<!-- raise -->
<g id="node53" class="node">
<title>raise</title>
<polygon fill="#98fb98" stroke="black" points="3196.49,-774.56 3150.5,-787 3104.51,-774.56 3104.55,-754.44 3196.45,-754.44 3196.49,-774.56"/>
<text text-anchor="middle" x="3150.5" y="-763.2" font-family="DejaVu Sans Mono" font-size="14.00">raise</text>
</g>
<!-- try&#45;&gt;raise -->
</g>
</svg>
