<?xml version="1.0" encoding="UTF-8" standalone="no"?>
<!DOCTYPE svg PUBLIC "-//W3C//DTD SVG 1.1//EN"
 "http://www.w3.org/Graphics/SVG/1.1/DTD/svg11.dtd">
<!-- Generated by graphviz version 7.1.0 (0)
 -->
<!-- Title: cluster0web_server.py Pages: 1 -->
<svg width="2858pt" height="532pt"
 viewBox="0.00 0.00 2858.00 531.50" xmlns="http://www.w3.org/2000/svg" xmlns:xlink="http://www.w3.org/1999/xlink">
<g id="graph0" class="graph" transform="scale(1 1) rotate(0) translate(4 527.5)">
<title>cluster0web_server.py</title>
<polygon fill="white" stroke="none" points="-4,4 -4,-527.5 2854,-527.5 2854,4 -4,4"/>
<text text-anchor="middle" x="1425" y="-7.8" font-family="DejaVu Sans Mono" font-size="14.00">web_server.py</text>
<g id="clust1" class="cluster">
<title>cluster_31</title>
<polygon fill="purple" stroke="purple" points="287,-130 287,-182 357,-182 357,-130 287,-130"/>
</g>
<g id="clust2" class="cluster">
<title>cluster0handler</title>
<polygon fill="none" stroke="black" points="652,-122 652,-515.5 1274,-515.5 1274,-122 652,-122"/>
<text text-anchor="middle" x="963" y="-500.3" font-family="DejaVu Sans Mono" font-size="14.00">handler</text>
</g>
<g id="clust3" class="cluster">
<title>cluster_5</title>
<polygon fill="purple" stroke="purple" points="800,-130 800,-182 974,-182 974,-130 800,-130"/>
</g>
<g id="clust4" class="cluster">
<title>cluster_7</title>
<polygon fill="purple" stroke="purple" points="714,-213 714,-265 788,-265 788,-213 714,-213"/>
</g>
<g id="clust5" class="cluster">
<title>cluster_4</title>
<polygon fill="purple" stroke="purple" points="1062,-213 1062,-265 1136,-265 1136,-213 1062,-213"/>
</g>
<g id="clust6" class="cluster">
<title>cluster0main</title>
<polygon fill="none" stroke="black" points="1282,-31 1282,-508 2453,-508 2453,-31 1282,-31"/>
<text text-anchor="middle" x="1867.5" y="-492.8" font-family="DejaVu Sans Mono" font-size="14.00">main</text>
</g>
<g id="clust7" class="cluster">
<title>cluster_14</title>
<polygon fill="purple" stroke="purple" points="2049,-296 2049,-348 2189,-348 2189,-296 2049,-296"/>
</g>
<g id="clust8" class="cluster">
<title>cluster_18</title>
<polygon fill="purple" stroke="purple" points="1990,-130 1990,-182 2140,-182 2140,-130 1990,-130"/>
</g>
<g id="clust9" class="cluster">
<title>cluster_17</title>
<polygon fill="purple" stroke="purple" points="1790,-39 1790,-91 1980,-91 1980,-39 1790,-39"/>
</g>
<g id="clust10" class="cluster">
<title>cluster_21</title>
<polygon fill="purple" stroke="purple" points="1493,-130 1493,-182 1567,-182 1567,-130 1493,-130"/>
</g>
<g id="clust11" class="cluster">
<title>cluster_24</title>
<polygon fill="purple" stroke="purple" points="2255,-39 2255,-91 2403,-91 2403,-39 2255,-39"/>
</g>
<g id="clust12" class="cluster">
<title>cluster_KEY</title>
<polygon fill="none" stroke="black" points="2461,-213 2461,-499.5 2842,-499.5 2842,-213 2461,-213"/>
<text text-anchor="middle" x="2651.5" y="-484.3" font-family="DejaVu Sans Mono" font-size="14.00">KEY</text>
</g>
<!-- 1 -->
<g id="node1" class="node">
<title>1</title>
<polygon fill="#fffb81" stroke="black" points="644,-522 0,-522 0,-379 644,-379 644,-522"/>
<text text-anchor="start" x="8" y="-506.8" font-family="DejaVu Sans Mono" font-size="14.00">&quot;&quot;&quot;</text>
<text text-anchor="start" x="8" y="-491.8" font-family="DejaVu Sans Mono" font-size="14.00">A simple Web server.</text>
<text text-anchor="start" x="8" y="-476.8" font-family="DejaVu Sans Mono" font-size="14.00">GET requests must name a specific file,</text>
<text text-anchor="start" x="8" y="-461.8" font-family="DejaVu Sans Mono" font-size="14.00">since it does not assume an index.html.</text>
<text text-anchor="start" x="8" y="-446.8" font-family="DejaVu Sans Mono" font-size="14.00">&quot;&quot;&quot;</text>
<text text-anchor="start" x="8" y="-431.8" font-family="DejaVu Sans Mono" font-size="14.00">import socket</text>
<text text-anchor="start" x="8" y="-416.8" font-family="DejaVu Sans Mono" font-size="14.00">import threading</text>
<text text-anchor="start" x="8" y="-401.8" font-family="DejaVu Sans Mono" font-size="14.00">def handler(conn_socket: socket.socket, address: tuple[str, int]) &#45;&gt;None:...</text>
<text text-anchor="middle" x="322" y="-386.8" font-family="DejaVu Sans Mono" font-size="14.00">def main() &#45;&gt;None:...</text>
</g>
<!-- 30 -->
<g id="node2" class="node">
<title>30</title>
<polygon fill="#ff6752" stroke="black" points="322,-340 109.85,-322 322,-304 534.15,-322 322,-340"/>
<text text-anchor="middle" x="322" y="-318.3" font-family="DejaVu Sans Mono" font-size="14.00">if __name__ == &#39;__main__&#39;:</text>
</g>
<!-- 1&#45;&gt;30 -->
<g id="edge3" class="edge">
<title>1&#45;&gt;30</title>
<path fill="none" stroke="black" d="M322,-378.85C322,-369.12 322,-359.62 322,-351.3"/>
<polygon fill="black" stroke="black" points="325.5,-351.57 322,-341.57 318.5,-351.57 325.5,-351.57"/>
</g>
<!-- 31 -->
<g id="node3" class="node">
<title>31</title>
<polygon fill="#fffb81" stroke="black" points="355,-257 289,-257 289,-221 355,-221 355,-257"/>
<text text-anchor="middle" x="322" y="-235.3" font-family="DejaVu Sans Mono" font-size="14.00">main()</text>
</g>
<!-- 30&#45;&gt;31 -->
<g id="edge2" class="edge">
<title>30&#45;&gt;31</title>
<path fill="none" stroke="green" d="M322,-303.82C322,-293.69 322,-280.6 322,-268.92"/>
<polygon fill="green" stroke="green" points="325.5,-268.95 322,-258.95 318.5,-268.95 325.5,-268.95"/>
<text text-anchor="middle" x="413" y="-276.8" font-family="DejaVu Sans Mono" font-size="14.00">__name__ == &#39;__main__&#39;</text>
</g>
<!-- 33 -->
<g id="node4" class="node">
<title>33</title>
<polygon fill="#e552ff" stroke="#e552ff" points="349,-174 307,-174 307,-178 295,-178 295,-138 349,-138 349,-174"/>
<polyline fill="none" stroke="#e552ff" points="295,-174 307,-174"/>
<text text-anchor="middle" x="322" y="-152.3" font-family="DejaVu Sans Mono" font-size="14.00">main</text>
</g>
<!-- 31&#45;&gt;33 -->
<g id="edge1" class="edge">
<title>31&#45;&gt;33</title>
<path fill="none" stroke="black" stroke-dasharray="5,2" d="M322,-220.82C322,-210.69 322,-197.6 322,-185.92"/>
<polygon fill="black" stroke="black" points="325.5,-185.95 322,-175.95 318.5,-185.95 325.5,-185.95"/>
<text text-anchor="middle" x="343" y="-193.8" font-family="DejaVu Sans Mono" font-size="14.00">calls</text>
</g>
<!-- 3 -->
<g id="node5" class="node">
<title>3</title>
<polygon fill="#fffb81" stroke="black" points="1266,-484.5 672,-484.5 672,-416.5 1266,-416.5 1266,-484.5"/>
<text text-anchor="start" x="680" y="-469.3" font-family="DejaVu Sans Mono" font-size="14.00">&quot;&quot;&quot;</text>
<text text-anchor="start" x="680" y="-454.3" font-family="DejaVu Sans Mono" font-size="14.00"> &#160;&#160;&#160;Handles the part of the client work&#45;flow that is client&#45;dependent,</text>
<text text-anchor="start" x="680" y="-439.3" font-family="DejaVu Sans Mono" font-size="14.00"> &#160;&#160;&#160;and thus may be delayed by the user, blocking program flow.</text>
<text text-anchor="middle" x="969" y="-424.3" font-family="DejaVu Sans Mono" font-size="14.00"> &#160;&#160;&#160;&quot;&quot;&quot;</text>
</g>
<!-- 4 -->
<g id="node6" class="node">
<title>4</title>
<polygon fill="orange" stroke="black" points="1099,-340 931.93,-322 1099,-304 1266.07,-322 1099,-340"/>
<polyline fill="none" stroke="black" points="943.86,-323.29 943.86,-320.71"/>
<polyline fill="none" stroke="black" points="1087.07,-305.29 1110.93,-305.29"/>
<polyline fill="none" stroke="black" points="1254.14,-320.71 1254.14,-323.29"/>
<polyline fill="none" stroke="black" points="1110.93,-338.71 1087.07,-338.71"/>
<text text-anchor="middle" x="1099" y="-318.3" font-family="DejaVu Sans Mono" font-size="14.00">print(&#39;Delete this&#39;)</text>
</g>
<!-- 3&#45;&gt;4 -->
<g id="edge10" class="edge">
<title>3&#45;&gt;4</title>
<path fill="none" stroke="black" d="M1003.16,-416.26C1025.67,-394.36 1054.61,-366.2 1074.77,-346.58"/>
<polygon fill="black" stroke="black" points="1077.02,-349.28 1081.74,-339.79 1072.13,-344.26 1077.02,-349.28"/>
</g>
<!-- 5 -->
<g id="node8" class="node">
<title>5</title>
<polygon fill="#fffb81" stroke="black" points="973.5,-257 800.5,-257 800.5,-221 973.5,-221 973.5,-257"/>
<text text-anchor="middle" x="887" y="-235.3" font-family="DejaVu Sans Mono" font-size="14.00">conn_socket.close()</text>
</g>
<!-- 4&#45;&gt;5 -->
<g id="edge9" class="edge">
<title>4&#45;&gt;5</title>
<path fill="none" stroke="black" d="M1063.52,-307.44C1030.65,-294.89 981.24,-276.01 943.05,-261.42"/>
<polygon fill="black" stroke="black" points="944.6,-258.26 934.01,-257.96 942.1,-264.8 944.6,-258.26"/>
</g>
<!-- 9 -->
<g id="node12" class="node">
<title>9</title>
<polygon fill="#e552ff" stroke="#e552ff" points="1128,-257 1082,-257 1082,-261 1070,-261 1070,-221 1128,-221 1128,-257"/>
<polyline fill="none" stroke="#e552ff" points="1070,-257 1082,-257"/>
<text text-anchor="middle" x="1099" y="-235.3" font-family="DejaVu Sans Mono" font-size="14.00">print</text>
</g>
<!-- 4&#45;&gt;9 -->
<g id="edge8" class="edge">
<title>4&#45;&gt;9</title>
<path fill="none" stroke="black" stroke-dasharray="5,2" d="M1099,-303.82C1099,-293.69 1099,-280.6 1099,-268.92"/>
<polygon fill="black" stroke="black" points="1102.5,-268.95 1099,-258.95 1095.5,-268.95 1102.5,-268.95"/>
<text text-anchor="middle" x="1120" y="-276.8" font-family="DejaVu Sans Mono" font-size="14.00">calls</text>
</g>
<!-- 6 -->
<g id="node7" class="node">
<title>6</title>
<polygon fill="#fffb81" stroke="black" points="914,-340 860,-340 860,-304 914,-304 914,-340"/>
</g>
<!-- 6&#45;&gt;5 -->
<g id="edge5" class="edge">
<title>6&#45;&gt;5</title>
<path fill="none" stroke="black" d="M887,-303.82C887,-293.69 887,-280.6 887,-268.92"/>
<polygon fill="black" stroke="black" points="890.5,-268.95 887,-258.95 883.5,-268.95 890.5,-268.95"/>
</g>
<!-- 10 -->
<g id="node9" class="node">
<title>10</title>
<polygon fill="#e552ff" stroke="#e552ff" points="965.5,-174 820.5,-174 820.5,-178 808.5,-178 808.5,-138 965.5,-138 965.5,-174"/>
<polyline fill="none" stroke="#e552ff" points="808.5,-174 820.5,-174"/>
<text text-anchor="middle" x="887" y="-152.3" font-family="DejaVu Sans Mono" font-size="14.00">conn_socket.close</text>
</g>
<!-- 5&#45;&gt;10 -->
<g id="edge4" class="edge">
<title>5&#45;&gt;10</title>
<path fill="none" stroke="black" stroke-dasharray="5,2" d="M887,-220.82C887,-210.69 887,-197.6 887,-185.92"/>
<polygon fill="black" stroke="black" points="890.5,-185.95 887,-175.95 883.5,-185.95 890.5,-185.95"/>
<text text-anchor="middle" x="908" y="-193.8" font-family="DejaVu Sans Mono" font-size="14.00">calls</text>
</g>
<!-- 7 -->
<g id="node10" class="node">
<title>7</title>
<polygon fill="#fffb81" stroke="black" points="842,-340 660,-340 660,-304 842,-304 842,-340"/>
<text text-anchor="middle" x="751" y="-318.3" font-family="DejaVu Sans Mono" font-size="14.00">print(&#39;Bad request&#39;)</text>
</g>
<!-- 7&#45;&gt;5 -->
<g id="edge7" class="edge">
<title>7&#45;&gt;5</title>
<path fill="none" stroke="black" d="M780.18,-303.62C799.98,-291.83 826.4,-276.09 848.01,-263.22"/>
<polygon fill="black" stroke="black" points="849.77,-266.25 856.57,-258.12 846.19,-260.23 849.77,-266.25"/>
</g>
<!-- 8 -->
<g id="node11" class="node">
<title>8</title>
<polygon fill="#e552ff" stroke="#e552ff" points="780,-257 734,-257 734,-261 722,-261 722,-221 780,-221 780,-257"/>
<polyline fill="none" stroke="#e552ff" points="722,-257 734,-257"/>
<text text-anchor="middle" x="751" y="-235.3" font-family="DejaVu Sans Mono" font-size="14.00">print</text>
</g>
<!-- 7&#45;&gt;8 -->
<g id="edge6" class="edge">
<title>7&#45;&gt;8</title>
<path fill="none" stroke="black" stroke-dasharray="5,2" d="M751,-303.82C751,-293.69 751,-280.6 751,-268.92"/>
<polygon fill="black" stroke="black" points="754.5,-268.95 751,-258.95 747.5,-268.95 754.5,-268.95"/>
<text text-anchor="middle" x="772" y="-276.8" font-family="DejaVu Sans Mono" font-size="14.00">calls</text>
</g>
<!-- 14 -->
<g id="node13" class="node">
<title>14</title>
<polygon fill="#fffb81" stroke="black" points="2445,-477 1793,-477 1793,-424 2445,-424 2445,-477"/>
<text text-anchor="start" x="1801" y="-461.8" font-family="DejaVu Sans Mono" font-size="14.00">server_socket = socket.socket(family=socket.AF_INET, type=socket.SOCK_STREAM)</text>
<text text-anchor="start" x="1801" y="-446.8" font-family="DejaVu Sans Mono" font-size="14.00">server_port = 6789</text>
<text text-anchor="middle" x="2119" y="-431.8" font-family="DejaVu Sans Mono" font-size="14.00">threads = []</text>
</g>
<!-- 15 -->
<g id="node14" class="node">
<title>15</title>
<polygon fill="#e552ff" stroke="#e552ff" points="2181,-340 2069,-340 2069,-344 2057,-344 2057,-304 2181,-304 2181,-340"/>
<polyline fill="none" stroke="#e552ff" points="2057,-340 2069,-340"/>
<text text-anchor="middle" x="2119" y="-318.3" font-family="DejaVu Sans Mono" font-size="14.00">socket.socket</text>
</g>
<!-- 14&#45;&gt;15 -->
<g id="edge11" class="edge">
<title>14&#45;&gt;15</title>
<path fill="none" stroke="black" stroke-dasharray="5,2" d="M2119,-423.6C2119,-402.71 2119,-373.37 2119,-351.76"/>
<polygon fill="black" stroke="black" points="2122.5,-351.87 2119,-341.87 2115.5,-351.87 2122.5,-351.87"/>
<text text-anchor="middle" x="2140" y="-359.8" font-family="DejaVu Sans Mono" font-size="14.00">calls</text>
</g>
<!-- 16 -->
<g id="node15" class="node">
<title>16</title>
<polygon fill="orange" stroke="black" points="2305,-340 2259.08,-322 2305,-304 2350.92,-322 2305,-340"/>
<polyline fill="none" stroke="black" points="2270.26,-326.38 2270.26,-317.62"/>
<polyline fill="none" stroke="black" points="2293.83,-308.38 2316.17,-308.38"/>
<polyline fill="none" stroke="black" points="2339.74,-317.62 2339.74,-326.38"/>
<polyline fill="none" stroke="black" points="2316.17,-335.62 2293.83,-335.62"/>
<text text-anchor="middle" x="2305" y="-318.3" font-family="DejaVu Sans Mono" font-size="14.00">try:</text>
</g>
<!-- 14&#45;&gt;16 -->
<g id="edge23" class="edge">
<title>14&#45;&gt;16</title>
<path fill="none" stroke="black" d="M2157.09,-423.6C2193.72,-398.68 2248.07,-361.72 2279.68,-340.22"/>
<polygon fill="black" stroke="black" points="2281.54,-343.19 2287.84,-334.67 2277.6,-337.4 2281.54,-343.19"/>
</g>
<!-- 23 -->
<g id="node23" class="node">
<title>23</title>
<polygon fill="#ffbe52" stroke="black" points="2445.11,-239 2405.05,-257 2324.95,-257 2284.89,-239 2324.95,-221 2405.05,-221 2445.11,-239"/>
<text text-anchor="middle" x="2365" y="-235.3" font-family="DejaVu Sans Mono" font-size="14.00">while True:</text>
</g>
<!-- 16&#45;&gt;23 -->
<g id="edge22" class="edge">
<title>16&#45;&gt;23</title>
<path fill="none" stroke="black" d="M2314.91,-307.62C2323.18,-296.45 2335.23,-280.18 2345.44,-266.4"/>
<polygon fill="black" stroke="black" points="2348.1,-268.69 2351.24,-258.57 2342.48,-264.52 2348.1,-268.69"/>
</g>
<!-- 18 -->
<g id="node16" class="node">
<title>18</title>
<polygon fill="#fffb81" stroke="black" points="2266.5,-258 1787.5,-258 1787.5,-220 2266.5,-220 2266.5,-258"/>
<text text-anchor="start" x="1795.5" y="-242.8" font-family="DejaVu Sans Mono" font-size="14.00">print(&#39;Exception occured (maybe you killed the server)&#39;)</text>
<text text-anchor="middle" x="2027" y="-227.8" font-family="DejaVu Sans Mono" font-size="14.00">print(e)</text>
</g>
<!-- 19 -->
<g id="node17" class="node">
<title>19</title>
<polygon fill="#e552ff" stroke="#e552ff" points="2056,-174 2010,-174 2010,-178 1998,-178 1998,-138 2056,-138 2056,-174"/>
<polyline fill="none" stroke="#e552ff" points="1998,-174 2010,-174"/>
<text text-anchor="middle" x="2027" y="-152.3" font-family="DejaVu Sans Mono" font-size="14.00">print</text>
</g>
<!-- 18&#45;&gt;19 -->
<g id="edge12" class="edge">
<title>18&#45;&gt;19</title>
<path fill="none" stroke="black" stroke-dasharray="5,2" d="M2027,-219.62C2027,-209.68 2027,-197.17 2027,-185.96"/>
<polygon fill="black" stroke="black" points="2030.5,-185.99 2027,-175.99 2023.5,-185.99 2030.5,-185.99"/>
<text text-anchor="middle" x="2048" y="-193.8" font-family="DejaVu Sans Mono" font-size="14.00">calls</text>
</g>
<!-- 20 -->
<g id="node18" class="node">
<title>20</title>
<polygon fill="#e552ff" stroke="#e552ff" points="2132,-174 2086,-174 2086,-178 2074,-178 2074,-138 2132,-138 2132,-174"/>
<polyline fill="none" stroke="#e552ff" points="2074,-174 2086,-174"/>
<text text-anchor="middle" x="2103" y="-152.3" font-family="DejaVu Sans Mono" font-size="14.00">print</text>
</g>
<!-- 18&#45;&gt;20 -->
<g id="edge13" class="edge">
<title>18&#45;&gt;20</title>
<path fill="none" stroke="black" stroke-dasharray="5,2" d="M2056.15,-219.72C2062.08,-215.3 2068.02,-210.3 2073,-205 2078.85,-198.77 2084.19,-191.22 2088.69,-183.99"/>
<polygon fill="black" stroke="black" points="2091.67,-185.83 2093.69,-175.43 2085.62,-182.29 2091.67,-185.83"/>
<text text-anchor="middle" x="2105" y="-193.8" font-family="DejaVu Sans Mono" font-size="14.00">calls</text>
</g>
<!-- 17 -->
<g id="node19" class="node">
<title>17</title>
<polygon fill="#fffb81" stroke="black" points="1980,-174 1790,-174 1790,-138 1980,-138 1980,-174"/>
<text text-anchor="middle" x="1885" y="-152.3" font-family="DejaVu Sans Mono" font-size="14.00">server_socket.close()</text>
</g>
<!-- 18&#45;&gt;17 -->
<g id="edge15" class="edge">
<title>18&#45;&gt;17</title>
<path fill="none" stroke="black" d="M1994.78,-219.62C1974.2,-207.88 1947.35,-192.57 1925.36,-180.02"/>
<polygon fill="black" stroke="black" points="1927.37,-177.14 1916.95,-175.22 1923.9,-183.22 1927.37,-177.14"/>
</g>
<!-- 27 -->
<g id="node20" class="node">
<title>27</title>
<polygon fill="#e552ff" stroke="#e552ff" points="1971.5,-83 1810.5,-83 1810.5,-87 1798.5,-87 1798.5,-47 1971.5,-47 1971.5,-83"/>
<polyline fill="none" stroke="#e552ff" points="1798.5,-83 1810.5,-83"/>
<text text-anchor="middle" x="1885" y="-61.3" font-family="DejaVu Sans Mono" font-size="14.00">server_socket.close</text>
</g>
<!-- 17&#45;&gt;27 -->
<g id="edge14" class="edge">
<title>17&#45;&gt;27</title>
<path fill="none" stroke="black" stroke-dasharray="5,2" d="M1885,-137.84C1885,-125.61 1885,-108.87 1885,-94.63"/>
<polygon fill="black" stroke="black" points="1888.5,-94.92 1885,-84.92 1881.5,-94.92 1888.5,-94.92"/>
<text text-anchor="middle" x="1906" y="-102.8" font-family="DejaVu Sans Mono" font-size="14.00">calls</text>
</g>
<!-- 21 -->
<g id="node21" class="node">
<title>21</title>
<polygon fill="#fffb81" stroke="black" points="1769.5,-257 1290.5,-257 1290.5,-221 1769.5,-221 1769.5,-257"/>
<text text-anchor="middle" x="1530" y="-235.3" font-family="DejaVu Sans Mono" font-size="14.00">print(&#39;Exception occured (maybe you killed the server)&#39;)</text>
</g>
<!-- 21&#45;&gt;17 -->
<g id="edge17" class="edge">
<title>21&#45;&gt;17</title>
<path fill="none" stroke="black" d="M1606.59,-220.52C1662.7,-207.72 1738.95,-190.32 1797.46,-176.97"/>
<polygon fill="black" stroke="black" points="1798.1,-180.42 1807.07,-174.78 1796.54,-173.59 1798.1,-180.42"/>
</g>
<!-- 22 -->
<g id="node22" class="node">
<title>22</title>
<polygon fill="#e552ff" stroke="#e552ff" points="1559,-174 1513,-174 1513,-178 1501,-178 1501,-138 1559,-138 1559,-174"/>
<polyline fill="none" stroke="#e552ff" points="1501,-174 1513,-174"/>
<text text-anchor="middle" x="1530" y="-152.3" font-family="DejaVu Sans Mono" font-size="14.00">print</text>
</g>
<!-- 21&#45;&gt;22 -->
<g id="edge16" class="edge">
<title>21&#45;&gt;22</title>
<path fill="none" stroke="black" stroke-dasharray="5,2" d="M1530,-220.82C1530,-210.69 1530,-197.6 1530,-185.92"/>
<polygon fill="black" stroke="black" points="1533.5,-185.95 1530,-175.95 1526.5,-185.95 1533.5,-185.95"/>
<text text-anchor="middle" x="1551" y="-193.8" font-family="DejaVu Sans Mono" font-size="14.00">calls</text>
</g>
<!-- 23&#45;&gt;17 -->
<g id="edge21" class="edge">
<title>23&#45;&gt;17</title>
<path fill="none" stroke="red" d="M2318.15,-223.73C2304.63,-219.91 2289.8,-216.01 2276,-213 2211.82,-198.98 2195.32,-196.94 2130,-190 2066.26,-183.23 2049.39,-191.52 1986,-182 1977.11,-180.66 1967.86,-178.9 1958.72,-176.93"/>
<polygon fill="red" stroke="red" points="1959.67,-173.56 1949.15,-174.77 1958.13,-180.39 1959.67,-173.56"/>
<text text-anchor="middle" x="2265" y="-193.8" font-family="DejaVu Sans Mono" font-size="14.00">(False)</text>
</g>
<!-- 24 -->
<g id="node24" class="node">
<title>24</title>
<polygon fill="#fffb81" stroke="black" points="2444.5,-174 2213.5,-174 2213.5,-138 2444.5,-138 2444.5,-174"/>
<text text-anchor="middle" x="2329" y="-152.3" font-family="DejaVu Sans Mono" font-size="14.00">threads.append(new_thread)</text>
</g>
<!-- 23&#45;&gt;24 -->
<g id="edge20" class="edge">
<title>23&#45;&gt;24</title>
<path fill="none" stroke="green" d="M2357.37,-220.82C2352.72,-210.37 2346.68,-196.77 2341.36,-184.81"/>
<polygon fill="green" stroke="green" points="2344.62,-183.53 2337.36,-175.82 2338.23,-186.38 2344.62,-183.53"/>
<text text-anchor="middle" x="2367" y="-193.8" font-family="DejaVu Sans Mono" font-size="14.00">True</text>
</g>
<!-- 24&#45;&gt;23 -->
<g id="edge19" class="edge">
<title>24&#45;&gt;23</title>
<path fill="none" stroke="black" d="M2331.18,-174.46C2332.79,-183.83 2335.52,-195.39 2340,-205 2341,-207.14 2342.15,-209.27 2343.4,-211.36"/>
<polygon fill="black" stroke="black" points="2340.4,-213.18 2348.92,-219.48 2346.2,-209.24 2340.4,-213.18"/>
</g>
<!-- 26 -->
<g id="node25" class="node">
<title>26</title>
<polygon fill="#e552ff" stroke="#e552ff" points="2395,-83 2275,-83 2275,-87 2263,-87 2263,-47 2395,-47 2395,-83"/>
<polyline fill="none" stroke="#e552ff" points="2263,-83 2275,-83"/>
<text text-anchor="middle" x="2329" y="-61.3" font-family="DejaVu Sans Mono" font-size="14.00">threads.append</text>
</g>
<!-- 24&#45;&gt;26 -->
<g id="edge18" class="edge">
<title>24&#45;&gt;26</title>
<path fill="none" stroke="black" stroke-dasharray="5,2" d="M2329,-137.84C2329,-125.61 2329,-108.87 2329,-94.63"/>
<polygon fill="black" stroke="black" points="2332.5,-94.92 2329,-84.92 2325.5,-94.92 2332.5,-94.92"/>
<text text-anchor="middle" x="2350" y="-102.8" font-family="DejaVu Sans Mono" font-size="14.00">calls</text>
</g>
<!-- input -->
<g id="node26" class="node">
<title>input</title>
<polygon fill="#afeeee" stroke="black" points="2834.04,-340 2746.48,-340 2723.96,-304 2811.52,-304 2834.04,-340"/>
<text text-anchor="middle" x="2779" y="-318.3" font-family="DejaVu Sans Mono" font-size="14.00">input</text>
</g>
<!-- call -->
<g id="node31" class="node">
<title>call</title>
<polygon fill="#e552ff" stroke="black" points="2806,-257 2764,-257 2764,-261 2752,-261 2752,-221 2806,-221 2806,-257"/>
<polyline fill="none" stroke="black" points="2752,-257 2764,-257"/>
<text text-anchor="middle" x="2779" y="-235.3" font-family="DejaVu Sans Mono" font-size="14.00">call</text>
</g>
<!-- input&#45;&gt;call -->
<!-- default -->
<g id="node27" class="node">
<title>default</title>
<polygon fill="#fffb81" stroke="black" points="2680,-257 2606,-257 2606,-221 2680,-221 2680,-257"/>
<text text-anchor="middle" x="2643" y="-235.3" font-family="DejaVu Sans Mono" font-size="14.00">default</text>
</g>
<!-- if -->
<g id="node28" class="node">
<title>if</title>
<polygon fill="#ff6752" stroke="black" points="2779,-468.5 2748.83,-450.5 2779,-432.5 2809.17,-450.5 2779,-468.5"/>
<text text-anchor="middle" x="2779" y="-446.8" font-family="DejaVu Sans Mono" font-size="14.00">if</text>
</g>
<!-- if&#45;&gt;input -->
<!-- for -->
<g id="node29" class="node">
<title>for</title>
<polygon fill="#ffbe52" stroke="black" points="2729.54,-450.5 2714.27,-468.5 2683.73,-468.5 2668.46,-450.5 2683.73,-432.5 2714.27,-432.5 2729.54,-450.5"/>
<text text-anchor="middle" x="2699" y="-446.8" font-family="DejaVu Sans Mono" font-size="14.00">for</text>
</g>
<!-- return -->
<g id="node32" class="node">
<title>return</title>
<polygon fill="#98fb98" stroke="black" points="2705.79,-340 2605.91,-340 2580.21,-304 2680.09,-304 2705.79,-340"/>
<text text-anchor="middle" x="2643" y="-318.3" font-family="DejaVu Sans Mono" font-size="14.00">return</text>
</g>
<!-- for&#45;&gt;return -->
<!-- while -->
<g id="node30" class="node">
<title>while</title>
<polygon fill="#ffbe52" stroke="black" points="2650.56,-450.5 2628.78,-468.5 2585.22,-468.5 2563.44,-450.5 2585.22,-432.5 2628.78,-432.5 2650.56,-450.5"/>
<text text-anchor="middle" x="2607" y="-446.8" font-family="DejaVu Sans Mono" font-size="14.00">while</text>
</g>
<!-- return&#45;&gt;default -->
<!-- try -->
<g id="node33" class="node">
<title>try</title>
<polygon fill="orange" stroke="black" points="2508,-468.5 2470.13,-450.5 2508,-432.5 2545.87,-450.5 2508,-468.5"/>
<polyline fill="none" stroke="black" points="2480.97,-455.65 2480.97,-445.35"/>
<polyline fill="none" stroke="black" points="2497.16,-437.65 2518.84,-437.65"/>
<polyline fill="none" stroke="black" points="2535.03,-445.35 2535.03,-455.65"/>
<polyline fill="none" stroke="black" points="2518.84,-463.35 2497.16,-463.35"/>
<text text-anchor="middle" x="2508" y="-446.8" font-family="DejaVu Sans Mono" font-size="14.00">try</text>
</g>
<!-- raise -->
<g id="node34" class="node">
<title>raise</title>
<polygon fill="#98fb98" stroke="black" points="2562.69,-327.56 2516,-340 2469.31,-327.56 2469.35,-307.44 2562.65,-307.44 2562.69,-327.56"/>
<text text-anchor="middle" x="2516" y="-318.3" font-family="DejaVu Sans Mono" font-size="14.00">raise</text>
</g>
<!-- try&#45;&gt;raise -->
</g>
</svg>
