<?xml version="1.0" encoding="UTF-8" standalone="no"?>
<!DOCTYPE svg PUBLIC "-//W3C//DTD SVG 1.1//EN"
 "http://www.w3.org/Graphics/SVG/1.1/DTD/svg11.dtd">
<!-- Generated by graphviz version 8.1.0 (20230707.0739)
 -->
<!-- Title: cluster0web_server.py Pages: 1 -->
<svg width="2916pt" height="562pt"
 viewBox="0.00 0.00 2915.50 561.50" xmlns="http://www.w3.org/2000/svg" xmlns:xlink="http://www.w3.org/1999/xlink">
<g id="graph0" class="graph" transform="scale(1 1) rotate(0) translate(4 557.5)">
<title>cluster0web_server.py</title>
<polygon fill="white" stroke="none" points="-4,4 -4,-557.5 2911.5,-557.5 2911.5,4 -4,4"/>
<text text-anchor="middle" x="1453.75" y="-7.95" font-family="DejaVu Sans Mono" font-size="14.00">web_server.py</text>
<g id="clust1" class="cluster">
<title>cluster_31</title>
<polygon fill="purple" stroke="purple" points="286.5,-134.5 286.5,-186.5 356.5,-186.5 356.5,-134.5 286.5,-134.5"/>
</g>
<g id="clust2" class="cluster">
<title>cluster0handler</title>
<polygon fill="none" stroke="black" points="651.5,-126.5 651.5,-543.62 1299.5,-543.62 1299.5,-126.5 651.5,-126.5"/>
<text text-anchor="middle" x="975.5" y="-526.33" font-family="DejaVu Sans Mono" font-size="14.00">handler</text>
</g>
<g id="clust3" class="cluster">
<title>cluster_5</title>
<polygon fill="purple" stroke="purple" points="800.5,-134.5 800.5,-186.5 972.5,-186.5 972.5,-134.5 800.5,-134.5"/>
</g>
<g id="clust4" class="cluster">
<title>cluster_7</title>
<polygon fill="purple" stroke="purple" points="713.5,-219.75 713.5,-271.75 787.5,-271.75 787.5,-219.75 713.5,-219.75"/>
</g>
<g id="clust5" class="cluster">
<title>cluster_4</title>
<polygon fill="purple" stroke="purple" points="1074.5,-219.75 1074.5,-271.75 1148.5,-271.75 1148.5,-219.75 1074.5,-219.75"/>
</g>
<g id="clust6" class="cluster">
<title>cluster0main</title>
<polygon fill="none" stroke="black" points="1307.5,-33.25 1307.5,-535 2487.5,-535 2487.5,-33.25 1307.5,-33.25"/>
<text text-anchor="middle" x="1897.5" y="-517.7" font-family="DejaVu Sans Mono" font-size="14.00">main</text>
</g>
<g id="clust7" class="cluster">
<title>cluster_14</title>
<polygon fill="purple" stroke="purple" points="2083.5,-305 2083.5,-357 2223.5,-357 2223.5,-305 2083.5,-305"/>
</g>
<g id="clust8" class="cluster">
<title>cluster_18</title>
<polygon fill="purple" stroke="purple" points="2013.5,-134.5 2013.5,-186.5 2162.5,-186.5 2162.5,-134.5 2013.5,-134.5"/>
</g>
<g id="clust9" class="cluster">
<title>cluster_17</title>
<polygon fill="purple" stroke="purple" points="1815.5,-41.25 1815.5,-93.25 2003.5,-93.25 2003.5,-41.25 1815.5,-41.25"/>
</g>
<g id="clust10" class="cluster">
<title>cluster_21</title>
<polygon fill="purple" stroke="purple" points="1517.5,-134.5 1517.5,-186.5 1591.5,-186.5 1591.5,-134.5 1517.5,-134.5"/>
</g>
<g id="clust11" class="cluster">
<title>cluster_24</title>
<polygon fill="purple" stroke="purple" points="2290.5,-41.25 2290.5,-93.25 2438.5,-93.25 2438.5,-41.25 2290.5,-41.25"/>
</g>
<g id="clust12" class="cluster">
<title>cluster_KEY</title>
<polygon fill="none" stroke="black" points="2495.5,-219.75 2495.5,-523.12 2899.5,-523.12 2899.5,-219.75 2495.5,-219.75"/>
<text text-anchor="middle" x="2697.5" y="-505.82" font-family="DejaVu Sans Mono" font-size="14.00">KEY</text>
</g>
<!-- 1 -->
<g id="node1" class="node">
<title>1</title>
<polygon fill="#fffb81" stroke="black" points="643,-553.5 0,-553.5 0,-390.25 643,-390.25 643,-553.5"/>
<text text-anchor="start" x="8" y="-536.2" font-family="DejaVu Sans Mono" font-size="14.00">&quot;&quot;&quot;</text>
<text text-anchor="start" x="8" y="-518.95" font-family="DejaVu Sans Mono" font-size="14.00">A simple Web server.</text>
<text text-anchor="start" x="8" y="-501.7" font-family="DejaVu Sans Mono" font-size="14.00">GET requests must name a specific file,</text>
<text text-anchor="start" x="8" y="-484.45" font-family="DejaVu Sans Mono" font-size="14.00">since it does not assume an index.html.</text>
<text text-anchor="start" x="8" y="-467.2" font-family="DejaVu Sans Mono" font-size="14.00">&quot;&quot;&quot;</text>
<text text-anchor="start" x="8" y="-449.95" font-family="DejaVu Sans Mono" font-size="14.00">import socket</text>
<text text-anchor="start" x="8" y="-432.7" font-family="DejaVu Sans Mono" font-size="14.00">import threading</text>
<text text-anchor="start" x="8" y="-415.45" font-family="DejaVu Sans Mono" font-size="14.00">def handler(conn_socket: socket.socket, address: tuple[str, int]) &#45;&gt;None:...</text>
<text text-anchor="middle" x="321.5" y="-398.2" font-family="DejaVu Sans Mono" font-size="14.00">def main() &#45;&gt;None:...</text>
</g>
<!-- 30 -->
<g id="node2" class="node">
<title>30</title>
<polygon fill="#ff6752" stroke="black" points="321.5,-349 92.83,-331 321.5,-313 550.17,-331 321.5,-349"/>
<text text-anchor="middle" x="321.5" y="-326.32" font-family="DejaVu Sans Mono" font-size="14.00">if __name__ == &#39;__main__&#39;:</text>
</g>
<!-- 1&#45;&gt;30 -->
<g id="edge3" class="edge">
<title>1&#45;&gt;30</title>
<path fill="none" stroke="black" d="M321.5,-390.09C321.5,-379.3 321.5,-368.89 321.5,-359.93"/>
<polygon fill="black" stroke="black" points="325,-360.09 321.5,-350.09 318,-360.09 325,-360.09"/>
</g>
<!-- 31 -->
<g id="node3" class="node">
<title>31</title>
<polygon fill="#fffb81" stroke="black" points="354.25,-263.75 288.75,-263.75 288.75,-227.75 354.25,-227.75 354.25,-263.75"/>
<text text-anchor="middle" x="321.5" y="-241.07" font-family="DejaVu Sans Mono" font-size="14.00">main()</text>
</g>
<!-- 30&#45;&gt;31 -->
<g id="edge2" class="edge">
<title>30&#45;&gt;31</title>
<path fill="none" stroke="green" d="M321.5,-312.75C321.5,-301.81 321.5,-287.4 321.5,-274.84"/>
<polygon fill="green" stroke="green" points="325,-274.98 321.5,-264.98 318,-274.98 325,-274.98"/>
<text text-anchor="middle" x="412.25" y="-283.7" font-family="DejaVu Sans Mono" font-size="14.00">__name__ == &#39;__main__&#39;</text>
</g>
<!-- 33 -->
<g id="node4" class="node">
<title>33</title>
<polygon fill="#e552ff" stroke="#e552ff" points="348.5,-178.5 306.5,-178.5 306.5,-182.5 294.5,-182.5 294.5,-142.5 348.5,-142.5 348.5,-178.5"/>
<polyline fill="none" stroke="#e552ff" points="294.5,-178.5 306.5,-178.5"/>
<text text-anchor="middle" x="321.5" y="-155.82" font-family="DejaVu Sans Mono" font-size="14.00">main</text>
</g>
<!-- 31&#45;&gt;33 -->
<g id="edge1" class="edge">
<title>31&#45;&gt;33</title>
<path fill="none" stroke="black" stroke-dasharray="5,2" d="M321.5,-227.5C321.5,-216.56 321.5,-202.15 321.5,-189.59"/>
<polygon fill="black" stroke="black" points="325,-189.73 321.5,-179.73 318,-189.73 325,-189.73"/>
<text text-anchor="middle" x="342.12" y="-198.45" font-family="DejaVu Sans Mono" font-size="14.00">calls</text>
</g>
<!-- 3 -->
<g id="node5" class="node">
<title>3</title>
<polygon fill="#fffb81" stroke="black" points="1291.25,-510.38 697.75,-510.38 697.75,-433.38 1291.25,-433.38 1291.25,-510.38"/>
<text text-anchor="start" x="705.75" y="-493.07" font-family="DejaVu Sans Mono" font-size="14.00">&quot;&quot;&quot;</text>
<text text-anchor="start" x="705.75" y="-475.82" font-family="DejaVu Sans Mono" font-size="14.00"> &#160;&#160;&#160;Handles the part of the client work&#45;flow that is client&#45;dependent,</text>
<text text-anchor="start" x="705.75" y="-458.57" font-family="DejaVu Sans Mono" font-size="14.00"> &#160;&#160;&#160;and thus may be delayed by the user, blocking program flow.</text>
<text text-anchor="middle" x="994.5" y="-441.32" font-family="DejaVu Sans Mono" font-size="14.00"> &#160;&#160;&#160;&quot;&quot;&quot;</text>
</g>
<!-- 4 -->
<g id="node6" class="node">
<title>4</title>
<polygon fill="orange" stroke="black" points="1111.5,-349 931.94,-331 1111.5,-313 1291.06,-331 1111.5,-349"/>
<polyline fill="none" stroke="black" points="943.88,-332.2 943.88,-329.8"/>
<polyline fill="none" stroke="black" points="1099.56,-314.2 1123.44,-314.2"/>
<polyline fill="none" stroke="black" points="1279.12,-329.8 1279.12,-332.2"/>
<polyline fill="none" stroke="black" points="1123.44,-347.8 1099.56,-347.8"/>
<text text-anchor="middle" x="1111.5" y="-326.32" font-family="DejaVu Sans Mono" font-size="14.00">print(&#39;Delete this&#39;)</text>
</g>
<!-- 3&#45;&gt;4 -->
<g id="edge10" class="edge">
<title>3&#45;&gt;4</title>
<path fill="none" stroke="black" d="M1026.47,-432.93C1047.16,-408.36 1073.48,-377.13 1091.31,-355.96"/>
<polygon fill="black" stroke="black" points="1094.4,-358.73 1098.16,-348.83 1089.04,-354.22 1094.4,-358.73"/>
</g>
<!-- 5 -->
<g id="node8" class="node">
<title>5</title>
<polygon fill="#fffb81" stroke="black" points="972.88,-263.75 800.12,-263.75 800.12,-227.75 972.88,-227.75 972.88,-263.75"/>
<text text-anchor="middle" x="886.5" y="-241.07" font-family="DejaVu Sans Mono" font-size="14.00">conn_socket.close()</text>
</g>
<!-- 4&#45;&gt;5 -->
<g id="edge9" class="edge">
<title>4&#45;&gt;5</title>
<path fill="none" stroke="black" d="M1074.35,-316.25C1038.79,-303.1 984.65,-283.07 943.61,-267.88"/>
<polygon fill="black" stroke="black" points="945.08,-264.32 934.48,-264.13 942.65,-270.89 945.08,-264.32"/>
</g>
<!-- 9 -->
<g id="node12" class="node">
<title>9</title>
<polygon fill="#e552ff" stroke="#e552ff" points="1140.12,-263.75 1094.88,-263.75 1094.88,-267.75 1082.88,-267.75 1082.88,-227.75 1140.12,-227.75 1140.12,-263.75"/>
<polyline fill="none" stroke="#e552ff" points="1082.88,-263.75 1094.88,-263.75"/>
<text text-anchor="middle" x="1111.5" y="-241.07" font-family="DejaVu Sans Mono" font-size="14.00">print</text>
</g>
<!-- 4&#45;&gt;9 -->
<g id="edge8" class="edge">
<title>4&#45;&gt;9</title>
<path fill="none" stroke="black" stroke-dasharray="5,2" d="M1111.5,-312.75C1111.5,-301.81 1111.5,-287.4 1111.5,-274.84"/>
<polygon fill="black" stroke="black" points="1115,-274.98 1111.5,-264.98 1108,-274.98 1115,-274.98"/>
<text text-anchor="middle" x="1132.12" y="-283.7" font-family="DejaVu Sans Mono" font-size="14.00">calls</text>
</g>
<!-- 6 -->
<g id="node7" class="node">
<title>6</title>
<polygon fill="#fffb81" stroke="black" points="913.5,-349 859.5,-349 859.5,-313 913.5,-313 913.5,-349"/>
</g>
<!-- 6&#45;&gt;5 -->
<g id="edge5" class="edge">
<title>6&#45;&gt;5</title>
<path fill="none" stroke="black" d="M886.5,-312.75C886.5,-301.81 886.5,-287.4 886.5,-274.84"/>
<polygon fill="black" stroke="black" points="890,-274.98 886.5,-264.98 883,-274.98 890,-274.98"/>
</g>
<!-- 10 -->
<g id="node9" class="node">
<title>10</title>
<polygon fill="#e552ff" stroke="#e552ff" points="964.62,-178.5 820.38,-178.5 820.38,-182.5 808.38,-182.5 808.38,-142.5 964.62,-142.5 964.62,-178.5"/>
<polyline fill="none" stroke="#e552ff" points="808.38,-178.5 820.38,-178.5"/>
<text text-anchor="middle" x="886.5" y="-155.82" font-family="DejaVu Sans Mono" font-size="14.00">conn_socket.close</text>
</g>
<!-- 5&#45;&gt;10 -->
<g id="edge4" class="edge">
<title>5&#45;&gt;10</title>
<path fill="none" stroke="black" stroke-dasharray="5,2" d="M886.5,-227.5C886.5,-216.56 886.5,-202.15 886.5,-189.59"/>
<polygon fill="black" stroke="black" points="890,-189.73 886.5,-179.73 883,-189.73 890,-189.73"/>
<text text-anchor="middle" x="907.12" y="-198.45" font-family="DejaVu Sans Mono" font-size="14.00">calls</text>
</g>
<!-- 7 -->
<g id="node10" class="node">
<title>7</title>
<polygon fill="#fffb81" stroke="black" points="841,-349 660,-349 660,-313 841,-313 841,-349"/>
<text text-anchor="middle" x="750.5" y="-326.32" font-family="DejaVu Sans Mono" font-size="14.00">print(&#39;Bad request&#39;)</text>
</g>
<!-- 7&#45;&gt;5 -->
<g id="edge7" class="edge">
<title>7&#45;&gt;5</title>
<path fill="none" stroke="black" d="M779.01,-312.55C799.32,-300.12 826.82,-283.28 848.92,-269.75"/>
<polygon fill="black" stroke="black" points="850.33,-272.38 857.03,-264.18 846.67,-266.41 850.33,-272.38"/>
</g>
<!-- 8 -->
<g id="node11" class="node">
<title>8</title>
<polygon fill="#e552ff" stroke="#e552ff" points="779.12,-263.75 733.88,-263.75 733.88,-267.75 721.88,-267.75 721.88,-227.75 779.12,-227.75 779.12,-263.75"/>
<polyline fill="none" stroke="#e552ff" points="721.88,-263.75 733.88,-263.75"/>
<text text-anchor="middle" x="750.5" y="-241.07" font-family="DejaVu Sans Mono" font-size="14.00">print</text>
</g>
<!-- 7&#45;&gt;8 -->
<g id="edge6" class="edge">
<title>7&#45;&gt;8</title>
<path fill="none" stroke="black" stroke-dasharray="5,2" d="M750.5,-312.75C750.5,-301.81 750.5,-287.4 750.5,-274.84"/>
<polygon fill="black" stroke="black" points="754,-274.98 750.5,-264.98 747,-274.98 754,-274.98"/>
<text text-anchor="middle" x="771.12" y="-283.7" font-family="DejaVu Sans Mono" font-size="14.00">calls</text>
</g>
<!-- 14 -->
<g id="node13" class="node">
<title>14</title>
<polygon fill="#fffb81" stroke="black" points="2479.12,-501.75 1827.88,-501.75 1827.88,-442 2479.12,-442 2479.12,-501.75"/>
<text text-anchor="start" x="1835.88" y="-484.45" font-family="DejaVu Sans Mono" font-size="14.00">server_socket = socket.socket(family=socket.AF_INET, type=socket.SOCK_STREAM)</text>
<text text-anchor="start" x="1835.88" y="-467.2" font-family="DejaVu Sans Mono" font-size="14.00">server_port = 6789</text>
<text text-anchor="middle" x="2153.5" y="-449.95" font-family="DejaVu Sans Mono" font-size="14.00">threads = []</text>
</g>
<!-- 15 -->
<g id="node14" class="node">
<title>15</title>
<polygon fill="#e552ff" stroke="#e552ff" points="2215.12,-349 2103.88,-349 2103.88,-353 2091.88,-353 2091.88,-313 2215.12,-313 2215.12,-349"/>
<polyline fill="none" stroke="#e552ff" points="2091.88,-349 2103.88,-349"/>
<text text-anchor="middle" x="2153.5" y="-326.32" font-family="DejaVu Sans Mono" font-size="14.00">socket.socket</text>
</g>
<!-- 14&#45;&gt;15 -->
<g id="edge11" class="edge">
<title>14&#45;&gt;15</title>
<path fill="none" stroke="black" stroke-dasharray="5,2" d="M2153.5,-441.76C2153.5,-417.7 2153.5,-383.76 2153.5,-360.01"/>
<polygon fill="black" stroke="black" points="2157,-360.26 2153.5,-350.26 2150,-360.26 2157,-360.26"/>
<text text-anchor="middle" x="2174.12" y="-368.95" font-family="DejaVu Sans Mono" font-size="14.00">calls</text>
</g>
<!-- 16 -->
<g id="node15" class="node">
<title>16</title>
<polygon fill="orange" stroke="black" points="2337.5,-349 2288.89,-331 2337.5,-313 2386.11,-331 2337.5,-349"/>
<polyline fill="none" stroke="black" points="2300.14,-335.17 2300.14,-326.83"/>
<polyline fill="none" stroke="black" points="2326.25,-317.17 2348.75,-317.17"/>
<polyline fill="none" stroke="black" points="2374.86,-326.83 2374.86,-335.17"/>
<polyline fill="none" stroke="black" points="2348.75,-344.83 2326.25,-344.83"/>
<text text-anchor="middle" x="2337.5" y="-326.32" font-family="DejaVu Sans Mono" font-size="14.00">try:</text>
</g>
<!-- 14&#45;&gt;16 -->
<g id="edge23" class="edge">
<title>14&#45;&gt;16</title>
<path fill="none" stroke="black" d="M2192.07,-441.76C2228.71,-414.11 2282.65,-373.4 2313.5,-350.12"/>
<polygon fill="black" stroke="black" points="2315.05,-352.58 2320.92,-343.76 2310.83,-346.99 2315.05,-352.58"/>
</g>
<!-- 23 -->
<g id="node23" class="node">
<title>23</title>
<polygon fill="#ffbe52" stroke="black" points="2479.97,-245.75 2436.73,-263.75 2350.27,-263.75 2307.03,-245.75 2350.27,-227.75 2436.73,-227.75 2479.97,-245.75"/>
<text text-anchor="middle" x="2393.5" y="-241.07" font-family="DejaVu Sans Mono" font-size="14.00">while True:</text>
</g>
<!-- 16&#45;&gt;23 -->
<g id="edge22" class="edge">
<title>16&#45;&gt;23</title>
<path fill="none" stroke="black" d="M2346.75,-316.25C2354.65,-304.51 2366.23,-287.29 2375.89,-272.92"/>
<polygon fill="black" stroke="black" points="2379.23,-275.23 2381.91,-264.98 2373.42,-271.33 2379.23,-275.23"/>
</g>
<!-- 18 -->
<g id="node16" class="node">
<title>18</title>
<polygon fill="#fffb81" stroke="black" points="2289.5,-267 1811.5,-267 1811.5,-224.5 2289.5,-224.5 2289.5,-267"/>
<text text-anchor="start" x="1819.5" y="-249.7" font-family="DejaVu Sans Mono" font-size="14.00">print(&#39;Exception occured (maybe you killed the server)&#39;)</text>
<text text-anchor="middle" x="2050.5" y="-232.45" font-family="DejaVu Sans Mono" font-size="14.00">print(e)</text>
</g>
<!-- 19 -->
<g id="node17" class="node">
<title>19</title>
<polygon fill="#e552ff" stroke="#e552ff" points="2079.12,-178.5 2033.88,-178.5 2033.88,-182.5 2021.88,-182.5 2021.88,-142.5 2079.12,-142.5 2079.12,-178.5"/>
<polyline fill="none" stroke="#e552ff" points="2021.88,-178.5 2033.88,-178.5"/>
<text text-anchor="middle" x="2050.5" y="-155.82" font-family="DejaVu Sans Mono" font-size="14.00">print</text>
</g>
<!-- 18&#45;&gt;19 -->
<g id="edge12" class="edge">
<title>18&#45;&gt;19</title>
<path fill="none" stroke="black" stroke-dasharray="5,2" d="M2050.5,-224.17C2050.5,-213.7 2050.5,-200.81 2050.5,-189.46"/>
<polygon fill="black" stroke="black" points="2054,-189.75 2050.5,-179.75 2047,-189.75 2054,-189.75"/>
<text text-anchor="middle" x="2071.12" y="-198.45" font-family="DejaVu Sans Mono" font-size="14.00">calls</text>
</g>
<!-- 20 -->
<g id="node18" class="node">
<title>20</title>
<polygon fill="#e552ff" stroke="#e552ff" points="2154.12,-178.5 2108.88,-178.5 2108.88,-182.5 2096.88,-182.5 2096.88,-142.5 2154.12,-142.5 2154.12,-178.5"/>
<polyline fill="none" stroke="#e552ff" points="2096.88,-178.5 2108.88,-178.5"/>
<text text-anchor="middle" x="2125.5" y="-155.82" font-family="DejaVu Sans Mono" font-size="14.00">print</text>
</g>
<!-- 18&#45;&gt;20 -->
<g id="edge13" class="edge">
<title>18&#45;&gt;20</title>
<path fill="none" stroke="black" stroke-dasharray="5,2" d="M2081.9,-224.27C2086.73,-220.42 2091.46,-216.19 2095.5,-211.75 2101.82,-204.8 2107.49,-196.32 2112.15,-188.32"/>
<polygon fill="black" stroke="black" points="2115.56,-190.38 2117.31,-179.94 2109.42,-187.01 2115.56,-190.38"/>
<text text-anchor="middle" x="2128.12" y="-198.45" font-family="DejaVu Sans Mono" font-size="14.00">calls</text>
</g>
<!-- 17 -->
<g id="node19" class="node">
<title>17</title>
<polygon fill="#fffb81" stroke="black" points="2004.12,-178.5 1814.88,-178.5 1814.88,-142.5 2004.12,-142.5 2004.12,-178.5"/>
<text text-anchor="middle" x="1909.5" y="-155.82" font-family="DejaVu Sans Mono" font-size="14.00">server_socket.close()</text>
</g>
<!-- 18&#45;&gt;17 -->
<g id="edge15" class="edge">
<title>18&#45;&gt;17</title>
<path fill="none" stroke="black" d="M2015.65,-224.17C1995.14,-212.06 1969.17,-196.73 1948.05,-184.26"/>
<polygon fill="black" stroke="black" points="1950.11,-180.82 1939.72,-178.75 1946.55,-186.85 1950.11,-180.82"/>
</g>
<!-- 27 -->
<g id="node20" class="node">
<title>27</title>
<polygon fill="#e552ff" stroke="#e552ff" points="1995.88,-85.25 1835.12,-85.25 1835.12,-89.25 1823.12,-89.25 1823.12,-49.25 1995.88,-49.25 1995.88,-85.25"/>
<polyline fill="none" stroke="#e552ff" points="1823.12,-85.25 1835.12,-85.25"/>
<text text-anchor="middle" x="1909.5" y="-62.58" font-family="DejaVu Sans Mono" font-size="14.00">server_socket.close</text>
</g>
<!-- 17&#45;&gt;27 -->
<g id="edge14" class="edge">
<title>17&#45;&gt;27</title>
<path fill="none" stroke="black" stroke-dasharray="5,2" d="M1909.5,-142.34C1909.5,-129.42 1909.5,-111.43 1909.5,-96.42"/>
<polygon fill="black" stroke="black" points="1913,-96.65 1909.5,-86.65 1906,-96.65 1913,-96.65"/>
<text text-anchor="middle" x="1930.12" y="-105.2" font-family="DejaVu Sans Mono" font-size="14.00">calls</text>
</g>
<!-- 21 -->
<g id="node21" class="node">
<title>21</title>
<polygon fill="#fffb81" stroke="black" points="1793.5,-263.75 1315.5,-263.75 1315.5,-227.75 1793.5,-227.75 1793.5,-263.75"/>
<text text-anchor="middle" x="1554.5" y="-241.07" font-family="DejaVu Sans Mono" font-size="14.00">print(&#39;Exception occured (maybe you killed the server)&#39;)</text>
</g>
<!-- 21&#45;&gt;17 -->
<g id="edge17" class="edge">
<title>21&#45;&gt;17</title>
<path fill="none" stroke="black" d="M1628.92,-227.3C1686.08,-213.89 1765.05,-195.37 1824.66,-181.4"/>
<polygon fill="black" stroke="black" points="1825.24,-184.62 1834.18,-178.93 1823.64,-177.8 1825.24,-184.62"/>
</g>
<!-- 22 -->
<g id="node22" class="node">
<title>22</title>
<polygon fill="#e552ff" stroke="#e552ff" points="1583.12,-178.5 1537.88,-178.5 1537.88,-182.5 1525.88,-182.5 1525.88,-142.5 1583.12,-142.5 1583.12,-178.5"/>
<polyline fill="none" stroke="#e552ff" points="1525.88,-178.5 1537.88,-178.5"/>
<text text-anchor="middle" x="1554.5" y="-155.82" font-family="DejaVu Sans Mono" font-size="14.00">print</text>
</g>
<!-- 21&#45;&gt;22 -->
<g id="edge16" class="edge">
<title>21&#45;&gt;22</title>
<path fill="none" stroke="black" stroke-dasharray="5,2" d="M1554.5,-227.5C1554.5,-216.56 1554.5,-202.15 1554.5,-189.59"/>
<polygon fill="black" stroke="black" points="1558,-189.73 1554.5,-179.73 1551,-189.73 1558,-189.73"/>
<text text-anchor="middle" x="1575.12" y="-198.45" font-family="DejaVu Sans Mono" font-size="14.00">calls</text>
</g>
<!-- 23&#45;&gt;17 -->
<g id="edge21" class="edge">
<title>23&#45;&gt;17</title>
<path fill="none" stroke="red" d="M2342.91,-230.57C2328.61,-226.8 2313,-222.91 2298.5,-219.75 2234.15,-205.75 2217.93,-201.96 2152.5,-194.5 2089.26,-187.29 2072.44,-196.04 2009.5,-186.5 2000.6,-185.15 1991.33,-183.37 1982.19,-181.37"/>
<polygon fill="red" stroke="red" points="1983.07,-177.75 1972.54,-178.94 1981.52,-184.58 1983.07,-177.75"/>
<text text-anchor="middle" x="2287.38" y="-198.45" font-family="DejaVu Sans Mono" font-size="14.00">(False)</text>
</g>
<!-- 24 -->
<g id="node24" class="node">
<title>24</title>
<polygon fill="#fffb81" stroke="black" points="2479.75,-178.5 2249.25,-178.5 2249.25,-142.5 2479.75,-142.5 2479.75,-178.5"/>
<text text-anchor="middle" x="2364.5" y="-155.82" font-family="DejaVu Sans Mono" font-size="14.00">threads.append(new_thread)</text>
</g>
<!-- 23&#45;&gt;24 -->
<g id="edge20" class="edge">
<title>23&#45;&gt;24</title>
<path fill="none" stroke="green" d="M2387.49,-227.5C2383.6,-216.34 2378.46,-201.57 2374.02,-188.83"/>
<polygon fill="green" stroke="green" points="2377.1,-188.02 2370.5,-179.73 2370.49,-190.32 2377.1,-188.02"/>
<text text-anchor="middle" x="2398" y="-198.45" font-family="DejaVu Sans Mono" font-size="14.00">True</text>
</g>
<!-- 24&#45;&gt;23 -->
<g id="edge19" class="edge">
<title>24&#45;&gt;23</title>
<path fill="none" stroke="black" d="M2364.5,-178.74C2365,-188.68 2366.5,-201.24 2370.5,-211.75 2371.32,-213.89 2372.3,-216.03 2373.4,-218.12"/>
<polygon fill="black" stroke="black" points="2370.93,-219.79 2379.13,-226.5 2376.9,-216.14 2370.93,-219.79"/>
</g>
<!-- 26 -->
<g id="node25" class="node">
<title>26</title>
<polygon fill="#e552ff" stroke="#e552ff" points="2430.25,-85.25 2310.75,-85.25 2310.75,-89.25 2298.75,-89.25 2298.75,-49.25 2430.25,-49.25 2430.25,-85.25"/>
<polyline fill="none" stroke="#e552ff" points="2298.75,-85.25 2310.75,-85.25"/>
<text text-anchor="middle" x="2364.5" y="-62.58" font-family="DejaVu Sans Mono" font-size="14.00">threads.append</text>
</g>
<!-- 24&#45;&gt;26 -->
<g id="edge18" class="edge">
<title>24&#45;&gt;26</title>
<path fill="none" stroke="black" stroke-dasharray="5,2" d="M2364.5,-142.34C2364.5,-129.42 2364.5,-111.43 2364.5,-96.42"/>
<polygon fill="black" stroke="black" points="2368,-96.65 2364.5,-86.65 2361,-96.65 2368,-96.65"/>
<text text-anchor="middle" x="2385.12" y="-105.2" font-family="DejaVu Sans Mono" font-size="14.00">calls</text>
</g>
<!-- input -->
<g id="node26" class="node">
<title>input</title>
<polygon fill="#afeeee" stroke="black" points="2891.38,-349 2797.71,-349 2773.62,-313 2867.29,-313 2891.38,-349"/>
<text text-anchor="middle" x="2832.5" y="-326.32" font-family="DejaVu Sans Mono" font-size="14.00">input</text>
</g>
<!-- call -->
<g id="node31" class="node">
<title>call</title>
<polygon fill="#e552ff" stroke="black" points="2859.5,-263.75 2817.5,-263.75 2817.5,-267.75 2805.5,-267.75 2805.5,-227.75 2859.5,-227.75 2859.5,-263.75"/>
<polyline fill="none" stroke="black" points="2805.5,-263.75 2817.5,-263.75"/>
<text text-anchor="middle" x="2832.5" y="-241.07" font-family="DejaVu Sans Mono" font-size="14.00">call</text>
</g>
<!-- input&#45;&gt;call -->
<!-- default -->
<g id="node27" class="node">
<title>default</title>
<polygon fill="#fffb81" stroke="black" points="2725.38,-263.75 2651.62,-263.75 2651.62,-227.75 2725.38,-227.75 2725.38,-263.75"/>
<text text-anchor="middle" x="2688.5" y="-241.07" font-family="DejaVu Sans Mono" font-size="14.00">default</text>
</g>
<!-- if -->
<g id="node28" class="node">
<title>if</title>
<polygon fill="#ff6752" stroke="black" points="2832.5,-489.88 2800.26,-471.88 2832.5,-453.88 2864.74,-471.88 2832.5,-489.88"/>
<text text-anchor="middle" x="2832.5" y="-467.2" font-family="DejaVu Sans Mono" font-size="14.00">if</text>
</g>
<!-- if&#45;&gt;input -->
<!-- for -->
<g id="node29" class="node">
<title>for</title>
<polygon fill="#ffbe52" stroke="black" points="2780.51,-471.88 2764,-489.87 2731,-489.87 2714.49,-471.88 2731,-453.88 2764,-453.88 2780.51,-471.88"/>
<text text-anchor="middle" x="2747.5" y="-467.2" font-family="DejaVu Sans Mono" font-size="14.00">for</text>
</g>
<!-- return -->
<g id="node32" class="node">
<title>return</title>
<polygon fill="#98fb98" stroke="black" points="2755.87,-349 2648.7,-349 2621.13,-313 2728.3,-313 2755.87,-349"/>
<text text-anchor="middle" x="2688.5" y="-326.32" font-family="DejaVu Sans Mono" font-size="14.00">return</text>
</g>
<!-- for&#45;&gt;return -->
<!-- while -->
<g id="node30" class="node">
<title>while</title>
<polygon fill="#ffbe52" stroke="black" points="2696.87,-471.88 2673.69,-489.87 2627.31,-489.87 2604.13,-471.88 2627.31,-453.88 2673.69,-453.88 2696.87,-471.88"/>
<text text-anchor="middle" x="2650.5" y="-467.2" font-family="DejaVu Sans Mono" font-size="14.00">while</text>
</g>
<!-- return&#45;&gt;default -->
<!-- try -->
<g id="node33" class="node">
<title>try</title>
<polygon fill="orange" stroke="black" points="2545.5,-489.88 2505.07,-471.88 2545.5,-453.88 2585.93,-471.88 2545.5,-489.88"/>
<polyline fill="none" stroke="black" points="2516.04,-476.76 2516.04,-466.99"/>
<polyline fill="none" stroke="black" points="2534.54,-458.76 2556.46,-458.76"/>
<polyline fill="none" stroke="black" points="2574.96,-466.99 2574.96,-476.76"/>
<polyline fill="none" stroke="black" points="2556.46,-484.99 2534.54,-484.99"/>
<text text-anchor="middle" x="2545.5" y="-467.2" font-family="DejaVu Sans Mono" font-size="14.00">try</text>
</g>
<!-- raise -->
<g id="node34" class="node">
<title>raise</title>
<polygon fill="#98fb98" stroke="black" points="2603.14,-336.56 2553.5,-349 2503.86,-336.56 2503.91,-316.44 2603.09,-316.44 2603.14,-336.56"/>
<text text-anchor="middle" x="2553.5" y="-326.32" font-family="DejaVu Sans Mono" font-size="14.00">raise</text>
</g>
<!-- try&#45;&gt;raise -->
</g>
</svg>
